<svg width="20" height="20" viewBox="0 0 20 20" fill="none" xmlns="http://www.w3.org/2000/svg">
<path d="M11.425 8.63752L9.34167 6.55418V2.03752C9.34167 1.46252 9.80833 0.99585 10.3833 0.99585C10.9583 0.99585 11.425 1.46252 11.425 2.03752V8.63752ZM17.2583 4.53752C17.2583 3.96252 16.7917 3.49585 16.2167 3.49585C15.6417 3.49585 15.175 3.96252 15.175 4.53752V9.32918H14.3417V2.87085C14.3417 2.29585 13.875 1.82918 13.3 1.82918C12.725 1.82918 12.2583 2.29585 12.2583 2.87085V9.47085L17.2583 14.4708V4.53752ZM8.50833 3.70418C8.50833 3.12918 8.04167 2.66252 7.46667 2.66252C6.90833 2.66252 6.46667 3.10418 6.43333 3.64585L8.50833 5.72085V3.70418ZM11.425 8.63752L9.34167 6.55418V2.03752C9.34167 1.46252 9.80833 0.99585 10.3833 0.99585C10.9583 0.99585 11.425 1.46252 11.425 2.03752V8.63752ZM17.2583 4.53752C17.2583 3.96252 16.7917 3.49585 16.2167 3.49585C15.6417 3.49585 15.175 3.96252 15.175 4.53752V9.32918H14.3417V2.87085C14.3417 2.29585 13.875 1.82918 13.3 1.82918C12.725 1.82918 12.2583 2.29585 12.2583 2.87085V9.47085L17.2583 14.4708V4.53752ZM8.50833 3.70418C8.50833 3.12918 8.04167 2.66252 7.46667 2.66252C6.90833 2.66252 6.46667 3.10418 6.43333 3.64585L8.50833 5.72085V3.70418ZM18.25 17.8209L2.93333 2.50418L1.75 3.67918L6.44167 8.37085L6.425 8.35418V11.9375C5.5 11.4042 4.275 10.7125 4.25833 10.7042C4.11667 10.6292 3.975 10.5875 3.80833 10.5875C3.59167 10.5875 3.39167 10.6625 3.225 10.8042C3.19167 10.8125 2.25833 11.7292 2.25833 11.7292L7.925 17.7125C8.4 18.2125 9.05 18.4958 9.74167 18.4958H14.7583C15.275 18.4958 15.7417 18.3375 16.1333 18.0625L16.1167 18.0458L17.075 19.0042L18.25 17.8209Z" fill="#1976E4"/>
</svg>
