<svg width="20" height="23" viewBox="0 0 20 23" fill="none" xmlns="http://www.w3.org/2000/svg">
<path d="M17.4918 13.2834C17.5002 13.1917 17.5002 13.0917 17.5002 13.0001C17.5002 8.40008 13.7668 4.66675 9.16683 4.66675C4.56683 4.66675 0.833496 8.40008 0.833496 13.0001C0.833496 17.3084 4.1085 20.8584 8.30016 21.2917C7.52516 20.6834 6.86683 19.9251 6.36683 19.0584C4.0835 18.0001 2.50016 15.6834 2.50016 13.0001C2.50016 11.4584 3.02516 10.0417 3.9085 8.91675L8.62516 13.6334C9.09183 13.3001 9.60016 13.0251 10.1418 12.8001L5.0835 7.74175C6.2085 6.85841 7.62516 6.33341 9.16683 6.33341C12.7002 6.33341 15.5835 9.07508 15.8168 12.5417C16.4085 12.7251 16.9752 12.9751 17.4918 13.2834ZM13.3335 13.8334C10.6835 13.8334 8.41683 15.3917 7.50016 17.5834C8.41683 19.7751 10.6835 21.3334 13.3335 21.3334C15.9835 21.3334 18.2502 19.7751 19.1668 17.5834C18.2502 15.3917 15.9835 13.8334 13.3335 13.8334ZM13.3335 19.6667C12.1835 19.6667 11.2502 18.7334 11.2502 17.5834C11.2502 16.4334 12.1835 15.5001 13.3335 15.5001C14.4835 15.5001 15.4168 16.4334 15.4168 17.5834C15.4168 18.7334 14.4835 19.6667 13.3335 19.6667ZM14.5835 17.5834C14.5835 18.2751 14.0252 18.8334 13.3335 18.8334C12.6418 18.8334 12.0835 18.2751 12.0835 17.5834C12.0835 16.8917 12.6418 16.3334 13.3335 16.3334C14.0252 16.3334 14.5835 16.8917 14.5835 17.5834Z" fill="#1976E4"/>
</svg>
