<svg width="408" height="335" viewBox="0 0 408 335" fill="none" xmlns="http://www.w3.org/2000/svg">
<g clip-path="url(#clip0_1004_2090)">
<rect width="408" height="335" fill="white"/>
<rect x="47.5" y="1.5" width="312" height="158" rx="3.5" fill="#30363D"/>
<rect x="47.5" y="1.5" width="312" height="158" rx="3.5" stroke="#5B5757"/>
<g opacity="0.1">
<path d="M59.972 16.36H61.28V23.812H65.924V25H59.972V16.36ZM73.2713 18.784V25H72.1193L72.0353 23.836C71.7113 24.604 70.9913 25.168 69.7553 25.168C67.9913 25.168 66.7553 24.004 66.7553 21.904C66.7553 19.804 67.9553 18.616 69.7073 18.616C70.7873 18.616 71.6153 19.06 72.0353 19.972L72.1193 18.784H73.2713ZM70.0193 23.98C71.2673 23.98 71.9993 23.188 71.9993 21.892C71.9993 20.596 71.2673 19.804 70.0193 19.804C68.7833 19.804 68.0633 20.596 68.0633 21.892C68.0633 23.188 68.7833 23.98 70.0193 23.98ZM75.5126 17.692C75.0206 17.692 74.6966 17.368 74.6966 16.876C74.6966 16.384 75.0206 16.06 75.5126 16.06C76.0046 16.06 76.3286 16.384 76.3286 16.876C76.3286 17.368 76.0046 17.692 75.5126 17.692ZM74.8886 18.784H76.1366V25H74.8886V18.784ZM77.8453 18.784H79.0093L79.0933 19.984C79.4293 19.12 80.1253 18.616 81.2293 18.616C82.6693 18.616 83.6173 19.492 83.6173 21.196V25H82.3573V21.448C82.3573 20.236 81.7213 19.816 80.8333 19.816C79.7173 19.816 79.1053 20.488 79.1053 21.724V25H77.8453V18.784ZM85.1515 18.784H86.3155L86.3995 19.984C86.7355 19.12 87.4315 18.616 88.5355 18.616C89.9755 18.616 90.9235 19.492 90.9235 21.196V25H89.6635V21.448C89.6635 20.236 89.0275 19.816 88.1395 19.816C87.0235 19.816 86.4115 20.488 86.4115 21.724V25H85.1515V18.784ZM93.2018 26.02C93.7178 26.98 94.5338 27.184 95.1938 27.184C96.3698 27.184 97.1018 26.56 97.1018 25.216V23.896C96.7658 24.7 96.0818 25.168 94.9538 25.168C93.4298 25.168 92.4578 24.292 92.4578 22.576V18.784H93.7178V22.36C93.7178 23.548 94.3778 23.968 95.3138 23.968C96.5018 23.968 97.1018 23.296 97.1018 22.228V18.784H98.3618V25.264C98.3618 27.256 97.2218 28.348 95.2058 28.348C93.6818 28.348 92.7218 27.712 92.2178 26.68L93.2018 26.02ZM106.193 18.784V25H105.041L104.957 23.836C104.633 24.604 103.913 25.168 102.677 25.168C100.913 25.168 99.6772 24.004 99.6772 21.904C99.6772 19.804 100.877 18.616 102.629 18.616C103.709 18.616 104.537 19.06 104.957 19.972L105.041 18.784H106.193ZM102.941 23.98C104.189 23.98 104.921 23.188 104.921 21.892C104.921 20.596 104.189 19.804 102.941 19.804C101.705 19.804 100.985 20.596 100.985 21.892C100.985 23.188 101.705 23.98 102.941 23.98Z" fill="white"/>
<path d="M111.86 17.8H115.02C116.22 17.8 116.94 18.46 116.94 19.61C116.94 20.27 116.7 20.85 115.9 21.16C116.86 21.47 117.26 22.11 117.26 22.95C117.26 24.14 116.44 25 115.21 25H111.86V17.8ZM114.88 18.56H112.7V20.85H114.88C115.62 20.85 116.08 20.41 116.08 19.66C116.08 18.57 115.12 18.56 114.88 18.56ZM114.95 21.59H112.7V24.24H114.93C115.95 24.24 116.4 23.72 116.4 22.94C116.4 22.1 115.88 21.59 114.95 21.59ZM123.189 23.83C122.799 24.64 122.029 25.14 120.849 25.14C119.199 25.14 118.209 24.16 118.209 22.44C118.209 20.64 119.299 19.7 120.829 19.7C122.129 19.7 123.349 20.35 123.349 22.63V22.73H119.059C119.159 23.84 119.839 24.38 120.819 24.38C121.649 24.38 122.189 23.99 122.479 23.46L123.189 23.83ZM120.779 20.46C119.879 20.46 119.209 20.96 119.079 22.01H122.499C122.399 20.93 121.649 20.46 120.779 20.46ZM124.609 17.8H125.409V24.02C125.409 24.28 125.529 24.38 125.819 24.38C125.919 24.38 126.049 24.37 126.229 24.33L126.249 24.35V25.04C126.069 25.1 125.859 25.14 125.649 25.14C124.969 25.14 124.609 24.73 124.609 24.1V17.8ZM132.353 19.84V25H131.613L131.563 24.02C131.283 24.66 130.663 25.14 129.603 25.14C128.103 25.14 127.013 24.19 127.013 22.43C127.013 20.68 128.083 19.7 129.563 19.7C130.513 19.7 131.213 20.1 131.563 20.85L131.613 19.84H132.353ZM129.693 24.38C130.863 24.38 131.553 23.65 131.553 22.42C131.553 21.19 130.863 20.46 129.693 20.46C128.523 20.46 127.853 21.19 127.853 22.42C127.853 23.65 128.523 24.38 129.693 24.38ZM134.284 18.78C133.944 18.78 133.724 18.56 133.724 18.22C133.724 17.88 133.944 17.66 134.284 17.66C134.624 17.66 134.844 17.88 134.844 18.22C134.844 18.56 134.624 18.78 134.284 18.78ZM134.694 26.03C134.694 26.66 134.384 27.1 133.624 27.1C133.374 27.1 133.144 27.05 132.954 26.99V26.29L132.974 26.27C133.154 26.31 133.314 26.34 133.474 26.34C133.774 26.34 133.894 26.22 133.894 25.96V19.84H134.694V26.03ZM141.382 19.84V25H140.642L140.592 24.02C140.312 24.66 139.692 25.14 138.632 25.14C137.132 25.14 136.042 24.19 136.042 22.43C136.042 20.68 137.112 19.7 138.592 19.7C139.542 19.7 140.242 20.1 140.592 20.85L140.642 19.84H141.382ZM138.722 24.38C139.892 24.38 140.582 23.65 140.582 22.42C140.582 21.19 139.892 20.46 138.722 20.46C137.552 20.46 136.882 21.19 136.882 22.42C136.882 23.65 137.552 24.38 138.722 24.38ZM142.762 19.84H143.502L143.552 20.77C143.822 20.11 144.352 19.75 145.202 19.75C145.342 19.75 145.492 19.76 145.662 19.79V20.57C145.462 20.54 145.282 20.52 145.092 20.52C144.122 20.52 143.562 21.04 143.562 21.98V25H142.762V19.84ZM149.654 17.8H152.814C154.014 17.8 154.734 18.46 154.734 19.61C154.734 20.27 154.494 20.85 153.694 21.16C154.654 21.47 155.054 22.11 155.054 22.95C155.054 24.14 154.234 25 153.004 25H149.654V17.8ZM152.674 18.56H150.494V20.85H152.674C153.414 20.85 153.874 20.41 153.874 19.66C153.874 18.57 152.914 18.56 152.674 18.56ZM152.744 21.59H150.494V24.24H152.724C153.744 24.24 154.194 23.72 154.194 22.94C154.194 22.1 153.674 21.59 152.744 21.59ZM160.983 23.83C160.593 24.64 159.823 25.14 158.643 25.14C156.993 25.14 156.003 24.16 156.003 22.44C156.003 20.64 157.093 19.7 158.623 19.7C159.923 19.7 161.143 20.35 161.143 22.63V22.73H156.853C156.953 23.84 157.633 24.38 158.613 24.38C159.443 24.38 159.983 23.99 160.273 23.46L160.983 23.83ZM158.573 20.46C157.673 20.46 157.003 20.96 156.873 22.01H160.293C160.193 20.93 159.443 20.46 158.573 20.46ZM162.403 17.8H163.203V22.23L165.833 19.84H166.983L165.113 21.55L167.203 25H166.263L164.523 22.09L163.473 23.03C163.283 23.2 163.203 23.37 163.203 23.62V25H162.403V17.8ZM172.785 23.83C172.395 24.64 171.625 25.14 170.445 25.14C168.795 25.14 167.805 24.16 167.805 22.44C167.805 20.64 168.895 19.7 170.425 19.7C171.725 19.7 172.945 20.35 172.945 22.63V22.73H168.655C168.755 23.84 169.435 24.38 170.415 24.38C171.245 24.38 171.785 23.99 172.075 23.46L172.785 23.83ZM170.375 20.46C169.475 20.46 168.805 20.96 168.675 22.01H172.095C171.995 20.93 171.245 20.46 170.375 20.46ZM174.144 19.84H174.884L174.934 20.77C175.204 20.11 175.734 19.75 176.584 19.75C176.724 19.75 176.874 19.76 177.044 19.79V20.57C176.844 20.54 176.664 20.52 176.474 20.52C175.504 20.52 174.944 21.04 174.944 21.98V25H174.144V19.84ZM178.51 18.78C178.17 18.78 177.95 18.56 177.95 18.22C177.95 17.88 178.17 17.66 178.51 17.66C178.85 17.66 179.07 17.88 179.07 18.22C179.07 18.56 178.85 18.78 178.51 18.78ZM178.92 26.03C178.92 26.66 178.61 27.1 177.85 27.1C177.6 27.1 177.37 27.05 177.18 26.99V26.29L177.2 26.27C177.38 26.31 177.54 26.34 177.7 26.34C178 26.34 178.12 26.22 178.12 25.96V19.84H178.92V26.03ZM185.609 19.84V25H184.869L184.819 24.02C184.539 24.66 183.919 25.14 182.859 25.14C181.359 25.14 180.269 24.19 180.269 22.43C180.269 20.68 181.339 19.7 182.819 19.7C183.769 19.7 184.469 20.1 184.819 20.85L184.869 19.84H185.609ZM182.949 24.38C184.119 24.38 184.809 23.65 184.809 22.42C184.809 21.19 184.119 20.46 182.949 20.46C181.779 20.46 181.109 21.19 181.109 22.42C181.109 23.65 181.779 24.38 182.949 24.38Z" fill="#6C6F70"/>
</g>
<rect x="59.5" y="36.5" width="288" height="111" rx="5.5" stroke="#3B3F41"/>
<path d="M78.9997 49.3333C75.3197 49.3333 72.333 52.3199 72.333 55.9999C72.333 59.6799 75.3197 62.6666 78.9997 62.6666C82.6797 62.6666 85.6663 59.6799 85.6663 55.9999C85.6663 52.3199 82.6797 49.3333 78.9997 49.3333ZM77.193 58.8599L74.7997 56.4666C74.5397 56.2066 74.5397 55.7866 74.7997 55.5266C75.0597 55.2666 75.4797 55.2666 75.7397 55.5266L77.6663 57.4466L82.253 52.8599C82.513 52.5999 82.933 52.5999 83.193 52.8599C83.453 53.1199 83.453 53.5399 83.193 53.7999L78.133 58.8599C77.8797 59.1199 77.453 59.1199 77.193 58.8599Z" fill="#28A745"/>
<rect x="95" y="48" width="241" height="16" rx="4" fill="#3D444B"/>
<path d="M78.9997 73.3333C75.3197 73.3333 72.333 76.3199 72.333 79.9999C72.333 83.6799 75.3197 86.6666 78.9997 86.6666C82.6797 86.6666 85.6663 83.6799 85.6663 79.9999C85.6663 76.3199 82.6797 73.3333 78.9997 73.3333ZM77.193 82.8599L74.7997 80.4666C74.5397 80.2066 74.5397 79.7866 74.7997 79.5266C75.0597 79.2666 75.4797 79.2666 75.7397 79.5266L77.6663 81.4466L82.253 76.8599C82.513 76.5999 82.933 76.5999 83.193 76.8599C83.453 77.1199 83.453 77.5399 83.193 77.7999L78.133 82.8599C77.8797 83.1199 77.453 83.1199 77.193 82.8599Z" fill="#28A745"/>
<rect x="95" y="72" width="241" height="16" rx="4" fill="#3D444B"/>
<path d="M78.9997 97.3333C75.3197 97.3333 72.333 100.32 72.333 104C72.333 107.68 75.3197 110.667 78.9997 110.667C82.6797 110.667 85.6663 107.68 85.6663 104C85.6663 100.32 82.6797 97.3333 78.9997 97.3333ZM77.193 106.86L74.7997 104.467C74.5397 104.207 74.5397 103.787 74.7997 103.527C75.0597 103.267 75.4797 103.267 75.7397 103.527L77.6663 105.447L82.253 100.86C82.513 100.6 82.933 100.6 83.193 100.86C83.453 101.12 83.453 101.54 83.193 101.8L78.133 106.86C77.8797 107.12 77.453 107.12 77.193 106.86Z" fill="#28A745"/>
<rect x="95" y="96" width="241" height="16" rx="4" fill="#3D444B"/>
<path d="M78.9997 121.333C75.3197 121.333 72.333 124.32 72.333 128C72.333 131.68 75.3197 134.667 78.9997 134.667C82.6797 134.667 85.6663 131.68 85.6663 128C85.6663 124.32 82.6797 121.333 78.9997 121.333ZM77.193 130.86L74.7997 128.467C74.5397 128.207 74.5397 127.787 74.7997 127.527C75.0597 127.267 75.4797 127.267 75.7397 127.527L77.6663 129.447L82.253 124.86C82.513 124.6 82.933 124.6 83.193 124.86C83.453 125.12 83.453 125.54 83.193 125.8L78.133 130.86C77.8797 131.12 77.453 131.12 77.193 130.86Z" fill="#28A745"/>
<rect x="95" y="120" width="241" height="16" rx="4" fill="#3D444B"/>
<rect x="32.5" y="28.5" width="342" height="158" rx="3.5" fill="#30363D"/>
<rect x="32.5" y="28.5" width="342" height="158" rx="3.5" stroke="#5B5757"/>
<g opacity="0.4">
<path d="M44.972 43.36H46.28V47.524L50.144 43.36H51.812L48.716 46.648L52.052 52H50.576L47.828 47.608L46.592 48.928C46.376 49.18 46.28 49.408 46.28 49.744V52H44.972V43.36ZM58.7405 50.608C58.2485 51.556 57.3125 52.168 55.8965 52.168C53.9165 52.168 52.7045 50.98 52.7045 48.916C52.7045 46.756 54.0365 45.616 55.8845 45.616C57.4445 45.616 58.9565 46.408 58.9565 49.144V49.288H54.0365C54.1565 50.428 54.8645 51.004 55.9085 51.004C56.7965 51.004 57.3725 50.584 57.6845 50.008L58.7405 50.608ZM55.8245 46.768C54.8525 46.768 54.2045 47.356 54.0485 48.376H57.6125C57.4925 47.308 56.7845 46.768 55.8245 46.768ZM59.6137 45.784H60.8257V44.392L62.0857 44.08V45.784H63.6457V46.912H62.0857V50.152C62.0857 50.728 62.3857 50.956 62.8897 50.956C63.0817 50.956 63.3817 50.932 63.7777 50.86V52C63.4177 52.084 63.0457 52.156 62.6617 52.156C61.4857 52.156 60.8257 51.532 60.8257 50.308V46.912H59.6137V45.784ZM70.6694 50.608C70.1774 51.556 69.2414 52.168 67.8254 52.168C65.8454 52.168 64.6334 50.98 64.6334 48.916C64.6334 46.756 65.9654 45.616 67.8134 45.616C69.3734 45.616 70.8854 46.408 70.8854 49.144V49.288H65.9654C66.0854 50.428 66.7934 51.004 67.8374 51.004C68.7254 51.004 69.3014 50.584 69.6134 50.008L70.6694 50.608ZM67.7534 46.768C66.7814 46.768 66.1334 47.356 65.9774 48.376H69.5414C69.4214 47.308 68.7134 46.768 67.7534 46.768ZM72.1906 45.784H73.3546L73.4386 46.984C73.7746 46.12 74.4706 45.616 75.5746 45.616C77.0146 45.616 77.9626 46.492 77.9626 48.196V52H76.7026V48.448C76.7026 47.236 76.0666 46.816 75.1786 46.816C74.0626 46.816 73.4506 47.488 73.4506 48.724V52H72.1906V45.784ZM78.8488 45.784H80.0608V44.392L81.3208 44.08V45.784H82.8808V46.912H81.3208V50.152C81.3208 50.728 81.6208 50.956 82.1248 50.956C82.3168 50.956 82.6168 50.932 83.0128 50.86V52C82.6528 52.084 82.2808 52.156 81.8968 52.156C80.7208 52.156 80.0608 51.532 80.0608 50.308V46.912H78.8488V45.784ZM89.7715 52H88.6195L88.5235 50.836C88.1995 51.664 87.5395 52.168 86.4355 52.168C85.0075 52.168 84.1195 51.34 84.1195 49.612V45.784H85.3795V49.396C85.3795 50.668 86.0275 50.968 86.7835 50.968C87.9115 50.968 88.5115 50.296 88.5115 49.084V45.784H89.7715V52ZM97.7143 45.784V52H96.5623L96.4783 50.836C96.1543 51.604 95.4343 52.168 94.1983 52.168C92.4343 52.168 91.1983 51.004 91.1983 48.904C91.1983 46.804 92.3983 45.616 94.1503 45.616C95.2303 45.616 96.0583 46.06 96.4783 46.972L96.5623 45.784H97.7143ZM94.4623 50.98C95.7103 50.98 96.4423 50.188 96.4423 48.892C96.4423 47.596 95.7103 46.804 94.4623 46.804C93.2263 46.804 92.5063 47.596 92.5063 48.892C92.5063 50.188 93.2263 50.98 94.4623 50.98ZM99.2476 45.784H100.412L100.496 46.984C100.832 46.12 101.528 45.616 102.632 45.616C104.072 45.616 105.02 46.492 105.02 48.196V52H103.76V48.448C103.76 47.236 103.124 46.816 102.236 46.816C101.12 46.816 100.508 47.488 100.508 48.724V52H99.2476V45.784Z" fill="white"/>
<path d="M110.86 44.8H114.02C115.22 44.8 115.94 45.46 115.94 46.61C115.94 47.27 115.7 47.85 114.9 48.16C115.86 48.47 116.26 49.11 116.26 49.95C116.26 51.14 115.44 52 114.21 52H110.86V44.8ZM113.88 45.56H111.7V47.85H113.88C114.62 47.85 115.08 47.41 115.08 46.66C115.08 45.57 114.12 45.56 113.88 45.56ZM113.95 48.59H111.7V51.24H113.93C114.95 51.24 115.4 50.72 115.4 49.94C115.4 49.1 114.88 48.59 113.95 48.59ZM122.189 50.83C121.799 51.64 121.029 52.14 119.849 52.14C118.199 52.14 117.209 51.16 117.209 49.44C117.209 47.64 118.299 46.7 119.829 46.7C121.129 46.7 122.349 47.35 122.349 49.63V49.73H118.059C118.159 50.84 118.839 51.38 119.819 51.38C120.649 51.38 121.189 50.99 121.479 50.46L122.189 50.83ZM119.779 47.46C118.879 47.46 118.209 47.96 118.079 49.01H121.499C121.399 47.93 120.649 47.46 119.779 47.46ZM123.609 44.8H124.409V51.02C124.409 51.28 124.529 51.38 124.819 51.38C124.919 51.38 125.049 51.37 125.229 51.33L125.249 51.35V52.04C125.069 52.1 124.859 52.14 124.649 52.14C123.969 52.14 123.609 51.73 123.609 51.1V44.8ZM131.353 46.84V52H130.613L130.563 51.02C130.283 51.66 129.663 52.14 128.603 52.14C127.103 52.14 126.013 51.19 126.013 49.43C126.013 47.68 127.083 46.7 128.563 46.7C129.513 46.7 130.213 47.1 130.563 47.85L130.613 46.84H131.353ZM128.693 51.38C129.863 51.38 130.553 50.65 130.553 49.42C130.553 48.19 129.863 47.46 128.693 47.46C127.523 47.46 126.853 48.19 126.853 49.42C126.853 50.65 127.523 51.38 128.693 51.38ZM133.284 45.78C132.944 45.78 132.724 45.56 132.724 45.22C132.724 44.88 132.944 44.66 133.284 44.66C133.624 44.66 133.844 44.88 133.844 45.22C133.844 45.56 133.624 45.78 133.284 45.78ZM133.694 53.03C133.694 53.66 133.384 54.1 132.624 54.1C132.374 54.1 132.144 54.05 131.954 53.99V53.29L131.974 53.27C132.154 53.31 132.314 53.34 132.474 53.34C132.774 53.34 132.894 53.22 132.894 52.96V46.84H133.694V53.03ZM140.382 46.84V52H139.642L139.592 51.02C139.312 51.66 138.692 52.14 137.632 52.14C136.132 52.14 135.042 51.19 135.042 49.43C135.042 47.68 136.112 46.7 137.592 46.7C138.542 46.7 139.242 47.1 139.592 47.85L139.642 46.84H140.382ZM137.722 51.38C138.892 51.38 139.582 50.65 139.582 49.42C139.582 48.19 138.892 47.46 137.722 47.46C136.552 47.46 135.882 48.19 135.882 49.42C135.882 50.65 136.552 51.38 137.722 51.38ZM141.762 46.84H142.502L142.552 47.77C142.822 47.11 143.352 46.75 144.202 46.75C144.342 46.75 144.492 46.76 144.662 46.79V47.57C144.462 47.54 144.282 47.52 144.092 47.52C143.122 47.52 142.562 48.04 142.562 48.98V52H141.762V46.84ZM148.654 44.8H151.814C153.014 44.8 153.734 45.46 153.734 46.61C153.734 47.27 153.494 47.85 152.694 48.16C153.654 48.47 154.054 49.11 154.054 49.95C154.054 51.14 153.234 52 152.004 52H148.654V44.8ZM151.674 45.56H149.494V47.85H151.674C152.414 47.85 152.874 47.41 152.874 46.66C152.874 45.57 151.914 45.56 151.674 45.56ZM151.744 48.59H149.494V51.24H151.724C152.744 51.24 153.194 50.72 153.194 49.94C153.194 49.1 152.674 48.59 151.744 48.59ZM159.983 50.83C159.593 51.64 158.823 52.14 157.643 52.14C155.993 52.14 155.003 51.16 155.003 49.44C155.003 47.64 156.093 46.7 157.623 46.7C158.923 46.7 160.143 47.35 160.143 49.63V49.73H155.853C155.953 50.84 156.633 51.38 157.613 51.38C158.443 51.38 158.983 50.99 159.273 50.46L159.983 50.83ZM157.573 47.46C156.673 47.46 156.003 47.96 155.873 49.01H159.293C159.193 47.93 158.443 47.46 157.573 47.46ZM161.403 44.8H162.203V49.23L164.833 46.84H165.983L164.113 48.55L166.203 52H165.263L163.523 49.09L162.473 50.03C162.283 50.2 162.203 50.37 162.203 50.62V52H161.403V44.8ZM171.785 50.83C171.395 51.64 170.625 52.14 169.445 52.14C167.795 52.14 166.805 51.16 166.805 49.44C166.805 47.64 167.895 46.7 169.425 46.7C170.725 46.7 171.945 47.35 171.945 49.63V49.73H167.655C167.755 50.84 168.435 51.38 169.415 51.38C170.245 51.38 170.785 50.99 171.075 50.46L171.785 50.83ZM169.375 47.46C168.475 47.46 167.805 47.96 167.675 49.01H171.095C170.995 47.93 170.245 47.46 169.375 47.46ZM173.144 46.84H173.884L173.934 47.77C174.204 47.11 174.734 46.75 175.584 46.75C175.724 46.75 175.874 46.76 176.044 46.79V47.57C175.844 47.54 175.664 47.52 175.474 47.52C174.504 47.52 173.944 48.04 173.944 48.98V52H173.144V46.84ZM177.51 45.78C177.17 45.78 176.95 45.56 176.95 45.22C176.95 44.88 177.17 44.66 177.51 44.66C177.85 44.66 178.07 44.88 178.07 45.22C178.07 45.56 177.85 45.78 177.51 45.78ZM177.92 53.03C177.92 53.66 177.61 54.1 176.85 54.1C176.6 54.1 176.37 54.05 176.18 53.99V53.29L176.2 53.27C176.38 53.31 176.54 53.34 176.7 53.34C177 53.34 177.12 53.22 177.12 52.96V46.84H177.92V53.03ZM184.609 46.84V52H183.869L183.819 51.02C183.539 51.66 182.919 52.14 181.859 52.14C180.359 52.14 179.269 51.19 179.269 49.43C179.269 47.68 180.339 46.7 181.819 46.7C182.769 46.7 183.469 47.1 183.819 47.85L183.869 46.84H184.609ZM181.949 51.38C183.119 51.38 183.809 50.65 183.809 49.42C183.809 48.19 183.119 47.46 181.949 47.46C180.779 47.46 180.109 48.19 180.109 49.42C180.109 50.65 180.779 51.38 181.949 51.38Z" fill="#6C6F70"/>
</g>
<rect x="44.5" y="63.5" width="318" height="111" rx="5.5" stroke="#3B3F41"/>
<path d="M63.9997 76.3333C60.3197 76.3333 57.333 79.3199 57.333 82.9999C57.333 86.6799 60.3197 89.6666 63.9997 89.6666C67.6797 89.6666 70.6663 86.6799 70.6663 82.9999C70.6663 79.3199 67.6797 76.3333 63.9997 76.3333ZM62.193 85.8599L59.7997 83.4666C59.5397 83.2066 59.5397 82.7866 59.7997 82.5266C60.0597 82.2666 60.4797 82.2666 60.7397 82.5266L62.6663 84.4466L67.253 79.8599C67.513 79.5999 67.933 79.5999 68.193 79.8599C68.453 80.1199 68.453 80.5399 68.193 80.7999L63.133 85.8599C62.8797 86.1199 62.453 86.1199 62.193 85.8599Z" fill="#28A745"/>
<rect x="80" y="75" width="271" height="16" rx="4" fill="#3D444B"/>
<path d="M63.9997 100.333C60.3197 100.333 57.333 103.32 57.333 107C57.333 110.68 60.3197 113.667 63.9997 113.667C67.6797 113.667 70.6663 110.68 70.6663 107C70.6663 103.32 67.6797 100.333 63.9997 100.333ZM62.193 109.86L59.7997 107.467C59.5397 107.207 59.5397 106.787 59.7997 106.527C60.0597 106.267 60.4797 106.267 60.7397 106.527L62.6663 108.447L67.253 103.86C67.513 103.6 67.933 103.6 68.193 103.86C68.453 104.12 68.453 104.54 68.193 104.8L63.133 109.86C62.8797 110.12 62.453 110.12 62.193 109.86Z" fill="#28A745"/>
<rect x="80" y="99" width="271" height="16" rx="4" fill="#3D444B"/>
<path d="M63.9997 124.333C60.3197 124.333 57.333 127.32 57.333 131C57.333 134.68 60.3197 137.667 63.9997 137.667C67.6797 137.667 70.6663 134.68 70.6663 131C70.6663 127.32 67.6797 124.333 63.9997 124.333ZM62.193 133.86L59.7997 131.467C59.5397 131.207 59.5397 130.787 59.7997 130.527C60.0597 130.267 60.4797 130.267 60.7397 130.527L62.6663 132.447L67.253 127.86C67.513 127.6 67.933 127.6 68.193 127.86C68.453 128.12 68.453 128.54 68.193 128.8L63.133 133.86C62.8797 134.12 62.453 134.12 62.193 133.86Z" fill="#28A745"/>
<rect x="80" y="123" width="271" height="16" rx="4" fill="#3D444B"/>
<path d="M63.9997 148.333C60.3197 148.333 57.333 151.32 57.333 155C57.333 158.68 60.3197 161.667 63.9997 161.667C67.6797 161.667 70.6663 158.68 70.6663 155C70.6663 151.32 67.6797 148.333 63.9997 148.333ZM62.193 157.86L59.7997 155.467C59.5397 155.207 59.5397 154.787 59.7997 154.527C60.0597 154.267 60.4797 154.267 60.7397 154.527L62.6663 156.447L67.253 151.86C67.513 151.6 67.933 151.6 68.193 151.86C68.453 152.12 68.453 152.54 68.193 152.8L63.133 157.86C62.8797 158.12 62.453 158.12 62.193 157.86Z" fill="#28A745"/>
<rect x="80" y="147" width="271" height="16" rx="4" fill="#3D444B"/>
<g filter="url(#filter0_d_1004_2090)">
<rect x="22" y="55" width="363" height="280" rx="4" fill="#30363D" shape-rendering="crispEdges"/>
<rect x="22.5" y="55.5" width="362" height="279" rx="3.5" stroke="#5B5757" shape-rendering="crispEdges"/>
<path d="M34.636 76.984L35.8 76.444C36.064 77.236 36.736 77.98 38.116 77.98C39.232 77.98 39.868 77.5 39.868 76.66C39.868 76 39.472 75.688 38.692 75.412L37.072 74.86C35.944 74.476 35.248 73.72 35.248 72.556C35.248 71.08 36.352 70.192 38.032 70.192C39.46 70.192 40.42 70.84 40.816 71.956L39.64 72.448C39.388 71.836 38.896 71.38 37.996 71.38C37.108 71.38 36.592 71.824 36.592 72.568C36.592 73.18 36.94 73.504 37.636 73.744L39.46 74.368C40.468 74.716 41.212 75.352 41.212 76.6C41.212 77.86 40.456 79.168 38.128 79.168C36.196 79.168 35.044 78.256 34.636 76.984ZM43.301 80.02C43.817 80.98 44.633 81.184 45.293 81.184C46.469 81.184 47.201 80.56 47.201 79.216V77.896C46.865 78.7 46.181 79.168 45.053 79.168C43.529 79.168 42.557 78.292 42.557 76.576V72.784H43.817V76.36C43.817 77.548 44.477 77.968 45.413 77.968C46.601 77.968 47.201 77.296 47.201 76.228V72.784H48.461V79.264C48.461 81.256 47.321 82.348 45.305 82.348C43.781 82.348 42.821 81.712 42.317 80.68L43.301 80.02ZM56.2924 72.784V79H55.1404L55.0564 77.836C54.7324 78.604 54.0124 79.168 52.7764 79.168C51.0124 79.168 49.7764 78.004 49.7764 75.904C49.7764 73.804 50.9764 72.616 52.7284 72.616C53.8084 72.616 54.6364 73.06 55.0564 73.972L55.1404 72.784H56.2924ZM53.0404 77.98C54.2884 77.98 55.0204 77.188 55.0204 75.892C55.0204 74.596 54.2884 73.804 53.0404 73.804C51.8044 73.804 51.0844 74.596 51.0844 75.892C51.0844 77.188 51.8044 77.98 53.0404 77.98ZM57.8257 72.784H58.9897L59.0737 73.912C59.3857 73.108 60.0337 72.676 61.0537 72.676C61.2217 72.676 61.4137 72.688 61.6177 72.724V73.936C61.3777 73.9 61.1617 73.876 60.9217 73.876C59.7577 73.876 59.0857 74.488 59.0857 75.64V79H57.8257V72.784ZM68.9127 72.784V79H67.7607L67.6767 77.836C67.3527 78.604 66.6327 79.168 65.3967 79.168C63.6327 79.168 62.3967 78.004 62.3967 75.904C62.3967 73.804 63.5967 72.616 65.3487 72.616C66.4287 72.616 67.2567 73.06 67.6767 73.972L67.7607 72.784H68.9127ZM65.6607 77.98C66.9087 77.98 67.6407 77.188 67.6407 75.892C67.6407 74.596 66.9087 73.804 65.6607 73.804C64.4247 73.804 63.7047 74.596 63.7047 75.892C63.7047 77.188 64.4247 77.98 65.6607 77.98ZM69.798 72.784H71.01V71.392L72.27 71.08V72.784H73.83V73.912H72.27V77.152C72.27 77.728 72.57 77.956 73.074 77.956C73.266 77.956 73.566 77.932 73.962 77.86V79C73.602 79.084 73.23 79.156 72.846 79.156C71.67 79.156 71.01 78.532 71.01 77.308V73.912H69.798V72.784Z" fill="white"/>
<path d="M79.86 71.8H83.02C84.22 71.8 84.94 72.46 84.94 73.61C84.94 74.27 84.7 74.85 83.9 75.16C84.86 75.47 85.26 76.11 85.26 76.95C85.26 78.14 84.44 79 83.21 79H79.86V71.8ZM82.88 72.56H80.7V74.85H82.88C83.62 74.85 84.08 74.41 84.08 73.66C84.08 72.57 83.12 72.56 82.88 72.56ZM82.95 75.59H80.7V78.24H82.93C83.95 78.24 84.4 77.72 84.4 76.94C84.4 76.1 83.88 75.59 82.95 75.59ZM91.1895 77.83C90.7995 78.64 90.0295 79.14 88.8495 79.14C87.1995 79.14 86.2095 78.16 86.2095 76.44C86.2095 74.64 87.2995 73.7 88.8295 73.7C90.1295 73.7 91.3495 74.35 91.3495 76.63V76.73H87.0595C87.1595 77.84 87.8395 78.38 88.8195 78.38C89.6495 78.38 90.1895 77.99 90.4795 77.46L91.1895 77.83ZM88.7795 74.46C87.8795 74.46 87.2095 74.96 87.0795 76.01H90.4995C90.3995 74.93 89.6495 74.46 88.7795 74.46ZM92.6088 71.8H93.4088V78.02C93.4088 78.28 93.5288 78.38 93.8188 78.38C93.9188 78.38 94.0488 78.37 94.2288 78.33L94.2488 78.35V79.04C94.0688 79.1 93.8588 79.14 93.6488 79.14C92.9688 79.14 92.6088 78.73 92.6088 78.1V71.8ZM100.353 73.84V79H99.6134L99.5634 78.02C99.2834 78.66 98.6634 79.14 97.6034 79.14C96.1034 79.14 95.0134 78.19 95.0134 76.43C95.0134 74.68 96.0834 73.7 97.5634 73.7C98.5134 73.7 99.2134 74.1 99.5634 74.85L99.6134 73.84H100.353ZM97.6934 78.38C98.8634 78.38 99.5534 77.65 99.5534 76.42C99.5534 75.19 98.8634 74.46 97.6934 74.46C96.5234 74.46 95.8534 75.19 95.8534 76.42C95.8534 77.65 96.5234 78.38 97.6934 78.38ZM102.284 72.78C101.944 72.78 101.724 72.56 101.724 72.22C101.724 71.88 101.944 71.66 102.284 71.66C102.624 71.66 102.844 71.88 102.844 72.22C102.844 72.56 102.624 72.78 102.284 72.78ZM102.694 80.03C102.694 80.66 102.384 81.1 101.624 81.1C101.374 81.1 101.144 81.05 100.954 80.99V80.29L100.974 80.27C101.154 80.31 101.314 80.34 101.474 80.34C101.774 80.34 101.894 80.22 101.894 79.96V73.84H102.694V80.03ZM109.382 73.84V79H108.642L108.592 78.02C108.312 78.66 107.692 79.14 106.632 79.14C105.132 79.14 104.042 78.19 104.042 76.43C104.042 74.68 105.112 73.7 106.592 73.7C107.542 73.7 108.242 74.1 108.592 74.85L108.642 73.84H109.382ZM106.722 78.38C107.892 78.38 108.582 77.65 108.582 76.42C108.582 75.19 107.892 74.46 106.722 74.46C105.552 74.46 104.882 75.19 104.882 76.42C104.882 77.65 105.552 78.38 106.722 78.38ZM110.762 73.84H111.502L111.552 74.77C111.822 74.11 112.352 73.75 113.202 73.75C113.342 73.75 113.492 73.76 113.662 73.79V74.57C113.462 74.54 113.282 74.52 113.092 74.52C112.122 74.52 111.562 75.04 111.562 75.98V79H110.762V73.84ZM117.654 71.8H120.814C122.014 71.8 122.734 72.46 122.734 73.61C122.734 74.27 122.494 74.85 121.694 75.16C122.654 75.47 123.054 76.11 123.054 76.95C123.054 78.14 122.234 79 121.004 79H117.654V71.8ZM120.674 72.56H118.494V74.85H120.674C121.414 74.85 121.874 74.41 121.874 73.66C121.874 72.57 120.914 72.56 120.674 72.56ZM120.744 75.59H118.494V78.24H120.724C121.744 78.24 122.194 77.72 122.194 76.94C122.194 76.1 121.674 75.59 120.744 75.59ZM128.983 77.83C128.593 78.64 127.823 79.14 126.643 79.14C124.993 79.14 124.003 78.16 124.003 76.44C124.003 74.64 125.093 73.7 126.623 73.7C127.923 73.7 129.143 74.35 129.143 76.63V76.73H124.853C124.953 77.84 125.633 78.38 126.613 78.38C127.443 78.38 127.983 77.99 128.273 77.46L128.983 77.83ZM126.573 74.46C125.673 74.46 125.003 74.96 124.873 76.01H128.293C128.193 74.93 127.443 74.46 126.573 74.46ZM130.403 71.8H131.203V76.23L133.833 73.84H134.983L133.113 75.55L135.203 79H134.263L132.523 76.09L131.473 77.03C131.283 77.2 131.203 77.37 131.203 77.62V79H130.403V71.8ZM140.785 77.83C140.395 78.64 139.625 79.14 138.445 79.14C136.795 79.14 135.805 78.16 135.805 76.44C135.805 74.64 136.895 73.7 138.425 73.7C139.725 73.7 140.945 74.35 140.945 76.63V76.73H136.655C136.755 77.84 137.435 78.38 138.415 78.38C139.245 78.38 139.785 77.99 140.075 77.46L140.785 77.83ZM138.375 74.46C137.475 74.46 136.805 74.96 136.675 76.01H140.095C139.995 74.93 139.245 74.46 138.375 74.46ZM142.144 73.84H142.884L142.934 74.77C143.204 74.11 143.734 73.75 144.584 73.75C144.724 73.75 144.874 73.76 145.044 73.79V74.57C144.844 74.54 144.664 74.52 144.474 74.52C143.504 74.52 142.944 75.04 142.944 75.98V79H142.144V73.84ZM146.51 72.78C146.17 72.78 145.95 72.56 145.95 72.22C145.95 71.88 146.17 71.66 146.51 71.66C146.85 71.66 147.07 71.88 147.07 72.22C147.07 72.56 146.85 72.78 146.51 72.78ZM146.92 80.03C146.92 80.66 146.61 81.1 145.85 81.1C145.6 81.1 145.37 81.05 145.18 80.99V80.29L145.2 80.27C145.38 80.31 145.54 80.34 145.7 80.34C146 80.34 146.12 80.22 146.12 79.96V73.84H146.92V80.03ZM153.609 73.84V79H152.869L152.819 78.02C152.539 78.66 151.919 79.14 150.859 79.14C149.359 79.14 148.269 78.19 148.269 76.43C148.269 74.68 149.339 73.7 150.819 73.7C151.769 73.7 152.469 74.1 152.819 74.85L152.869 73.84H153.609ZM150.949 78.38C152.119 78.38 152.809 77.65 152.809 76.42C152.809 75.19 152.119 74.46 150.949 74.46C149.779 74.46 149.109 75.19 149.109 76.42C149.109 77.65 149.779 78.38 150.949 78.38Z" fill="#6C6F70"/>
<path d="M359.833 74C359.28 74 358.833 74.4467 358.833 75C358.833 75.5533 359.28 76 359.833 76C360.386 76 360.833 75.5533 360.833 75C360.833 74.4467 360.386 74 359.833 74ZM359.833 70C359.28 70 358.833 70.4467 358.833 71C358.833 71.5533 359.28 72 359.833 72C360.386 72 360.833 71.5533 360.833 71C360.833 70.4467 360.386 70 359.833 70ZM359.833 78C359.28 78 358.833 78.4533 358.833 79C358.833 79.5467 359.286 80 359.833 80C360.38 80 360.833 79.5467 360.833 79C360.833 78.4533 360.386 78 359.833 78ZM361.833 79.6667H371.166V78.3333H361.833V79.6667ZM361.833 75.6667H371.166V74.3333H361.833V75.6667ZM361.833 70.3333V71.6667H371.166V70.3333H361.833Z" fill="#707374"/>
<rect x="34.5" y="95.5" width="338" height="135" rx="5.5" stroke="#3B3F41"/>
<path d="M53.9997 108.333C50.3197 108.333 47.333 111.32 47.333 115C47.333 118.68 50.3197 121.667 53.9997 121.667C57.6797 121.667 60.6663 118.68 60.6663 115C60.6663 111.32 57.6797 108.333 53.9997 108.333ZM52.193 117.86L49.7997 115.467C49.5397 115.207 49.5397 114.787 49.7997 114.527C50.0597 114.267 50.4797 114.267 50.7397 114.527L52.6663 116.447L57.253 111.86C57.513 111.6 57.933 111.6 58.193 111.86C58.453 112.12 58.453 112.54 58.193 112.8L53.133 117.86C52.8797 118.12 52.453 118.12 52.193 117.86Z" fill="#28A745"/>
<rect x="70" y="107" width="291" height="16" rx="4" fill="#3D444B"/>
<path d="M53.9997 132.333C50.3197 132.333 47.333 135.32 47.333 139C47.333 142.68 50.3197 145.667 53.9997 145.667C57.6797 145.667 60.6663 142.68 60.6663 139C60.6663 135.32 57.6797 132.333 53.9997 132.333ZM52.193 141.86L49.7997 139.467C49.5397 139.207 49.5397 138.787 49.7997 138.527C50.0597 138.267 50.4797 138.267 50.7397 138.527L52.6663 140.447L57.253 135.86C57.513 135.6 57.933 135.6 58.193 135.86C58.453 136.12 58.453 136.54 58.193 136.8L53.133 141.86C52.8797 142.12 52.453 142.12 52.193 141.86Z" fill="#28A745"/>
<rect x="70" y="131" width="156" height="16" rx="4" fill="#3D444B"/>
<path d="M53.9997 156.333C50.3197 156.333 47.333 159.32 47.333 163C47.333 166.68 50.3197 169.667 53.9997 169.667C57.6797 169.667 60.6663 166.68 60.6663 163C60.6663 159.32 57.6797 156.333 53.9997 156.333ZM52.193 165.86L49.7997 163.467C49.5397 163.207 49.5397 162.787 49.7997 162.527C50.0597 162.267 50.4797 162.267 50.7397 162.527L52.6663 164.447L57.253 159.86C57.513 159.6 57.933 159.6 58.193 159.86C58.453 160.12 58.453 160.54 58.193 160.8L53.133 165.86C52.8797 166.12 52.453 166.12 52.193 165.86Z" fill="#28A745"/>
<rect x="70" y="155" width="214" height="16" rx="4" fill="#3D444B"/>
<path d="M53.9997 180.333C50.3197 180.333 47.333 183.32 47.333 187C47.333 190.68 50.3197 193.667 53.9997 193.667C57.6797 193.667 60.6663 190.68 60.6663 187C60.6663 183.32 57.6797 180.333 53.9997 180.333ZM52.193 189.86L49.7997 187.467C49.5397 187.207 49.5397 186.787 49.7997 186.527C50.0597 186.267 50.4797 186.267 50.7397 186.527L52.6663 188.447L57.253 183.86C57.513 183.6 57.933 183.6 58.193 183.86C58.453 184.12 58.453 184.54 58.193 184.8L53.133 189.86C52.8797 190.12 52.453 190.12 52.193 189.86Z" fill="#28A745"/>
<rect x="70" y="179" width="291" height="16" rx="4" fill="#3D444B"/>
<path d="M53.9997 204.333C50.3197 204.333 47.333 207.32 47.333 211C47.333 214.68 50.3197 217.667 53.9997 217.667C57.6797 217.667 60.6663 214.68 60.6663 211C60.6663 207.32 57.6797 204.333 53.9997 204.333ZM52.193 213.86L49.7997 211.467C49.5397 211.207 49.5397 210.787 49.7997 210.527C50.0597 210.267 50.4797 210.267 50.7397 210.527L52.6663 212.447L57.253 207.86C57.513 207.6 57.933 207.6 58.193 207.86C58.453 208.12 58.453 208.54 58.193 208.8L53.133 213.86C52.8797 214.12 52.453 214.12 52.193 213.86Z" fill="#28A745"/>
<rect x="70" y="203" width="291" height="16" rx="4" fill="#3D444B"/>
<g clip-path="url(#clip1_1004_2090)">
<path d="M53.9997 256.333C50.3197 256.333 47.333 259.32 47.333 263C47.333 266.68 50.3197 269.667 53.9997 269.667C57.6797 269.667 60.6663 266.68 60.6663 263C60.6663 259.32 57.6797 256.333 53.9997 256.333ZM52.193 265.86L49.7997 263.467C49.5397 263.207 49.5397 262.787 49.7997 262.527C50.0597 262.267 50.4797 262.267 50.7397 262.527L52.6663 264.447L57.253 259.86C57.513 259.6 57.933 259.6 58.193 259.86C58.453 260.12 58.453 260.54 58.193 260.8L53.133 265.86C52.8797 266.12 52.453 266.12 52.193 265.86Z" fill="#28A745"/>
<rect x="70" y="255" width="291" height="16" rx="4" fill="#3D444B"/>
<path d="M53.9997 280.333C50.3197 280.333 47.333 283.32 47.333 287C47.333 290.68 50.3197 293.667 53.9997 293.667C57.6797 293.667 60.6663 290.68 60.6663 287C60.6663 283.32 57.6797 280.333 53.9997 280.333ZM52.193 289.86L49.7997 287.467C49.5397 287.207 49.5397 286.787 49.7997 286.527C50.0597 286.267 50.4797 286.267 50.7397 286.527L52.6663 288.447L57.253 283.86C57.513 283.6 57.933 283.6 58.193 283.86C58.453 284.12 58.453 284.54 58.193 284.8L53.133 289.86C52.8797 290.12 52.453 290.12 52.193 289.86Z" fill="#28A745"/>
<rect x="70" y="279" width="156" height="16" rx="4" fill="#3D444B"/>
<path d="M53.9997 304.333C50.3197 304.333 47.333 307.32 47.333 311C47.333 314.68 50.3197 317.667 53.9997 317.667C57.6797 317.667 60.6663 314.68 60.6663 311C60.6663 307.32 57.6797 304.333 53.9997 304.333ZM52.193 313.86L49.7997 311.467C49.5397 311.207 49.5397 310.787 49.7997 310.527C50.0597 310.267 50.4797 310.267 50.7397 310.527L52.6663 312.447L57.253 307.86C57.513 307.6 57.933 307.6 58.193 307.86C58.453 308.12 58.453 308.54 58.193 308.8L53.133 313.86C52.8797 314.12 52.453 314.12 52.193 313.86Z" fill="#28A745"/>
<rect x="70" y="303" width="214" height="16" rx="4" fill="#3D444B"/>
</g>
<rect x="34.5" y="243.5" width="338" height="79" rx="5.5" stroke="#3B3F41"/>
</g>
<g filter="url(#filter1_d_1004_2090)">
<mask id="path-49-inside-1_1004_2090" fill="white">
<path fill-rule="evenodd" clip-rule="evenodd" d="M391.79 174.588C390.969 173.578 390.016 173 389.001 173C387.985 173 387.033 173.578 386.211 174.588C384.994 174.124 383.88 174.1 383.001 174.607C382.121 175.115 381.585 176.092 381.379 177.379C380.092 177.585 379.115 178.121 378.607 179C378.1 179.88 378.124 180.994 378.588 182.211C377.578 183.033 377 183.985 377 185.001C377 186.016 377.578 186.969 378.588 187.79C378.124 189.007 378.1 190.121 378.607 191C379.115 191.88 380.092 192.416 381.378 192.622C381.584 193.908 382.12 194.884 382.999 195.392C383.879 195.9 384.993 195.875 386.21 195.41C387.032 196.422 387.985 197 389.001 197C390.017 197 390.969 196.422 391.791 195.411C393.007 195.875 394.121 195.899 395.001 195.392C395.88 194.884 396.416 193.908 396.622 192.622C397.908 192.415 398.884 191.88 399.392 191C399.899 190.121 399.875 189.007 399.411 187.791C400.422 186.969 401 186.017 401 185.001C401 183.985 400.422 183.032 399.411 182.21C399.875 180.994 399.899 179.88 399.392 179C398.884 178.121 397.907 177.585 396.621 177.379C396.415 176.092 395.879 175.115 394.999 174.607C394.12 174.1 393.006 174.124 391.79 174.588Z"/>
</mask>
<path fill-rule="evenodd" clip-rule="evenodd" d="M391.79 174.588C390.969 173.578 390.016 173 389.001 173C387.985 173 387.033 173.578 386.211 174.588C384.994 174.124 383.88 174.1 383.001 174.607C382.121 175.115 381.585 176.092 381.379 177.379C380.092 177.585 379.115 178.121 378.607 179C378.1 179.88 378.124 180.994 378.588 182.211C377.578 183.033 377 183.985 377 185.001C377 186.016 377.578 186.969 378.588 187.79C378.124 189.007 378.1 190.121 378.607 191C379.115 191.88 380.092 192.416 381.378 192.622C381.584 193.908 382.12 194.884 382.999 195.392C383.879 195.9 384.993 195.875 386.21 195.41C387.032 196.422 387.985 197 389.001 197C390.017 197 390.969 196.422 391.791 195.411C393.007 195.875 394.121 195.899 395.001 195.392C395.88 194.884 396.416 193.908 396.622 192.622C397.908 192.415 398.884 191.88 399.392 191C399.899 190.121 399.875 189.007 399.411 187.791C400.422 186.969 401 186.017 401 185.001C401 183.985 400.422 183.032 399.411 182.21C399.875 180.994 399.899 179.88 399.392 179C398.884 178.121 397.907 177.585 396.621 177.379C396.415 176.092 395.879 175.115 394.999 174.607C394.12 174.1 393.006 174.124 391.79 174.588Z" fill="#FFCC00"/>
<path d="M391.79 174.588L391.014 175.219L391.471 175.78L392.146 175.522L391.79 174.588ZM386.211 174.588L385.854 175.523L386.53 175.781L386.987 175.219L386.211 174.588ZM383.001 174.607L383.501 175.474L383.501 175.474L383.001 174.607ZM381.379 177.379L381.537 178.366L382.252 178.252L382.366 177.537L381.379 177.379ZM378.607 179L377.741 178.5L377.741 178.501L378.607 179ZM378.588 182.211L379.219 182.987L379.781 182.53L379.523 181.854L378.588 182.211ZM378.588 187.79L379.523 188.147L379.781 187.471L379.219 187.014L378.588 187.79ZM378.607 191L377.741 191.5L377.741 191.5L378.607 191ZM381.378 192.622L382.365 192.463L382.25 191.749L381.536 191.635L381.378 192.622ZM382.999 195.392L382.499 196.258L382.999 195.392ZM386.21 195.41L386.986 194.78L386.53 194.218L385.853 194.476L386.21 195.41ZM391.791 195.411L392.147 194.477L391.471 194.219L391.015 194.78L391.791 195.411ZM395.001 195.392L395.501 196.258L395.501 196.258L395.001 195.392ZM396.622 192.622L396.464 191.634L395.749 191.749L395.635 192.463L396.622 192.622ZM399.392 191L400.258 191.5L400.258 191.5L399.392 191ZM399.411 187.791L398.78 187.015L398.219 187.471L398.477 188.147L399.411 187.791ZM399.411 182.21L398.477 181.854L398.219 182.53L398.78 182.986L399.411 182.21ZM399.392 179L400.258 178.501L400.258 178.5L399.392 179ZM396.621 177.379L395.634 177.537L395.748 178.252L396.463 178.366L396.621 177.379ZM394.999 174.607L395.499 173.741L395.499 173.741L394.999 174.607ZM389.001 174C389.606 174 390.301 174.342 391.014 175.219L392.566 173.957C391.636 172.813 390.426 172 389.001 172V174ZM386.987 175.219C387.7 174.342 388.395 174 389.001 174V172C387.575 172 386.365 172.814 385.435 173.958L386.987 175.219ZM383.501 175.474C384.025 175.171 384.798 175.12 385.854 175.523L386.568 173.654C385.19 173.128 383.735 173.029 382.501 173.741L383.501 175.474ZM382.366 177.537C382.545 176.42 382.976 175.776 383.501 175.474L382.501 173.741C381.266 174.454 380.625 175.764 380.391 177.22L382.366 177.537ZM379.474 179.5C379.776 178.976 380.42 178.545 381.537 178.366L381.221 176.391C379.764 176.625 378.454 177.266 377.741 178.5L379.474 179.5ZM379.523 181.854C379.12 180.798 379.171 180.025 379.474 179.5L377.741 178.501C377.029 179.735 377.128 181.19 377.654 182.568L379.523 181.854ZM377.958 181.435C376.814 182.365 376 183.575 376 185.001H378C378 184.395 378.342 183.7 379.219 182.987L377.958 181.435ZM376 185.001C376 186.426 376.814 187.636 377.957 188.566L379.219 187.014C378.342 186.301 378 185.606 378 185.001H376ZM379.474 190.501C379.171 189.976 379.12 189.203 379.523 188.147L377.654 187.434C377.128 188.811 377.029 190.266 377.741 191.5L379.474 190.501ZM381.536 191.635C380.42 191.455 379.776 191.025 379.474 190.5L377.741 191.5C378.454 192.735 379.764 193.376 381.219 193.609L381.536 191.635ZM383.499 194.526C382.975 194.223 382.544 193.579 382.365 192.463L380.39 192.78C380.624 194.236 381.265 195.545 382.499 196.258L383.499 194.526ZM385.853 194.476C384.797 194.88 384.024 194.829 383.499 194.526L382.499 196.258C383.734 196.971 385.189 196.871 386.567 196.345L385.853 194.476ZM389.001 196C388.395 196 387.7 195.658 386.986 194.78L385.434 196.041C386.364 197.186 387.575 198 389.001 198V196ZM391.015 194.78C390.302 195.658 389.607 196 389.001 196V198C390.427 198 391.637 197.186 392.567 196.042L391.015 194.78ZM394.501 194.526C393.976 194.828 393.203 194.88 392.147 194.477L391.434 196.345C392.812 196.871 394.266 196.97 395.501 196.258L394.501 194.526ZM395.635 192.463C395.456 193.579 395.025 194.223 394.501 194.526L395.501 196.258C396.735 195.545 397.376 194.236 397.61 192.78L395.635 192.463ZM398.526 190.5C398.223 191.025 397.58 191.455 396.464 191.634L396.781 193.609C398.236 193.376 399.545 192.735 400.258 191.5L398.526 190.5ZM398.477 188.147C398.88 189.203 398.828 189.976 398.526 190.501L400.258 191.5C400.97 190.266 400.871 188.812 400.345 187.434L398.477 188.147ZM400.042 188.567C401.186 187.637 402 186.426 402 185.001H400C400 185.607 399.658 186.302 398.78 187.015L400.042 188.567ZM402 185.001C402 183.575 401.186 182.365 400.042 181.434L398.78 182.986C399.658 183.7 400 184.395 400 185.001H402ZM398.526 179.5C398.828 180.025 398.88 180.798 398.477 181.854L400.345 182.567C400.871 181.19 400.97 179.735 400.258 178.501L398.526 179.5ZM396.463 178.366C397.579 178.545 398.223 178.976 398.526 179.5L400.258 178.5C399.545 177.266 398.235 176.625 396.779 176.391L396.463 178.366ZM394.499 175.474C395.024 175.776 395.455 176.42 395.634 177.537L397.608 177.221C397.375 175.764 396.734 174.454 395.499 173.741L394.499 175.474ZM392.146 175.522C393.202 175.12 393.975 175.171 394.499 175.474L395.499 173.741C394.265 173.029 392.811 173.128 391.434 173.654L392.146 175.522Z" fill="white" mask="url(#path-49-inside-1_1004_2090)"/>
</g>
<g filter="url(#filter2_d_1004_2090)">
<mask id="path-51-inside-2_1004_2090" fill="white">
<path fill-rule="evenodd" clip-rule="evenodd" d="M24.8607 72.0591C24.313 71.3853 23.6779 71 23.0008 71C22.3235 71 21.6882 71.3855 21.1404 72.0597C20.3291 71.75 19.5864 71.7338 19.0001 72.0723C18.4139 72.4107 18.0566 73.0618 17.919 73.9189C17.0616 74.0563 16.4103 74.4136 16.0718 74.9999C15.7332 75.5866 15.7495 76.3296 16.0594 77.1411C15.3854 77.6889 15 78.3241 15 79.0013C15 79.6783 15.3851 80.3132 16.0586 80.8609C15.7495 81.6716 15.7335 82.4138 16.0718 82.9999C16.4102 83.5862 17.0612 83.9434 17.9184 84.0809C18.0558 84.9385 18.4131 85.5899 18.9996 85.9285C19.5861 86.2671 20.3291 86.2508 21.1408 85.9408C21.6885 86.6146 22.3236 87 23.0008 87C23.6778 87 24.3127 86.6149 24.8603 85.9414C25.6714 86.2508 26.4138 86.2669 27.0001 85.9285C27.5865 85.5899 27.9439 84.9385 28.0813 84.0809C28.9385 83.9434 29.5895 83.5862 29.928 82.9999C30.2662 82.4138 30.2503 81.6717 29.9412 80.861C30.6148 80.3134 31 79.6784 31 79.0013C31 78.324 30.6145 77.6888 29.9404 77.141C30.2502 76.3295 30.2665 75.5866 29.928 74.9999C29.5894 74.4136 28.9381 74.0563 28.0806 73.9189C27.9431 73.0617 27.5858 72.4107 26.9996 72.0723C26.4135 71.734 25.6714 71.75 24.8607 72.0591Z"/>
</mask>
<path fill-rule="evenodd" clip-rule="evenodd" d="M24.8607 72.0591C24.313 71.3853 23.6779 71 23.0008 71C22.3235 71 21.6882 71.3855 21.1404 72.0597C20.3291 71.75 19.5864 71.7338 19.0001 72.0723C18.4139 72.4107 18.0566 73.0618 17.919 73.9189C17.0616 74.0563 16.4103 74.4136 16.0718 74.9999C15.7332 75.5866 15.7495 76.3296 16.0594 77.1411C15.3854 77.6889 15 78.3241 15 79.0013C15 79.6783 15.3851 80.3132 16.0586 80.8609C15.7495 81.6716 15.7335 82.4138 16.0718 82.9999C16.4102 83.5862 17.0612 83.9434 17.9184 84.0809C18.0558 84.9385 18.4131 85.5899 18.9996 85.9285C19.5861 86.2671 20.3291 86.2508 21.1408 85.9408C21.6885 86.6146 22.3236 87 23.0008 87C23.6778 87 24.3127 86.6149 24.8603 85.9414C25.6714 86.2508 26.4138 86.2669 27.0001 85.9285C27.5865 85.5899 27.9439 84.9385 28.0813 84.0809C28.9385 83.9434 29.5895 83.5862 29.928 82.9999C30.2662 82.4138 30.2503 81.6717 29.9412 80.861C30.6148 80.3134 31 79.6784 31 79.0013C31 78.324 30.6145 77.6888 29.9404 77.141C30.2502 76.3295 30.2665 75.5866 29.928 74.9999C29.5894 74.4136 28.9381 74.0563 28.0806 73.9189C27.9431 73.0617 27.5858 72.4107 26.9996 72.0723C26.4135 71.734 25.6714 71.75 24.8607 72.0591Z" fill="#FFCC00"/>
<path d="M24.8607 72.0591L24.0848 72.6899L24.5411 73.2511L25.2169 72.9934L24.8607 72.0591ZM21.1404 72.0597L20.7838 72.9939L21.46 73.252L21.9165 72.6903L21.1404 72.0597ZM19.0001 72.0723L18.5001 71.2063L18.5001 71.2063L19.0001 72.0723ZM17.919 73.9189L18.0773 74.9063L18.7917 74.7918L18.9064 74.0773L17.919 73.9189ZM16.0718 74.9999L15.2057 74.5L15.2057 74.5001L16.0718 74.9999ZM16.0594 77.1411L16.6901 77.9172L17.2519 77.4606L16.9936 76.7844L16.0594 77.1411ZM16.0586 80.8609L16.993 81.2172L17.2507 80.5413L16.6895 80.085L16.0586 80.8609ZM16.0718 82.9999L15.2057 83.4998L15.2057 83.4999L16.0718 82.9999ZM17.9184 84.0809L18.9058 83.9227L18.7912 83.2082L18.0768 83.0935L17.9184 84.0809ZM18.9996 85.9285L18.4996 86.7945L18.4996 86.7945L18.9996 85.9285ZM21.1408 85.9408L21.9167 85.31L21.4602 84.7483L20.784 85.0066L21.1408 85.9408ZM24.8603 85.9414L25.2168 85.0071L24.5409 84.7492L24.0845 85.3105L24.8603 85.9414ZM27.0001 85.9285L27.5 86.7946L27.5001 86.7945L27.0001 85.9285ZM28.0813 84.0809L27.9229 83.0935L27.2084 83.2082L27.0939 83.9227L28.0813 84.0809ZM29.928 82.9999L30.794 83.4999L30.794 83.4998L29.928 82.9999ZM29.9412 80.861L29.3103 80.0851L28.7491 80.5414L29.0068 81.2173L29.9412 80.861ZM29.9404 77.141L29.0062 76.7843L28.7479 77.4605L29.3097 77.917L29.9404 77.141ZM29.928 74.9999L30.794 74.5001L30.794 74.5L29.928 74.9999ZM28.0806 73.9189L27.0932 74.0773L27.2079 74.7918L27.9224 74.9063L28.0806 73.9189ZM26.9996 72.0723L27.4995 71.2063L27.4995 71.2062L26.9996 72.0723ZM23.0008 72C23.268 72 23.6455 72.1495 24.0848 72.6899L25.6366 71.4283C24.9804 70.6211 24.0879 70 23.0008 70V72ZM21.9165 72.6903C22.3559 72.1496 22.7335 72 23.0008 72V70C21.9134 70 21.0206 70.6214 20.3644 71.429L21.9165 72.6903ZM19.5001 72.9383C19.7313 72.8048 20.1331 72.7455 20.7838 72.9939L21.497 71.1254C20.5251 70.7545 19.4415 70.6628 18.5001 71.2063L19.5001 72.9383ZM18.9064 74.0773C19.0167 73.39 19.2688 73.0718 19.5001 72.9383L18.5001 71.2063C17.5589 71.7496 17.0965 72.7335 16.9317 73.7604L18.9064 74.0773ZM16.9378 75.4999C17.0713 75.2687 17.3895 75.0165 18.0773 74.9063L17.7608 72.9315C16.7336 73.0961 15.7493 73.5585 15.2057 74.5L16.9378 75.4999ZM16.9936 76.7844C16.745 76.1334 16.8042 75.7314 16.9379 75.4998L15.2057 74.5001C14.6621 75.4418 14.754 76.5257 15.1252 77.4979L16.9936 76.7844ZM15.4287 76.3651C14.6213 77.0214 14 77.9141 14 79.0013H16C16 78.7341 16.1496 78.3565 16.6901 77.9172L15.4287 76.3651ZM14 79.0013C14 80.0881 14.6208 80.9806 15.4277 81.6367L16.6895 80.085C16.1495 79.6459 16 79.2685 16 79.0013H14ZM16.9379 82.5001C16.8043 82.2687 16.7451 81.8672 16.993 81.2172L15.1242 80.5046C14.7538 81.476 14.6626 82.5589 15.2057 83.4998L16.9379 82.5001ZM18.0768 83.0935C17.3894 82.9833 17.0713 82.7312 16.9378 82.5L15.2057 83.4999C15.7491 84.4411 16.7331 84.9035 17.76 85.0683L18.0768 83.0935ZM19.4995 85.0624C19.2682 84.9289 19.016 84.6106 18.9058 83.9227L16.931 84.2391C17.0956 85.2665 17.558 86.2509 18.4996 86.7945L19.4995 85.0624ZM20.784 85.0066C20.1328 85.2553 19.7309 85.196 19.4995 85.0624L18.4996 86.7945C19.4413 87.3382 20.5254 87.2463 21.4976 86.8749L20.784 85.0066ZM23.0008 86C22.7336 86 22.356 85.8504 21.9167 85.31L20.3648 86.5715C21.021 87.3788 21.9137 88 23.0008 88V86ZM24.0845 85.3105C23.6453 85.8505 23.268 86 23.0008 86V88C24.0876 88 24.9801 87.3792 25.6362 86.5723L24.0845 85.3105ZM26.5002 85.0624C26.2688 85.196 25.8671 85.2552 25.2168 85.0071L24.5039 86.8757C25.4756 87.2464 26.5588 87.3378 27.5 86.7946L26.5002 85.0624ZM27.0939 83.9227C26.9837 84.6106 26.7314 84.9289 26.5001 85.0624L27.5001 86.7945C28.4416 86.2509 28.9041 85.2665 29.0687 84.2392L27.0939 83.9227ZM29.0619 82.5C28.9284 82.7312 28.6103 82.9833 27.9229 83.0935L28.2397 85.0683C29.2666 84.9036 30.2506 84.4412 30.794 83.4999L29.0619 82.5ZM29.0068 81.2173C29.2546 81.8673 29.1954 82.2687 29.0619 82.5001L30.794 83.4998C31.3371 82.559 31.2459 81.4762 30.8756 80.5048L29.0068 81.2173ZM30.572 81.6369C31.3791 80.9808 32 80.0883 32 79.0013H30C30 79.2685 29.8505 79.6459 29.3103 80.0851L30.572 81.6369ZM32 79.0013C32 77.914 31.3786 77.0212 30.571 76.3649L29.3097 77.917C29.8504 78.3564 30 78.7341 30 79.0013H32ZM29.0619 75.4998C29.1955 75.7314 29.2547 76.1333 29.0062 76.7843L30.8746 77.4977C31.2458 76.5256 31.3376 75.4417 30.794 74.5001L29.0619 75.4998ZM27.9224 74.9063C28.6102 75.0165 28.9284 75.2687 29.0619 75.4999L30.794 74.5C30.2504 73.5585 29.2661 73.0961 28.2388 72.9315L27.9224 74.9063ZM26.4996 72.9383C26.7308 73.0718 26.9829 73.3899 27.0932 74.0773L29.068 73.7604C28.9032 72.7335 28.4407 71.7496 27.4995 71.2063L26.4996 72.9383ZM25.2169 72.9934C25.8669 72.7456 26.2683 72.8049 26.4997 72.9384L27.4995 71.2062C26.5586 70.6632 25.4758 70.7543 24.5045 71.1247L25.2169 72.9934Z" fill="white" mask="url(#path-51-inside-2_1004_2090)"/>
</g>
<g filter="url(#filter3_d_1004_2090)">
<mask id="path-53-inside-3_1004_2090" fill="white">
<path fill-rule="evenodd" clip-rule="evenodd" d="M361.861 21.0591C361.313 20.3853 360.678 20 360.001 20C359.323 20 358.688 20.3855 358.14 21.0597C357.329 20.75 356.586 20.7338 356 21.0723C355.414 21.4107 355.057 22.0618 354.919 22.9189C354.062 23.0563 353.41 23.4136 353.072 23.9999C352.733 24.5866 352.749 25.3296 353.059 26.1411C352.385 26.6889 352 27.3241 352 28.0013C352 28.6783 352.385 29.3132 353.059 29.8609C352.749 30.6716 352.733 31.4138 353.072 31.9999C353.41 32.5862 354.061 32.9434 354.918 33.0809C355.056 33.9385 355.413 34.5899 356 34.9285C356.586 35.2671 357.329 35.2508 358.141 34.9408C358.689 35.6146 359.324 36 360.001 36C360.678 36 361.313 35.6149 361.86 34.9414C362.671 35.2508 363.414 35.2669 364 34.9285C364.587 34.5899 364.944 33.9385 365.081 33.0809C365.938 32.9434 366.59 32.5862 366.928 31.9999C367.266 31.4138 367.25 30.6717 366.941 29.861C367.615 29.3134 368 28.6784 368 28.0013C368 27.324 367.614 26.6888 366.94 26.141C367.25 25.3295 367.267 24.5866 366.928 23.9999C366.589 23.4136 365.938 23.0563 365.081 22.9189C364.943 22.0617 364.586 21.4107 364 21.0723C363.413 20.734 362.671 20.75 361.861 21.0591Z"/>
</mask>
<path fill-rule="evenodd" clip-rule="evenodd" d="M361.861 21.0591C361.313 20.3853 360.678 20 360.001 20C359.323 20 358.688 20.3855 358.14 21.0597C357.329 20.75 356.586 20.7338 356 21.0723C355.414 21.4107 355.057 22.0618 354.919 22.9189C354.062 23.0563 353.41 23.4136 353.072 23.9999C352.733 24.5866 352.749 25.3296 353.059 26.1411C352.385 26.6889 352 27.3241 352 28.0013C352 28.6783 352.385 29.3132 353.059 29.8609C352.749 30.6716 352.733 31.4138 353.072 31.9999C353.41 32.5862 354.061 32.9434 354.918 33.0809C355.056 33.9385 355.413 34.5899 356 34.9285C356.586 35.2671 357.329 35.2508 358.141 34.9408C358.689 35.6146 359.324 36 360.001 36C360.678 36 361.313 35.6149 361.86 34.9414C362.671 35.2508 363.414 35.2669 364 34.9285C364.587 34.5899 364.944 33.9385 365.081 33.0809C365.938 32.9434 366.59 32.5862 366.928 31.9999C367.266 31.4138 367.25 30.6717 366.941 29.861C367.615 29.3134 368 28.6784 368 28.0013C368 27.324 367.614 26.6888 366.94 26.141C367.25 25.3295 367.267 24.5866 366.928 23.9999C366.589 23.4136 365.938 23.0563 365.081 22.9189C364.943 22.0617 364.586 21.4107 364 21.0723C363.413 20.734 362.671 20.75 361.861 21.0591Z" fill="#FFCC00"/>
<path d="M361.861 21.0591L361.085 21.6899L361.541 22.2511L362.217 21.9934L361.861 21.0591ZM358.14 21.0597L357.784 21.9939L358.46 22.252L358.916 21.6903L358.14 21.0597ZM356 21.0723L355.5 20.2063L355.5 20.2063L356 21.0723ZM354.919 22.9189L355.077 23.9063L355.792 23.7918L355.906 23.0773L354.919 22.9189ZM353.072 23.9999L352.206 23.5L352.206 23.5001L353.072 23.9999ZM353.059 26.1411L353.69 26.9172L354.252 26.4606L353.994 25.7844L353.059 26.1411ZM353.059 29.8609L353.993 30.2172L354.251 29.5413L353.69 29.085L353.059 29.8609ZM353.072 31.9999L352.206 32.4998L352.206 32.4999L353.072 31.9999ZM354.918 33.0809L355.906 32.9227L355.791 32.2082L355.077 32.0935L354.918 33.0809ZM356 34.9285L355.5 35.7945L355.5 35.7945L356 34.9285ZM358.141 34.9408L358.917 34.31L358.46 33.7483L357.784 34.0066L358.141 34.9408ZM361.86 34.9414L362.217 34.0071L361.541 33.7492L361.084 34.3105L361.86 34.9414ZM364 34.9285L364.5 35.7946L364.5 35.7945L364 34.9285ZM365.081 33.0809L364.923 32.0935L364.208 32.2082L364.094 32.9227L365.081 33.0809ZM366.928 31.9999L367.794 32.4999L367.794 32.4998L366.928 31.9999ZM366.941 29.861L366.31 29.0851L365.749 29.5414L366.007 30.2173L366.941 29.861ZM366.94 26.141L366.006 25.7843L365.748 26.4605L366.31 26.917L366.94 26.141ZM366.928 23.9999L367.794 23.5001L367.794 23.5L366.928 23.9999ZM365.081 22.9189L364.093 23.0773L364.208 23.7918L364.922 23.9063L365.081 22.9189ZM364 21.0723L364.5 20.2063L364.499 20.2062L364 21.0723ZM360.001 21C360.268 21 360.646 21.1495 361.085 21.6899L362.637 20.4283C361.98 19.6211 361.088 19 360.001 19V21ZM358.916 21.6903C359.356 21.1496 359.734 21 360.001 21V19C358.913 19 358.021 19.6214 357.364 20.429L358.916 21.6903ZM356.5 21.9383C356.731 21.8048 357.133 21.7455 357.784 21.9939L358.497 20.1254C357.525 19.7545 356.442 19.6628 355.5 20.2063L356.5 21.9383ZM355.906 23.0773C356.017 22.39 356.269 22.0718 356.5 21.9383L355.5 20.2063C354.559 20.7496 354.096 21.7335 353.932 22.7604L355.906 23.0773ZM353.938 24.4999C354.071 24.2687 354.39 24.0165 355.077 23.9063L354.761 21.9315C353.734 22.0961 352.749 22.5585 352.206 23.5L353.938 24.4999ZM353.994 25.7844C353.745 25.1334 353.804 24.7314 353.938 24.4998L352.206 23.5001C351.662 24.4418 351.754 25.5257 352.125 26.4979L353.994 25.7844ZM352.429 25.3651C351.621 26.0214 351 26.9141 351 28.0013H353C353 27.7341 353.15 27.3565 353.69 26.9172L352.429 25.3651ZM351 28.0013C351 29.0881 351.621 29.9806 352.428 30.6367L353.69 29.085C353.149 28.6459 353 28.2685 353 28.0013H351ZM353.938 31.5001C353.804 31.2687 353.745 30.8672 353.993 30.2172L352.124 29.5046C351.754 30.476 351.663 31.5589 352.206 32.4998L353.938 31.5001ZM355.077 32.0935C354.389 31.9833 354.071 31.7312 353.938 31.5L352.206 32.4999C352.749 33.4411 353.733 33.9035 354.76 34.0683L355.077 32.0935ZM356.5 34.0624C356.268 33.9289 356.016 33.6106 355.906 32.9227L353.931 33.2391C354.096 34.2665 354.558 35.2509 355.5 35.7945L356.5 34.0624ZM357.784 34.0066C357.133 34.2553 356.731 34.196 356.5 34.0624L355.5 35.7945C356.441 36.3382 357.525 36.2463 358.498 35.8749L357.784 34.0066ZM360.001 35C359.734 35 359.356 34.8504 358.917 34.31L357.365 35.5715C358.021 36.3788 358.914 37 360.001 37V35ZM361.084 34.3105C360.645 34.8505 360.268 35 360.001 35V37C361.088 37 361.98 36.3792 362.636 35.5723L361.084 34.3105ZM363.5 34.0624C363.269 34.196 362.867 34.2552 362.217 34.0071L361.504 35.8757C362.476 36.2464 363.559 36.3378 364.5 35.7946L363.5 34.0624ZM364.094 32.9227C363.984 33.6106 363.731 33.9289 363.5 34.0624L364.5 35.7945C365.442 35.2509 365.904 34.2665 366.069 33.2392L364.094 32.9227ZM366.062 31.5C365.928 31.7312 365.61 31.9833 364.923 32.0935L365.24 34.0683C366.267 33.9036 367.251 33.4412 367.794 32.4999L366.062 31.5ZM366.007 30.2173C366.255 30.8673 366.195 31.2687 366.062 31.5001L367.794 32.4998C368.337 31.559 368.246 30.4762 367.876 29.5048L366.007 30.2173ZM367.572 30.6369C368.379 29.9808 369 29.0883 369 28.0013H367C367 28.2685 366.851 28.6459 366.31 29.0851L367.572 30.6369ZM369 28.0013C369 26.914 368.379 26.0212 367.571 25.3649L366.31 26.917C366.85 27.3564 367 27.7341 367 28.0013H369ZM366.062 24.4998C366.196 24.7314 366.255 25.1333 366.006 25.7843L367.875 26.4977C368.246 25.5256 368.338 24.4417 367.794 23.5001L366.062 24.4998ZM364.922 23.9063C365.61 24.0165 365.928 24.2687 366.062 24.4999L367.794 23.5C367.25 22.5585 366.266 22.0961 365.239 21.9315L364.922 23.9063ZM363.5 21.9383C363.731 22.0718 363.983 22.3899 364.093 23.0773L366.068 22.7604C365.903 21.7335 365.441 20.7496 364.5 20.2063L363.5 21.9383ZM362.217 21.9934C362.867 21.7456 363.268 21.8049 363.5 21.9384L364.499 20.2062C363.559 19.6632 362.476 19.7543 361.504 20.1247L362.217 21.9934Z" fill="white" mask="url(#path-53-inside-3_1004_2090)"/>
</g>
<mask id="path-55-inside-4_1004_2090" fill="white">
<path fill-rule="evenodd" clip-rule="evenodd" d="M69.6244 230.618C66.2013 226.408 62.2326 224 58.001 224C53.7694 224 49.8007 226.408 46.3776 230.618C41.3085 228.684 36.6683 228.583 33.0046 230.698C29.3399 232.814 27.1067 236.884 26.2474 242.243C20.8872 243.102 16.8159 245.335 14.6998 249C12.5846 252.665 12.6854 257.306 14.6197 262.375C10.4084 265.799 8 269.768 8 274C8 278.232 10.4084 282.202 14.6199 285.625C12.6854 290.694 12.5846 295.335 14.6998 299C16.8151 302.664 20.8842 304.897 26.2416 305.756C27.1011 311.114 29.3342 315.184 32.9985 317.299C36.663 319.415 41.3044 319.314 46.3747 317.379C49.7985 321.591 53.7682 324 58.001 324C62.2338 324 66.2035 321.591 69.6272 317.379C74.6976 319.314 79.3392 319.415 83.0046 317.299C86.669 315.184 88.9021 311.114 89.7616 305.756C95.1178 304.896 99.186 302.664 101.301 299C103.416 295.335 103.315 290.694 101.381 285.624C105.592 282.201 108 278.232 108 274C108 269.768 105.592 265.799 101.381 262.376C103.315 257.306 103.416 252.665 101.301 249C99.1852 245.335 95.1148 243.102 89.7557 242.244C88.8965 236.884 86.6632 232.814 82.9985 230.698C79.3339 228.583 74.6935 228.684 69.6244 230.618Z"/>
</mask>
<path fill-rule="evenodd" clip-rule="evenodd" d="M69.6244 230.618C66.2013 226.408 62.2326 224 58.001 224C53.7694 224 49.8007 226.408 46.3776 230.618C41.3085 228.684 36.6683 228.583 33.0046 230.698C29.3399 232.814 27.1067 236.884 26.2474 242.243C20.8872 243.102 16.8159 245.335 14.6998 249C12.5846 252.665 12.6854 257.306 14.6197 262.375C10.4084 265.799 8 269.768 8 274C8 278.232 10.4084 282.202 14.6199 285.625C12.6854 290.694 12.5846 295.335 14.6998 299C16.8151 302.664 20.8842 304.897 26.2416 305.756C27.1011 311.114 29.3342 315.184 32.9985 317.299C36.663 319.415 41.3044 319.314 46.3747 317.379C49.7985 321.591 53.7682 324 58.001 324C62.2338 324 66.2035 321.591 69.6272 317.379C74.6976 319.314 79.3392 319.415 83.0046 317.299C86.669 315.184 88.9021 311.114 89.7616 305.756C95.1178 304.896 99.186 302.664 101.301 299C103.416 295.335 103.315 290.694 101.381 285.624C105.592 282.201 108 278.232 108 274C108 269.768 105.592 265.799 101.381 262.376C103.315 257.306 103.416 252.665 101.301 249C99.1852 245.335 95.1148 243.102 89.7557 242.244C88.8965 236.884 86.6632 232.814 82.9985 230.698C79.3339 228.583 74.6935 228.684 69.6244 230.618Z" fill="#FFCC00"/>
<path d="M69.6244 230.618L68.0725 231.88L68.9854 233.002L70.3373 232.487L69.6244 230.618ZM46.3776 230.618L45.6647 232.487L47.0166 233.002L47.9294 231.88L46.3776 230.618ZM33.0046 230.698L32.0046 228.966L33.0046 230.698ZM26.2474 242.243L26.5638 244.218L27.993 243.989L28.2222 242.56L26.2474 242.243ZM14.6998 249L12.9678 248L12.9677 248L14.6998 249ZM14.6197 262.375L15.8813 263.927L17.0042 263.014L16.4883 261.662L14.6197 262.375ZM14.6199 285.625L16.4884 286.338L17.0044 284.986L15.8814 284.073L14.6199 285.625ZM14.6998 299L12.9677 300L12.9678 300L14.6998 299ZM26.2416 305.756L28.2163 305.44L27.9872 304.011L26.5583 303.782L26.2416 305.756ZM32.9985 317.299L31.9985 319.031H31.9985L32.9985 317.299ZM46.3747 317.379L47.9268 316.117L47.0139 314.994L45.6616 315.51L46.3747 317.379ZM69.6272 317.379L70.3404 315.51L68.9881 314.994L68.0752 316.117L69.6272 317.379ZM83.0046 317.299L84.0044 319.032L84.0046 319.031L83.0046 317.299ZM89.7616 305.756L89.4446 303.781L88.016 304.01L87.7868 305.439L89.7616 305.756ZM101.301 299L103.033 300L103.033 300L101.301 299ZM101.381 285.624L100.119 284.073L98.9962 284.985L99.5122 286.338L101.381 285.624ZM101.381 262.376L99.5123 261.663L98.9963 263.015L100.119 263.927L101.381 262.376ZM101.301 249L103.033 248L103.033 248L101.301 249ZM89.7557 242.244L87.7809 242.56L88.0101 243.989L89.4392 244.218L89.7557 242.244ZM82.9985 230.698L83.9985 228.966L83.9983 228.966L82.9985 230.698ZM58.001 226C61.4129 226 64.8665 227.936 68.0725 231.88L71.1762 229.356C67.5361 224.879 63.0524 222 58.001 222V226ZM47.9294 231.88C51.1355 227.936 54.5891 226 58.001 226V222C52.9496 222 48.4658 224.879 44.8258 229.356L47.9294 231.88ZM34.0046 232.43C36.9583 230.725 40.9168 230.675 45.6647 232.487L47.0905 228.749C41.7002 226.693 36.3783 226.441 32.0046 228.966L34.0046 232.43ZM28.2222 242.56C29.027 237.54 31.05 234.136 34.0046 232.43L32.0046 228.966C27.6299 231.492 25.1864 236.228 24.2726 241.927L28.2222 242.56ZM16.4319 250C18.1379 247.045 21.5429 245.022 26.5638 244.218L25.9311 240.268C20.2314 241.181 15.4939 243.625 12.9678 248L16.4319 250ZM16.4883 261.662C14.6766 256.914 14.7265 252.955 16.432 250L12.9677 248C10.4427 252.375 10.6942 257.697 12.7511 263.088L16.4883 261.662ZM13.3582 260.823C8.87997 264.464 6 268.948 6 274H10C10 270.588 11.9368 267.134 15.8813 263.927L13.3582 260.823ZM6 274C6 279.052 8.88002 283.537 13.3583 287.177L15.8814 284.073C11.9368 280.867 10 277.412 10 274H6ZM16.432 298C14.7264 295.045 14.6766 291.086 16.4884 286.338L12.7513 284.912C10.6942 290.303 10.4427 295.625 12.9677 300L16.432 298ZM26.5583 303.782C21.5405 302.977 18.1373 300.954 16.4319 298L12.9678 300C15.493 304.374 20.228 306.817 25.9248 307.731L26.5583 303.782ZM33.9985 315.567C31.0442 313.862 29.0214 310.458 28.2163 305.44L24.2668 306.073C25.1808 311.771 27.6242 316.506 31.9985 319.031L33.9985 315.567ZM45.6616 315.51C40.9124 317.323 36.9528 317.273 33.9985 315.567L31.9985 319.031C36.3731 321.557 41.6964 321.305 47.0879 319.247L45.6616 315.51ZM58.001 322C54.5882 322 51.1336 320.063 47.9268 316.117L44.8227 318.64C48.4633 323.119 52.9482 326 58.001 326V322ZM68.0752 316.117C64.8684 320.063 61.4138 322 58.001 322V326C63.0538 326 67.5386 323.119 71.1793 318.64L68.0752 316.117ZM82.0048 315.567C79.0494 317.273 75.0895 317.323 70.3404 315.51L68.9141 319.247C74.3057 321.305 79.6291 321.557 84.0044 319.032L82.0048 315.567ZM87.7868 305.439C86.9818 310.458 84.9589 313.862 82.0046 315.567L84.0046 319.031C88.379 316.506 90.8224 311.77 91.7363 306.073L87.7868 305.439ZM99.5689 298C97.8638 300.954 94.4613 302.976 89.4446 303.781L90.0785 307.731C95.7742 306.817 100.508 304.373 103.033 300L99.5689 298ZM99.5122 286.338C101.324 291.086 101.274 295.045 99.5688 298L103.033 300C105.558 295.625 105.307 290.302 103.249 284.911L99.5122 286.338ZM102.642 287.176C107.12 283.536 110 279.052 110 274H106C106 277.412 104.063 280.866 100.119 284.073L102.642 287.176ZM110 274C110 268.948 107.12 264.464 102.642 260.824L100.119 263.927C104.063 267.134 106 270.588 106 274H110ZM99.5688 250C101.274 252.955 101.324 256.914 99.5123 261.663L103.249 263.089C105.307 257.698 105.558 252.375 103.033 248L99.5688 250ZM89.4392 244.218C94.4588 245.023 97.8631 247.046 99.5689 250L103.033 248C100.507 243.625 95.7708 241.182 90.0722 240.269L89.4392 244.218ZM81.9985 232.43C84.9531 234.136 86.9761 237.541 87.7809 242.56L91.7305 241.927C90.8168 236.228 88.3733 231.492 83.9985 228.966L81.9985 232.43ZM70.3373 232.487C75.0851 230.675 79.0439 230.725 81.9987 232.43L83.9983 228.966C79.6239 226.441 74.3018 226.693 68.9114 228.749L70.3373 232.487Z" fill="white" mask="url(#path-55-inside-4_1004_2090)"/>
<g filter="url(#filter4_d_1004_2090)">
<path d="M58.9902 245.623L82.3236 255.989V271.656C82.3236 286.723 72.3902 300.623 58.9902 304.756C45.5902 300.623 35.6569 286.723 35.6569 271.656V255.989L58.9902 245.623ZM58.9902 238.323L28.9902 251.656V271.656C28.9902 290.156 41.7902 307.456 58.9902 311.656C76.1902 307.456 88.9902 290.156 88.9902 271.656V251.656L58.9902 238.323ZM55.6569 258.323H62.3236V264.989H55.6569V258.323ZM55.6569 271.656H62.3236V291.656H55.6569V271.656Z" fill="#1976E4"/>
<path d="M59.1933 237.866L58.9902 237.775L58.7872 237.866L28.7872 251.199L28.4902 251.331V251.656V271.656C28.4902 290.366 41.4282 307.882 58.8716 312.142L58.9902 312.171L59.1088 312.142C76.5523 307.882 89.4902 290.366 89.4902 271.656V251.656V251.331L89.1933 251.199L59.1933 237.866ZM55.6569 257.823H55.1569V258.323V264.989V265.489H55.6569H62.3236H62.8236V264.989V258.323V257.823H62.3236H55.6569ZM55.6569 271.156H55.1569V271.656V291.656V292.156H55.6569H62.3236H62.8236V291.656V271.656V271.156H62.3236H55.6569ZM36.1569 256.314L58.9902 246.17L81.8236 256.314V271.656C81.8236 286.464 72.0908 300.112 58.9902 304.232C45.8897 300.112 36.1569 286.464 36.1569 271.656V256.314Z" stroke="white"/>
</g>
</g>
<defs>
<filter id="filter0_d_1004_2090" x="12" y="37" width="383" height="300" filterUnits="userSpaceOnUse" color-interpolation-filters="sRGB">
<feFlood flood-opacity="0" result="BackgroundImageFix"/>
<feColorMatrix in="SourceAlpha" type="matrix" values="0 0 0 0 0 0 0 0 0 0 0 0 0 0 0 0 0 0 127 0" result="hardAlpha"/>
<feOffset dy="-8"/>
<feGaussianBlur stdDeviation="5"/>
<feComposite in2="hardAlpha" operator="out"/>
<feColorMatrix type="matrix" values="0 0 0 0 0 0 0 0 0 0 0 0 0 0 0 0 0 0 0.1 0"/>
<feBlend mode="normal" in2="BackgroundImageFix" result="effect1_dropShadow_1004_2090"/>
<feBlend mode="normal" in="SourceGraphic" in2="effect1_dropShadow_1004_2090" result="shape"/>
</filter>
<filter id="filter1_d_1004_2090" x="369" y="169" width="40" height="40" filterUnits="userSpaceOnUse" color-interpolation-filters="sRGB">
<feFlood flood-opacity="0" result="BackgroundImageFix"/>
<feColorMatrix in="SourceAlpha" type="matrix" values="0 0 0 0 0 0 0 0 0 0 0 0 0 0 0 0 0 0 127 0" result="hardAlpha"/>
<feOffset dy="4"/>
<feGaussianBlur stdDeviation="4"/>
<feComposite in2="hardAlpha" operator="out"/>
<feColorMatrix type="matrix" values="0 0 0 0 0 0 0 0 0 0 0 0 0 0 0 0 0 0 0.05 0"/>
<feBlend mode="normal" in2="BackgroundImageFix" result="effect1_dropShadow_1004_2090"/>
<feBlend mode="normal" in="SourceGraphic" in2="effect1_dropShadow_1004_2090" result="shape"/>
</filter>
<filter id="filter2_d_1004_2090" x="7" y="67" width="32" height="32" filterUnits="userSpaceOnUse" color-interpolation-filters="sRGB">
<feFlood flood-opacity="0" result="BackgroundImageFix"/>
<feColorMatrix in="SourceAlpha" type="matrix" values="0 0 0 0 0 0 0 0 0 0 0 0 0 0 0 0 0 0 127 0" result="hardAlpha"/>
<feOffset dy="4"/>
<feGaussianBlur stdDeviation="4"/>
<feComposite in2="hardAlpha" operator="out"/>
<feColorMatrix type="matrix" values="0 0 0 0 0 0 0 0 0 0 0 0 0 0 0 0 0 0 0.05 0"/>
<feBlend mode="normal" in2="BackgroundImageFix" result="effect1_dropShadow_1004_2090"/>
<feBlend mode="normal" in="SourceGraphic" in2="effect1_dropShadow_1004_2090" result="shape"/>
</filter>
<filter id="filter3_d_1004_2090" x="344" y="16" width="32" height="32" filterUnits="userSpaceOnUse" color-interpolation-filters="sRGB">
<feFlood flood-opacity="0" result="BackgroundImageFix"/>
<feColorMatrix in="SourceAlpha" type="matrix" values="0 0 0 0 0 0 0 0 0 0 0 0 0 0 0 0 0 0 127 0" result="hardAlpha"/>
<feOffset dy="4"/>
<feGaussianBlur stdDeviation="4"/>
<feComposite in2="hardAlpha" operator="out"/>
<feColorMatrix type="matrix" values="0 0 0 0 0 0 0 0 0 0 0 0 0 0 0 0 0 0 0.05 0"/>
<feBlend mode="normal" in2="BackgroundImageFix" result="effect1_dropShadow_1004_2090"/>
<feBlend mode="normal" in="SourceGraphic" in2="effect1_dropShadow_1004_2090" result="shape"/>
</filter>
<filter id="filter4_d_1004_2090" x="26.9902" y="236.228" width="64" height="77.457" filterUnits="userSpaceOnUse" color-interpolation-filters="sRGB">
<feFlood flood-opacity="0" result="BackgroundImageFix"/>
<feColorMatrix in="SourceAlpha" type="matrix" values="0 0 0 0 0 0 0 0 0 0 0 0 0 0 0 0 0 0 127 0" result="hardAlpha"/>
<feOffset/>
<feGaussianBlur stdDeviation="0.5"/>
<feComposite in2="hardAlpha" operator="out"/>
<feColorMatrix type="matrix" values="0 0 0 0 0 0 0 0 0 0 0 0 0 0 0 0 0 0 0.25 0"/>
<feBlend mode="normal" in2="BackgroundImageFix" result="effect1_dropShadow_1004_2090"/>
<feBlend mode="normal" in="SourceGraphic" in2="effect1_dropShadow_1004_2090" result="shape"/>
</filter>
<clipPath id="clip0_1004_2090">
<rect width="408" height="335" fill="white"/>
</clipPath>
<clipPath id="clip1_1004_2090">
<rect x="34" y="243" width="339" height="80" rx="6" fill="white"/>
</clipPath>
</defs>
</svg>
