<svg width="80" height="80" viewBox="0 0 80 80" fill="none" xmlns="http://www.w3.org/2000/svg">
<g filter="url(#filter0_d_91_962)">
<g clip-path="url(#clip0_91_962)">
<rect x="8" y="8" width="64" height="64" rx="32" fill="#FFFBEB"/>
<line x1="24.5" y1="8" x2="24.5" y2="72" stroke="#C39F0E" stroke-opacity="0.5"/>
<line x1="72" y1="24.5" x2="8" y2="24.5" stroke="#C39F0E" stroke-opacity="0.5"/>
<line x1="72" y1="56.5" x2="8" y2="56.5" stroke="#C39F0E" stroke-opacity="0.5"/>
<line x1="56.5" y1="8" x2="56.5" y2="72" stroke="#C39F0E" stroke-opacity="0.5"/>
<rect x="24.5" y="24.5" width="115" height="32" rx="3.5" fill="white"/>
<rect x="24.5" y="24.5" width="115" height="32" rx="3.5" stroke="#1976E4"/>
<rect x="28" y="28.5" width="24" height="24" rx="12" fill="#E4F0FF"/>
<path d="M44.9398 37.44L41.7198 34.22C41.4732 33.9734 41.1332 33.8334 40.7798 33.8334H35.9998C35.2665 33.8334 34.6732 34.4334 34.6732 35.1667L34.6665 45.8334C34.6665 46.5667 35.2598 47.1667 35.9932 47.1667H43.9998C44.7332 47.1667 45.3332 46.5667 45.3332 45.8334V38.3867C45.3332 38.0334 45.1932 37.6934 44.9398 37.44ZM41.8665 42.5H40.6665V44.5C40.6665 44.8667 40.3665 45.1667 39.9998 45.1667C39.6332 45.1667 39.3332 44.8667 39.3332 44.5V42.5H38.1398C37.8398 42.5 37.6932 42.14 37.9065 41.9334L39.7732 40.0734C39.9065 39.9467 40.1132 39.9467 40.2465 40.0734L42.1065 41.9334C42.3065 42.14 42.1598 42.5 41.8665 42.5ZM41.3332 38.5C40.9665 38.5 40.6665 38.2 40.6665 37.8334V34.8334L44.3332 38.5H41.3332Z" fill="#1976E4" fill-opacity="0.5"/>
<rect x="58" y="32.5" width="78" height="6" rx="3" fill="#7FB3F1"/>
<rect x="58" y="42.5" width="52" height="6" rx="3" fill="#7FB3F1"/>
<rect x="24.5" y="63.5" width="115" height="32" rx="3.5" fill="white"/>
<rect x="24.5" y="63.5" width="115" height="32" rx="3.5" stroke="#1976E4"/>
<rect x="28" y="67.5" width="24" height="24" rx="12" fill="#E4F0FF"/>
<rect x="58" y="71.5" width="78" height="6" rx="3" fill="#7FB3F1"/>
<rect x="24.5" y="-14.5" width="115" height="32" rx="3.5" fill="white"/>
<rect x="24.5" y="-14.5" width="115" height="32" rx="3.5" stroke="#1976E4"/>
<rect x="28" y="-10.5" width="24" height="24" rx="12" fill="#E4F0FF"/>
<path d="M44.9398 -1.55996L41.7198 -4.77996C41.4732 -5.02663 41.1332 -5.16663 40.7798 -5.16663H35.9998C35.2665 -5.16663 34.6732 -4.56663 34.6732 -3.83329L34.6665 6.83337C34.6665 7.56671 35.2598 8.16671 35.9932 8.16671H43.9998C44.7332 8.16671 45.3332 7.56671 45.3332 6.83337V-0.613293C45.3332 -0.966626 45.1932 -1.30663 44.9398 -1.55996ZM41.8665 3.50004H40.6665V5.50004C40.6665 5.86671 40.3665 6.16671 39.9998 6.16671C39.6332 6.16671 39.3332 5.86671 39.3332 5.50004V3.50004H38.1398C37.8398 3.50004 37.6932 3.14004 37.9065 2.93337L39.7732 1.07337C39.9065 0.946707 40.1132 0.946707 40.2465 1.07337L42.1065 2.93337C42.3065 3.14004 42.1598 3.50004 41.8665 3.50004ZM41.3332 -0.499959C40.9665 -0.499959 40.6665 -0.799959 40.6665 -1.16663V-4.16663L44.3332 -0.499959H41.3332Z" fill="#1976E4" fill-opacity="0.5"/>
<rect x="58" y="3.5" width="52" height="6" rx="3" fill="#7FB3F1"/>
<g clip-path="url(#clip1_91_962)">
<g filter="url(#filter1_d_91_962)">
<path d="M29.6898 15.2101L19.3298 24.4901C18.6898 25.0701 19.0498 26.1401 19.9098 26.2201L27.9998 27.0001L23.1498 33.76C22.9298 34.07 22.9598 34.5 23.2298 34.7701C23.5298 35.07 23.9998 35.0801 24.3098 34.7901L34.6698 25.5101C35.3098 24.9301 34.9498 23.8601 34.0898 23.7801L25.9998 23.0001L30.8498 16.2401C31.0698 15.9301 31.0398 15.5001 30.7698 15.2301C30.4698 14.9301 29.9998 14.9201 29.6898 15.2101Z" fill="#1976E4"/>
<path d="M19.8635 26.7179L27.0872 27.4144L22.7436 33.4686L22.7421 33.4707C22.385 33.9739 22.429 34.6764 22.8763 35.1236C23.3638 35.6111 24.1382 35.631 24.647 35.1593L35.0035 25.8825L35.0035 25.8825L35.0056 25.8805C35.9703 25.0063 35.4261 23.403 34.1371 23.2823C34.1368 23.2823 34.1365 23.2822 34.1362 23.2822L26.9125 22.5857L31.2561 16.5315L31.2576 16.5294C31.6147 16.0262 31.5707 15.3237 31.1234 14.8765C30.6359 14.389 29.8615 14.3691 29.3527 14.8408L18.9962 24.1176L18.9962 24.1176L18.9941 24.1196C18.0294 24.9938 18.5736 26.5971 19.8625 26.7178C19.8629 26.7178 19.8632 26.7179 19.8635 26.7179Z" stroke="white"/>
</g>
</g>
</g>
<rect x="10" y="10" width="60" height="60" rx="30" stroke="white" stroke-width="4"/>
</g>
<defs>
<filter id="filter0_d_91_962" x="0" y="0" width="80" height="80" filterUnits="userSpaceOnUse" color-interpolation-filters="sRGB">
<feFlood flood-opacity="0" result="BackgroundImageFix"/>
<feColorMatrix in="SourceAlpha" type="matrix" values="0 0 0 0 0 0 0 0 0 0 0 0 0 0 0 0 0 0 127 0" result="hardAlpha"/>
<feOffset/>
<feGaussianBlur stdDeviation="4"/>
<feComposite in2="hardAlpha" operator="out"/>
<feColorMatrix type="matrix" values="0 0 0 0 0 0 0 0 0 0 0 0 0 0 0 0 0 0 0.08 0"/>
<feBlend mode="normal" in2="BackgroundImageFix" result="effect1_dropShadow_91_962"/>
<feBlend mode="normal" in="SourceGraphic" in2="effect1_dropShadow_91_962" result="shape"/>
</filter>
<filter id="filter1_d_91_962" x="17.002" y="12.9987" width="19.9956" height="24.0028" filterUnits="userSpaceOnUse" color-interpolation-filters="sRGB">
<feFlood flood-opacity="0" result="BackgroundImageFix"/>
<feColorMatrix in="SourceAlpha" type="matrix" values="0 0 0 0 0 0 0 0 0 0 0 0 0 0 0 0 0 0 127 0" result="hardAlpha"/>
<feOffset/>
<feGaussianBlur stdDeviation="0.5"/>
<feComposite in2="hardAlpha" operator="out"/>
<feColorMatrix type="matrix" values="0 0 0 0 0 0 0 0 0 0 0 0 0 0 0 0 0 0 0.25 0"/>
<feBlend mode="normal" in2="BackgroundImageFix" result="effect1_dropShadow_91_962"/>
<feBlend mode="normal" in="SourceGraphic" in2="effect1_dropShadow_91_962" result="shape"/>
</filter>
<clipPath id="clip0_91_962">
<rect x="8" y="8" width="64" height="64" rx="32" fill="white"/>
</clipPath>
<clipPath id="clip1_91_962">
<rect width="24" height="24" fill="white" transform="translate(15 13)"/>
</clipPath>
</defs>
</svg>
