<svg width="50" height="16" viewBox="0 0 50 16" fill="none" xmlns="http://www.w3.org/2000/svg">
<path d="M8.44019 0C10.7139 0.00804829 13.0609 0.539235 15.4731 1.60161L15.5872 1.6499L15.628 1.76258V1.77062C15.8235 2.35815 15.9947 2.94567 16.1332 3.5332C16.2718 4.12072 16.3859 4.70825 16.4674 5.29577C16.5814 6.06841 16.6466 6.833 16.6629 7.60563V8.50704C16.614 10.4547 16.2718 12.4024 15.628 14.3501L15.5872 14.4628L15.4731 14.5111C13.1913 15.5091 10.9013 16 8.61947 16C8.56243 16 8.50538 16 8.44019 16V15.4527C8.50538 15.4527 8.56243 15.4527 8.61947 15.4527C10.7872 15.4527 12.9631 14.994 15.139 14.0604C16.0843 11.163 16.3451 8.26559 15.9213 5.36821C15.8398 4.80483 15.7258 4.22535 15.5872 3.65392C15.465 3.12274 15.3101 2.5835 15.139 2.05231C12.8327 1.05433 10.5998 0.555332 8.44019 0.547284V0ZM1.74952 1.60966C3.88467 0.531187 6.10131 0 8.39129 0C8.40759 0 8.42389 0 8.44019 0V0.547284C8.42389 0.547284 8.40759 0.547284 8.39129 0.547284C6.2154 0.547284 4.121 1.04628 2.0918 2.05231C1.26871 3.9839 0.804194 5.94769 0.779746 7.95171C0.747148 9.93964 1.16277 11.9759 2.08365 14.0523C4.2025 14.9618 6.32134 15.4286 8.44019 15.4527V16C6.2154 15.9759 3.99061 15.4849 1.76582 14.5111L1.61913 14.3742C0.673803 12.2817 0.233735 10.2213 0.225586 8.20121V8.05634C0.225586 8.0161 0.225586 7.9839 0.225586 7.94366C0.250034 5.84306 0.747148 3.77465 1.61913 1.74648L1.74952 1.60966Z" fill="#003399"/>
<path fill-rule="evenodd" clip-rule="evenodd" d="M8.58718 12.4666C8.47309 10.9294 8.54643 9.32779 8.08191 7.86301C7.64999 6.4948 6.01196 5.71411 5.97937 4.20908C5.94677 3.03403 6.85135 1.67387 8.54643 1.67387C10.1356 1.66582 11.1216 2.80868 11.2357 4.08031C11.3743 5.55315 9.56511 6.54309 9.09244 7.94349C8.60348 9.37608 8.74202 10.9616 8.58718 12.4666Z" fill="#003399"/>
<path fill-rule="evenodd" clip-rule="evenodd" d="M9.21437 12.0965C9.14917 10.7604 9.14917 9.48077 9.52405 8.34596C9.93966 7.05824 10.8035 5.97172 12.1237 5.61759C13.0283 5.37615 14.3566 6.42242 14.1448 7.49284C13.9655 8.35401 13.0935 9.36809 11.6918 9.48077C11.0398 9.53711 10.7628 10.0522 10.3553 10.35C12.1808 10.1729 13.3624 9.46467 14.1855 8.72423C14.3077 9.352 14.3892 10.4063 13.8921 10.7685C12.9142 11.4526 12.0096 10.8973 10.8605 11.2192C10.2167 11.4043 9.81742 11.8067 9.21437 12.0965Z" fill="#003399"/>
<path fill-rule="evenodd" clip-rule="evenodd" d="M7.96784 12.0965C8.04119 10.7604 8.03304 9.48077 7.66632 8.34596C7.2507 7.05824 6.38686 5.97172 5.06665 5.61759C4.16207 5.37615 2.82557 6.42242 3.0456 7.49284C3.22489 8.35401 4.09688 9.36809 5.49857 9.48077C6.14238 9.53711 6.42761 10.0522 6.83508 10.35C5.00146 10.1729 3.82794 9.46467 3.00485 8.72423C2.88261 9.352 2.80112 10.4063 3.29823 10.7685C4.27616 11.4526 5.18075 10.8973 6.32981 11.2192C6.97362 11.4043 7.36479 11.8067 7.96784 12.0965Z" fill="#003399"/>
<path fill-rule="evenodd" clip-rule="evenodd" d="M12.3115 14.0845V13.8672L12.4745 13.827L12.3115 13.5855V13.1831L13.045 14.1891L12.7842 14.2535L12.6049 14.004L12.3115 14.0845ZM12.3115 13.1831V13.5855L12.1975 13.4245L12.1486 13.9074L12.3115 13.8672V14.0845L12.1241 14.1247L12.0915 14.4225L11.8307 14.4869L12.0019 13.175L12.2626 13.1107L12.3115 13.1831ZM9.88302 14.7847V14.5754H9.94007C10.0297 14.5674 10.0868 14.5593 10.1112 14.5513C10.1438 14.5432 10.1764 14.5191 10.1927 14.495C10.2171 14.4628 10.2253 14.4306 10.2253 14.3903C10.2171 14.3501 10.209 14.3179 10.1846 14.2938C10.1683 14.2696 10.1357 14.2535 10.1031 14.2455C10.0705 14.2374 9.99711 14.2374 9.88302 14.2455V14.0362C9.94822 14.0362 9.98897 14.0282 10.0053 14.0282C10.046 14.0201 10.0786 13.996 10.1031 13.9718C10.1275 13.9477 10.1357 13.9155 10.1275 13.8752C10.1275 13.835 10.1112 13.8028 10.0868 13.7867C10.0705 13.7626 10.0379 13.7465 9.98896 13.7465C9.97267 13.7465 9.94007 13.7465 9.88302 13.7545V13.5453C9.97267 13.5372 10.0379 13.5372 10.0786 13.5453C10.1275 13.5453 10.1764 13.5614 10.2171 13.5855C10.2579 13.6016 10.2905 13.6338 10.3231 13.674C10.3475 13.7143 10.3638 13.7626 10.372 13.8189C10.3801 13.8752 10.3638 13.9316 10.3394 13.9799C10.3149 14.0282 10.2742 14.0684 10.2171 14.1006C10.2986 14.1167 10.3638 14.1489 10.4046 14.1972C10.4535 14.2455 10.4779 14.3018 10.4861 14.3742C10.4861 14.4306 10.4779 14.4869 10.4616 14.5432C10.4372 14.5996 10.4046 14.6398 10.3638 14.6801C10.3149 14.7123 10.266 14.7364 10.2008 14.7525C10.1601 14.7606 10.0542 14.7686 9.89932 14.7847H9.88302ZM11.4233 14.1086L11.6759 14.1408C11.6596 14.2777 11.6188 14.3903 11.5455 14.4708C11.4722 14.5432 11.3662 14.5996 11.2358 14.6237C11.0728 14.6479 10.9261 14.6157 10.8039 14.5272C10.6735 14.4306 10.6002 14.2938 10.5594 14.1006C10.5268 13.8994 10.5513 13.7304 10.6409 13.6016C10.7224 13.4728 10.8528 13.3923 11.0239 13.3601C11.1788 13.336 11.301 13.3601 11.4151 13.4326C11.4803 13.4728 11.5374 13.5372 11.5781 13.6338L11.3418 13.7304C11.3173 13.674 11.2766 13.6257 11.2277 13.6016C11.1706 13.5694 11.1136 13.5614 11.0484 13.5694C10.9587 13.5855 10.8935 13.6338 10.8447 13.7062C10.7958 13.7867 10.7876 13.8913 10.8121 14.0362C10.8447 14.1891 10.8935 14.2938 10.9587 14.3501C11.0239 14.4064 11.1054 14.4306 11.1951 14.4145C11.2603 14.3984 11.3092 14.3662 11.3499 14.3179C11.3907 14.2696 11.4151 14.1972 11.4233 14.1086ZM9.88302 13.5453V13.7545C9.85043 13.7545 9.81783 13.7626 9.77708 13.7626L9.63039 13.7787L9.65484 14.0604L9.82598 14.0443C9.84228 14.0443 9.86672 14.0443 9.88302 14.0362V14.2455C9.88302 14.2455 9.88302 14.2455 9.87487 14.2455L9.67929 14.2616L9.70374 14.5915L9.88302 14.5754V14.7847L9.47555 14.8249L9.36146 13.5935L9.85857 13.5533C9.86672 13.5453 9.87487 13.5453 9.88302 13.5453ZM8.31019 14.3581V14.1489C8.36723 14.1489 8.39983 14.1408 8.42428 14.1328C8.45688 14.1247 8.48133 14.1006 8.50577 14.0764C8.52207 14.0443 8.53022 14.0121 8.53022 13.9799C8.53837 13.9316 8.52207 13.8994 8.49762 13.8672C8.47318 13.835 8.44058 13.8189 8.39983 13.8109C8.37538 13.8109 8.35094 13.8028 8.31019 13.8028V13.5935C8.43243 13.5935 8.50577 13.6016 8.54652 13.6177C8.61987 13.6338 8.67691 13.674 8.72581 13.7384C8.7747 13.8028 8.79915 13.8833 8.791 13.9799C8.791 14.0523 8.7747 14.1167 8.75026 14.173C8.71766 14.2213 8.68506 14.2616 8.64431 14.2938C8.59542 14.3179 8.55467 14.334 8.50577 14.3501C8.45688 14.3581 8.39168 14.3581 8.31019 14.3581ZM8.31019 13.5935V13.8028C8.28574 13.8028 8.25314 13.8028 8.21239 13.8028L8.09015 13.7948V14.1489H8.22054C8.25314 14.1489 8.28574 14.1489 8.31019 14.1489V14.3581C8.29389 14.3581 8.26944 14.3581 8.24499 14.3581H8.082L8.07385 14.8249L7.82122 14.8169L7.84567 13.5855L8.24499 13.5935C8.26944 13.5935 8.29389 13.5935 8.31019 13.5935ZM5.95501 14.2374V13.8591C6.02835 13.8752 6.07725 13.8752 6.1017 13.8752C6.1343 13.8672 6.15875 13.8591 6.18319 13.835C6.19949 13.8109 6.21579 13.7867 6.22394 13.7465C6.23209 13.7062 6.22394 13.674 6.20764 13.6418C6.19134 13.6096 6.15875 13.5935 6.118 13.5775C6.1017 13.5694 6.04465 13.5614 5.95501 13.5453V13.336L6.06095 13.3521C6.19134 13.3762 6.28099 13.4004 6.33803 13.4326C6.39508 13.4648 6.43583 13.5131 6.46027 13.5775C6.48472 13.6338 6.49287 13.7062 6.47657 13.7787C6.46027 13.8672 6.41953 13.9396 6.35433 13.9879C6.29729 14.0362 6.20764 14.0604 6.09355 14.0604C6.14245 14.1006 6.18319 14.1408 6.20764 14.1811C6.24024 14.2294 6.27284 14.3018 6.31358 14.4064L6.41953 14.672L6.12615 14.6157L5.99576 14.3179C5.97946 14.2938 5.97131 14.2616 5.95501 14.2374ZM6.67216 13.4728L6.91664 13.497L6.85959 14.165C6.85144 14.2696 6.85144 14.342 6.85144 14.3662C6.85959 14.4225 6.88404 14.4628 6.91664 14.495C6.95739 14.5352 7.00628 14.5513 7.07963 14.5593C7.15297 14.5674 7.21002 14.5513 7.24262 14.5272C7.28336 14.503 7.30781 14.4708 7.32411 14.4306C7.33226 14.3903 7.34041 14.3179 7.34856 14.2213L7.4056 13.5372L7.65824 13.5614L7.60119 14.2052C7.59304 14.3581 7.57674 14.4628 7.55229 14.5191C7.53599 14.5754 7.5034 14.6318 7.4708 14.664C7.43005 14.7042 7.37301 14.7364 7.30781 14.7525C7.25077 14.7766 7.16927 14.7766 7.07148 14.7686C6.94924 14.7606 6.85959 14.7364 6.80255 14.7042C6.7455 14.672 6.69661 14.6318 6.66401 14.5915C6.63141 14.5432 6.61511 14.495 6.60696 14.4467C6.59881 14.3742 6.59881 14.2696 6.60696 14.1328L6.67216 13.4728ZM4.69185 13.835L4.74075 13.6338L5.27046 13.7706L5.14007 14.2455C5.07487 14.2857 4.99338 14.3098 4.87929 14.3179C4.77335 14.3259 4.67555 14.3179 4.57776 14.2938C4.44737 14.2616 4.34143 14.2052 4.26808 14.1328C4.18659 14.0523 4.13769 13.9557 4.11325 13.8511C4.09695 13.7384 4.09695 13.6257 4.12954 13.5131C4.16214 13.3923 4.21919 13.2877 4.30068 13.1992C4.37403 13.1187 4.47182 13.0704 4.58591 13.0463C4.67555 13.0221 4.7815 13.0302 4.89559 13.0624C5.04228 13.1026 5.15637 13.1589 5.22156 13.2475C5.28676 13.328 5.31936 13.4326 5.31121 13.5453L5.05858 13.5292C5.05858 13.4648 5.04228 13.4084 5.00153 13.3601C4.96078 13.3199 4.91189 13.2797 4.83854 13.2636C4.7326 13.2394 4.64296 13.2475 4.56146 13.2958C4.47997 13.3441 4.42292 13.4406 4.38218 13.5694C4.34143 13.7143 4.34958 13.827 4.39032 13.9155C4.43922 14.004 4.51257 14.0604 4.61036 14.0845C4.6674 14.1006 4.7163 14.1006 4.77335 14.1006C4.83039 14.0925 4.87929 14.0764 4.92819 14.0604L4.96893 13.9074L4.69185 13.835ZM5.95501 13.336L5.53124 13.2636L5.31936 14.4789L5.56384 14.5191L5.65348 14.0121L5.71053 14.0201C5.76757 14.0282 5.80832 14.0443 5.83277 14.0523C5.85722 14.0684 5.87352 14.0925 5.89796 14.1167C5.90611 14.1408 5.93056 14.1811 5.95501 14.2374V13.8591C5.93056 13.8591 5.90611 13.8511 5.87352 13.8511L5.69423 13.8189L5.74313 13.5131L5.93871 13.5453C5.94686 13.5453 5.95501 13.5453 5.95501 13.5453V13.336Z" fill="#003399"/>
<path fill-rule="evenodd" clip-rule="evenodd" d="M44.795 11.8313V9.56164H45.8055V5.56968L44.795 7.56566V2.58377H48.7637L49.7743 14.0606H45.8055V11.8313H44.795ZM44.795 2.58377V7.56566L43.7845 9.56164H44.795V11.8313H42.888L42.1057 13.9399H39.6446V11.3162L42.3909 5.46506H41.8286L43.3933 2.58377H44.795ZM39.6446 6.40671L40.8751 3.52542L39.6446 2.84936V6.40671ZM29.8571 5.30409C29.9142 4.97411 29.9142 4.65218 29.8571 4.34634V5.30409ZM39.6446 2.84936V6.40671L39.4816 6.79303C37.0531 5.07874 33.4673 6.64011 33.2636 8.45097C33.0598 10.3423 34.5186 11.8715 38.2429 10.7286L36.9634 14.1089C32.0493 14.6482 30.1424 12.7246 29.8571 10.4791V9.20751C29.9305 8.61999 30.0853 8.04856 30.2972 7.51737C32.7176 1.57773 36.6456 2.91375 38.1369 2.80107L38.357 2.14111L39.6446 2.84936ZM39.6446 11.3162L38.414 13.9399H39.6446V11.3162ZM25.4401 13.8675C28.0724 13.3524 30.6558 10.2296 28.0643 7.74272C29.0748 7.21154 29.7023 6.25379 29.8571 5.30409V4.34634C29.6778 3.35641 28.9036 2.55158 27.4449 2.52743L25.4401 2.48719V4.69242H26.2714C27.1597 4.69242 27.0456 6.96204 25.9373 6.96204H25.4401V8.70047C26.6381 8.92582 26.2143 10.5677 25.4401 11.0747V13.8675ZM29.8571 9.20751V10.4791C29.8082 10.0606 29.8082 9.63407 29.8571 9.20751ZM21.9685 2.41476L20.3468 5.52139L21.0721 5.46506L19.1162 13.9399H24.7149C24.9593 13.9399 25.1957 13.9158 25.4401 13.8675V11.0747C25.3016 11.1713 25.1468 11.2276 24.9919 11.2276H22.979L23.6473 8.67632H25.1549C25.2609 8.67632 25.3587 8.68437 25.4401 8.70047V6.96204H24.0385L24.6008 4.69242H25.4401V2.48719L21.9685 2.41476Z" fill="#003399"/>
</svg>
