<svg width="50" height="16" viewBox="0 0 50 16" fill="none" xmlns="http://www.w3.org/2000/svg">
<path d="M13.75 0.90332H0.0966797V14.3383H13.75V0.90332Z" fill="white"/>
<path fill-rule="evenodd" clip-rule="evenodd" d="M5.58661 9.97031L7.03958 8.81457C6.79864 8.51576 6.5688 8.20753 6.34952 7.8963C4.66265 5.50098 3.6687 3.06006 4.38898 0.90332H0.0966797V3.23231L5.58661 9.97031Z" fill="#E7470B"/>
<path fill-rule="evenodd" clip-rule="evenodd" d="M7.8837 6.48748C7.97401 5.72799 8.20671 4.29212 9.62548 3.22858C10.8542 2.3073 12.3886 2.13087 13.7502 2.69897V0.90332H6.17372C5.67313 3.09071 6.98863 5.49275 7.8837 6.48748Z" fill="#E7470B"/>
<path fill-rule="evenodd" clip-rule="evenodd" d="M9.71915 4.29716L9.71417 4.30128C8.2889 5.43983 8.6398 7.22771 9.96447 8.83242C10.9885 10.0731 12.3564 10.9419 13.7499 10.2833V4.99745C12.4984 3.73651 10.9959 3.27669 9.71915 4.29716Z" fill="#E7470B"/>
<path fill-rule="evenodd" clip-rule="evenodd" d="M0.0966797 5.98877V14.3382H0.097543L4.22893 11.0509L0.0966797 5.98877Z" fill="#E7470B"/>
<path fill-rule="evenodd" clip-rule="evenodd" d="M7.60833 9.479C7.20535 9.80742 6.70257 10.2111 6.14453 10.6553L6.68032 11.3129C7.45844 12.2683 8.59191 13.9198 9.99939 13.4731L10.0511 13.5359L9.05206 14.3381H13.7496V11.159C11.3324 12.4525 9.25601 11.2754 7.60833 9.479Z" fill="#E7470B"/>
<path fill-rule="evenodd" clip-rule="evenodd" d="M5.34185 12.4144L4.78667 11.7339C3.64888 12.6334 2.44753 13.5776 1.47656 14.3382H6.73412C6.39225 13.624 5.77139 12.9409 5.34185 12.4144Z" fill="#E7470B"/>
<path fill-rule="evenodd" clip-rule="evenodd" d="M25.126 6.51669C26.3829 6.30021 27.2 5.22987 27.2 3.86255C27.2 2.04736 25.6029 0.90332 22.8645 0.90332H17.4482V0.964352C18.5542 1.56205 18.5292 2.52522 18.5292 3.4435V11.7747C18.5292 12.7128 18.5542 13.6861 17.4482 14.2729V14.334H20.0562C22.6052 14.334 24.5563 14.3766 26.0175 13.7018C27.5665 12.9854 28.5078 11.7013 28.5078 10.1294C28.5078 8.12925 26.9926 6.90464 25.126 6.51669ZM20.654 2.141L22.3666 2.16988C23.6379 2.16988 24.9388 2.78144 24.9388 4.19032C24.9388 5.8639 23.7894 6.31295 22.1493 6.31295L20.654 6.31589V6.31295V2.141ZM22.3056 12.9521L20.654 12.9547V7.66008V7.58434L22.4287 7.57761C24.4973 7.57761 26.2043 8.33377 26.2043 10.3133C26.2043 12.2532 24.4124 12.9521 22.3056 12.9521Z" fill="#005667"/>
<path fill-rule="evenodd" clip-rule="evenodd" d="M32.6588 11.7773C32.6588 12.921 32.6379 13.7378 33.7371 14.37V14.431H30.0654V14.37C31.1658 13.7378 31.1467 12.921 31.1467 11.7773V3.61575C31.1467 2.47282 31.1658 1.57656 30.0674 0.964286V0.90332H33.1153V0.923904C33.1982 1.16914 33.3306 1.30323 33.4269 1.43398C33.5225 1.56427 33.7165 1.84179 33.7165 1.84179L40.7068 11.1144V3.53675C40.7068 2.39375 40.7281 1.57656 39.6278 0.964286V0.90332H43.2793V0.964286C42.2004 1.57656 42.2004 2.39375 42.2004 3.53675V15.0969C41.5361 14.8365 39.675 13.3149 38.3516 11.5634C35.9785 8.42179 32.6588 4.05806 32.6588 4.05806V11.7773Z" fill="#005667"/>
<path fill-rule="evenodd" clip-rule="evenodd" d="M46.6819 3.33679C46.6819 2.39826 46.6682 1.56277 45.6074 0.964352V0.90332H49.903V0.964352C48.8396 1.54513 48.8301 2.41852 48.8301 3.33679V11.9237C48.8301 12.8408 48.8057 13.767 49.903 14.3677V14.4283H45.6074V14.3677C46.7112 13.7607 46.6819 12.848 46.6819 11.9301V3.33679Z" fill="#005667"/>
</svg>
