<svg width="50" height="12" viewBox="0 0 50 12" fill="none" xmlns="http://www.w3.org/2000/svg">
<path fill-rule="evenodd" clip-rule="evenodd" d="M2.36083 6.01706C2.44933 6.16918 3.13131 6.87274 3.25712 6.99979L4.19679 7.95227C4.52476 8.36887 4.74688 8.55297 4.73821 9.29455C4.73213 9.81833 4.29917 10.2678 4.01111 10.4501C3.72392 10.6325 3.63715 10.6342 3.24323 10.6342C2.92741 10.6342 2.61158 10.6351 2.29575 10.6342C1.99641 10.6334 1.78123 10.4882 1.64241 10.3369C1.42549 10.1001 1.41335 10.024 1.41335 9.61522C1.41335 9.41902 1.39252 2.30222 1.41855 2.08442C1.44892 1.83031 1.65282 1.62978 1.81247 1.53039C2.05368 1.38 2.22027 1.34024 2.56473 1.34024C3.2415 1.33937 3.69875 1.26331 4.19592 1.59867C4.61847 1.8813 4.851 2.29272 4.85013 2.82946C4.84927 3.42843 4.52042 3.80095 4.25579 4.12248C3.85146 4.61341 2.46668 5.71628 2.36083 6.01706ZM5.73341 1.34024C5.94859 1.32727 6.74596 1.31517 6.9247 1.35147C7.49909 1.46902 8.13421 1.94267 8.14029 2.57967C8.14549 3.07924 8.08042 3.20284 7.84181 3.5114C7.53466 3.90726 6.74162 4.68515 6.31908 5.03952C6.14555 5.18472 5.4063 5.8805 5.41932 5.99891L8.24614 8.88573C8.56717 9.21936 9.86779 10.4571 9.93547 10.6317L5.8167 10.6325C5.85314 10.5461 5.94251 10.4303 5.99891 10.3456C6.21583 10.0197 6.32602 9.70856 6.33122 9.29283C6.34077 8.39912 5.96507 7.97906 5.42279 7.42417L4.07185 5.99891C4.31392 5.70591 4.15774 5.85976 4.4944 5.51835C4.79027 5.21757 5.21455 4.89258 5.44968 4.63675C5.58938 4.48463 5.74556 4.32041 5.86963 4.12853C6.1386 3.7102 6.30086 3.30483 6.24533 2.66869C6.16463 1.74301 5.79328 1.60904 5.73341 1.34024ZM8.83788 1.33851C10.0431 1.31863 10.8005 1.22442 10.7806 2.90033L10.7493 4.52093C10.7337 6.20894 10.7571 7.94449 10.7493 9.64374L7.12686 5.98162C7.16331 5.87531 7.47566 5.56157 7.55375 5.48551L8.05092 5.03692C8.14723 4.94358 8.20536 4.90728 8.29386 4.81566C8.56284 4.53735 8.6496 4.52525 8.99319 4.0879C9.36629 3.6108 9.42789 3.37743 9.42962 2.63412C9.43136 1.82944 8.9446 1.62633 8.83788 1.33851ZM2.1925 0.205389C1.43157 0.246012 0.740914 0.700643 0.458058 1.37308C0.268041 1.82598 0.237673 2.03861 0.237673 2.59782V6.9609C0.237673 7.91683 0.209908 8.91253 0.23854 9.86414C0.263703 10.7129 0.861518 11.311 1.41508 11.5962C1.82548 11.808 2.13784 11.8063 2.65323 11.8063H9.94675C10.7901 11.8071 11.3931 11.1796 11.6708 10.6377C11.8842 10.2211 11.8868 9.92464 11.8868 9.40086L11.8877 2.13627C11.8868 1.69374 11.7055 1.32468 11.5068 1.06279C11.3081 0.801768 11.0573 0.583095 10.6999 0.40591C10.2765 0.195881 9.98319 0.20366 9.46346 0.20366H3.63628C3.17122 0.201931 2.64802 0.180323 2.1925 0.205389Z" fill="#2356A7"/>
<path fill-rule="evenodd" clip-rule="evenodd" d="M24.7002 8.90843L26.1284 8.91189L26.1171 5.03543C26.1848 5.09506 27.0784 6.89371 27.1158 6.9689L28.111 8.91362L30.0285 8.91276L30.0354 3.11491C29.8784 3.10108 28.7365 3.09503 28.6341 3.12096L28.6038 6.92569C28.5552 6.87642 27.5557 4.83923 27.4194 4.54881L26.7001 3.11059L24.7054 3.10886L24.7002 8.90843Z" fill="#2356A7"/>
<path fill-rule="evenodd" clip-rule="evenodd" d="M39.377 7.80989L39.3744 6.4313C39.6234 6.39413 40.2264 6.43994 40.4555 6.50304C40.7626 6.5886 41.0134 6.74245 40.9952 7.12016C40.9778 7.4849 40.7679 7.65863 40.4607 7.74506C40.2334 7.80902 39.6243 7.841 39.377 7.80989ZM39.3787 5.40276L39.3744 4.21087C39.6399 4.19617 40.131 4.19358 40.3601 4.24717C40.6429 4.31372 40.8529 4.47275 40.8468 4.80638C40.8364 5.42091 39.7969 5.45548 39.3787 5.40276ZM37.8213 8.90843C38.0347 8.93091 39.6555 8.91189 40.0139 8.91189C41.2078 8.91276 42.7279 8.63531 42.5387 7.08299C42.4849 6.63873 42.2576 6.28177 41.8958 6.08125C41.7231 5.98531 41.6286 6.01556 41.462 5.9637C41.4533 5.84443 41.5149 5.92221 41.7787 5.76318C42.6654 5.22903 42.5717 3.88156 41.7309 3.37939C41.18 3.05009 40.6238 3.10972 39.9063 3.10972C39.6304 3.10972 37.9428 3.09071 37.8222 3.11923L37.8213 8.90843Z" fill="#2356A7"/>
<path fill-rule="evenodd" clip-rule="evenodd" d="M15.1756 6.47016C15.3483 6.43559 16.0624 6.46239 16.2359 6.49955C16.5508 6.56697 16.7599 6.73205 16.7608 7.08556C16.7617 7.42783 16.7096 7.56785 16.353 7.6975C16.0467 7.80813 15.5296 7.83665 15.1765 7.8064V6.62228L15.1756 6.47016ZM15.1799 4.2143C15.3708 4.18145 15.9634 4.21084 16.1517 4.25319C16.4693 4.32493 16.615 4.44593 16.6116 4.80635C16.609 5.14084 16.3955 5.25666 16.1118 5.33964C15.9235 5.39409 15.3717 5.44249 15.1756 5.39927L15.1799 4.2143ZM13.6182 8.91273C14.9214 8.86346 17.6484 9.22388 18.2011 7.98791C18.3261 7.70873 18.3408 7.33535 18.3131 6.99567C18.2714 6.47362 17.7942 6.03628 17.2805 5.9775C17.1764 5.9654 17.2077 5.98701 17.1825 5.92824C17.2146 5.87638 17.1712 5.90922 17.2693 5.88329C17.3066 5.87379 17.3239 5.87119 17.3656 5.85736C17.4376 5.83316 17.487 5.80637 17.546 5.77007C17.8298 5.59807 18.1586 5.229 18.1629 4.84179C18.1699 4.22121 18.1742 3.76658 17.5296 3.39492C16.9612 3.06735 16.4485 3.1097 15.7205 3.1097C15.0264 3.1097 14.3123 3.12612 13.6199 3.10797L13.6182 8.91273Z" fill="#2356A7"/>
<path fill-rule="evenodd" clip-rule="evenodd" d="M44.4422 4.21075C45.0591 4.20297 46.1645 4.15025 45.9328 5.05778C45.8062 5.55563 44.9958 5.52884 44.4431 5.5176L44.4413 4.34299L44.4422 4.21075ZM42.8848 8.90918L44.4387 8.91091L44.4405 6.62479C44.7389 6.5712 45.1146 6.63257 45.2942 6.77691C45.6404 7.05436 45.7784 7.68185 45.9433 8.1408C45.9875 8.26527 46.0283 8.388 46.0665 8.51765C46.0968 8.61964 46.1463 8.8409 46.1853 8.9135H47.7619C47.7792 8.71212 47.1033 6.96965 46.9523 6.58676C46.771 6.12867 46.5801 6.21078 46.4621 6.01199C46.9411 5.95581 47.4538 5.42944 47.4998 4.93246C47.5736 4.14593 47.4035 3.69475 46.8864 3.41039C46.3302 3.10443 45.748 3.1122 45.0366 3.1122C44.3268 3.1122 43.5919 3.09319 42.8865 3.11307L42.8848 8.90918Z" fill="#2356A7"/>
<path fill-rule="evenodd" clip-rule="evenodd" d="M30.5615 8.90214L32.1172 8.90992L32.1181 6.29191C32.3194 6.38784 33.6764 8.6368 33.935 8.86757C34.0105 8.93499 34.1597 8.91165 34.2942 8.91165C34.5553 8.91165 35.738 8.92548 35.8915 8.90819C35.8829 8.73965 34.9857 7.61085 34.8538 7.43713C34.4851 6.95051 34.099 6.49761 33.7406 5.99977C33.5949 5.79665 33.6096 5.81739 33.7649 5.61428L35.1818 3.83811C35.285 3.71278 35.6868 3.22358 35.7397 3.11554L33.9037 3.12418C33.8196 3.13801 33.4647 3.65314 33.4014 3.73871C33.1931 4.02134 32.9771 4.30397 32.7636 4.58142C32.6786 4.69205 32.1719 5.3861 32.1181 5.41203V3.11208L30.5624 3.11035L30.5615 8.90214Z" fill="#2356A7"/>
<path fill-rule="evenodd" clip-rule="evenodd" d="M21.3153 4.32397C21.3751 4.36545 21.7691 5.80714 21.8229 5.9921C21.8671 6.14249 21.9686 6.43031 21.9816 6.57033L20.5517 6.57119L20.9205 5.44412C20.9856 5.25397 21.0394 5.07592 21.1053 4.88232C21.1391 4.78378 21.1695 4.68612 21.1981 4.60055C21.2294 4.50807 21.2519 4.36286 21.3153 4.32397ZM18.1631 8.90831C18.5414 8.92559 19.1244 8.91263 19.527 8.91176C19.7162 8.91176 19.711 8.86336 19.7873 8.71556C19.9643 8.37675 20.058 8.05177 20.17 7.67579C20.3886 7.649 21.8029 7.66628 22.1361 7.66628C22.2879 7.66628 22.3278 7.649 22.3964 7.77C22.4814 7.91866 22.6011 8.39577 22.6662 8.58592C22.7946 8.9593 22.8467 8.90831 23.0653 8.90744L24.4944 8.90312L22.2845 3.11219L20.399 3.11133C20.1249 3.55559 20.0043 4.0543 19.8073 4.53572C19.4429 5.42511 19.0628 6.53748 18.6984 7.45366C18.5908 7.72506 18.1744 8.66284 18.1631 8.90831Z" fill="#2356A7"/>
<path fill-rule="evenodd" clip-rule="evenodd" d="M49.7736 8.91165V3.11035H48.2196L48.2188 8.91079L49.7736 8.91165Z" fill="#2356A7"/>
</svg>
