<svg width="120" height="40" viewBox="0 0 120 40" fill="none" xmlns="http://www.w3.org/2000/svg">
<g clip-path="url(#clip0_415_3965)">
<path d="M19.8572 0C22.5418 0 24.9427 2.28557 26.6569 5.97958C28.3264 9.57584 29.3589 14.5354 29.3589 20.0013C29.3589 25.4671 28.3264 30.4267 26.6569 34.0229C24.9427 37.7169 22.5418 40.0025 19.8572 40.0025C17.1726 40.0025 14.7717 37.7169 13.0575 34.0229C11.388 30.4267 10.3555 25.4671 10.3555 20.0013C10.3555 14.5354 11.388 9.57584 13.0575 5.97958C14.7717 2.28557 17.1726 0 19.8572 0ZM25.9006 6.33294C24.3282 2.93967 22.1885 0.842052 19.8572 0.842052C17.5259 0.842052 15.3862 2.93967 13.8138 6.33294C12.1966 9.82144 11.1939 14.6532 11.1939 19.9987C11.1939 25.3443 12.1941 30.1761 13.8138 33.6646C15.3862 37.0578 17.5259 39.1554 19.8572 39.1554C22.1885 39.1554 24.3282 37.0578 25.9006 33.6646C27.5178 30.1761 28.5205 25.3443 28.5205 19.9987C28.5205 14.6507 27.5203 9.82144 25.9006 6.33294Z" fill="black"/>
<path d="M29.7817 2.68135C32.108 4.03464 33.0559 7.22242 32.7051 11.2823C32.3643 15.2319 30.7968 20.0462 28.0824 24.7852C25.368 29.5218 22.0116 33.296 18.7847 35.569C15.4682 37.9047 12.2536 38.6716 9.92984 37.3208C7.60354 35.9675 6.65561 32.7797 7.00642 28.7198C7.34728 24.7677 8.91473 19.9534 11.6316 15.2169C14.3461 10.4804 17.7024 6.70616 20.9293 4.43312C24.2459 2.09742 27.4579 1.33055 29.7842 2.68135H29.7817ZM31.8716 11.2096C32.1926 7.47804 31.3815 4.58098 29.3662 3.41062C27.3484 2.23776 24.4524 2.97707 21.4046 5.1223C18.2697 7.33018 15.0029 11.0091 12.3507 15.6379C9.69845 20.2667 8.16832 24.9556 7.83742 28.795C7.51646 32.5266 8.32756 35.4212 10.3453 36.594C12.3631 37.7669 15.2592 37.0276 18.3045 34.8823C21.4394 32.6745 24.7062 28.9955 27.3584 24.3692C30.0106 19.7429 31.5407 15.054 31.8716 11.2121V11.2096Z" fill="black"/>
<path d="M10.348 3.40812C8.33027 4.58098 7.51918 7.47804 7.84013 11.2096C8.17104 15.049 9.70117 19.7379 12.3534 24.3642C15.0056 28.993 18.2724 32.6719 21.4073 34.8798C24.4551 37.0251 27.3511 37.7669 29.3689 36.5915C31.3867 35.4186 32.1953 32.5241 31.8743 28.7925C31.5434 24.9531 30.0133 20.2642 27.3611 15.6379C24.7089 11.0091 21.4421 7.33018 18.3072 5.1223C15.2594 2.97707 12.3658 2.23526 10.348 3.41062V3.40812ZM7.00665 11.2823C6.65832 7.22242 7.60377 4.03464 9.93006 2.68135C12.2564 1.33055 15.4709 2.09742 18.7874 4.43312C22.0168 6.70616 25.3707 10.4804 28.0851 15.2169C30.802 19.9534 32.3695 24.7677 32.7103 28.7198C33.0586 32.7797 32.1132 35.9675 29.7869 37.3208C27.4631 38.6716 24.2486 37.9047 20.9321 35.569C17.7026 33.296 14.3488 29.5218 11.6344 24.7852C8.91744 20.0487 7.34999 15.2344 7.00913 11.2823H7.00665Z" fill="black"/>
<path d="M37.0493 10.002C38.3903 12.3427 37.629 15.5806 35.3102 18.9212C33.0535 22.1741 29.3066 25.5524 24.6042 28.2865C19.8994 31.0207 15.1199 32.6021 11.1988 32.9429C7.16822 33.2937 4.00347 32.3414 2.65994 29.9982C1.3189 27.6575 2.08023 24.4196 4.39906 21.079C6.65569 17.826 10.4026 14.4478 15.1025 11.7136C19.8073 8.97697 24.5868 7.39813 28.5104 7.05479C32.541 6.70143 35.7057 7.65625 37.0493 9.99947V10.002ZM34.6259 18.44C36.7557 15.3701 37.4921 12.4529 36.3253 10.4205C35.1609 8.38804 32.2872 7.57355 28.5826 7.89684C24.7709 8.23015 20.1158 9.77141 15.523 12.4429C10.9276 15.1169 7.27272 18.405 5.08327 21.5627C2.95353 24.6326 2.21956 27.5472 3.38395 29.5822C4.54834 31.6147 7.422 32.4291 11.1267 32.1059C14.9383 31.7725 19.5934 30.2313 24.1862 27.5623C28.7816 24.8883 32.434 21.6002 34.6259 18.4425V18.44Z" fill="black"/>
<path d="M3.38395 10.4204C2.21956 12.4529 2.95353 15.37 5.08327 18.44C7.27521 21.5977 10.9276 24.8882 15.523 27.5597C20.1183 30.2312 24.7734 31.7725 28.585 32.1058C32.2897 32.4291 35.1634 31.6146 36.3277 29.5821C37.4921 27.5497 36.7582 24.6326 34.6284 21.5626C32.4365 18.4049 28.7841 15.1169 24.1887 12.4429C19.5959 9.77135 14.9408 8.23009 11.1291 7.89678C7.42449 7.57349 4.55083 8.39048 3.38644 10.4204H3.38395ZM4.39906 18.9211C2.08023 15.5805 1.3189 12.3426 2.65994 10.0019C4.00347 7.6587 7.16822 6.70387 11.1988 7.05723C15.1199 7.40057 19.8994 8.97942 24.6042 11.7136C29.3066 14.4477 33.0535 17.826 35.3102 21.0789C37.629 24.4196 38.3903 27.6549 37.0493 29.9981C35.7057 32.3414 32.541 33.2962 28.5104 32.9428C24.5868 32.5995 19.8073 31.0206 15.105 28.2865C10.4026 25.5523 6.65569 22.1716 4.39906 18.9211Z" fill="black"/>
<path d="M38.8757 20.0015C38.8757 17.6533 36.7932 15.498 33.4245 13.9142C29.9611 12.2852 25.1643 11.2752 19.8573 11.2752C14.5479 11.2752 9.7535 12.2827 6.29019 13.9142C2.92142 15.498 0.838949 17.6533 0.838949 20.0015C0.838949 22.3497 2.92142 24.505 6.29019 26.0888C9.7535 27.7178 14.5504 28.7278 19.8573 28.7278C25.1667 28.7278 29.9611 27.7203 33.4245 26.0888C36.7932 24.505 38.8757 22.3497 38.8757 20.0015ZM33.7778 13.1523C37.4451 14.879 39.7142 17.2974 39.7142 20.0015C39.7142 22.7056 37.4451 25.124 33.7778 26.8507C30.2075 28.5323 25.2837 29.5723 19.8573 29.5723C14.431 29.5723 9.50719 28.5323 5.93689 26.8507C2.26956 25.124 0.000488281 22.7056 0.000488281 20.0015C0.000488281 17.2974 2.26956 14.879 5.93689 13.1523C9.50719 11.4707 14.431 10.4307 19.8573 10.4307C25.2837 10.4307 30.2075 11.4707 33.7778 13.1523Z" fill="black"/>
<path d="M47.3545 1.60889V16.2195H48.8448L48.9468 14.2322C49.5116 15.5303 50.7606 16.5052 52.8953 16.5052C55.9157 16.5052 58.1127 14.578 58.1127 11.0068C58.1127 7.45564 55.958 5.46829 52.9749 5.46829C51.0815 5.46829 49.6907 6.26022 48.9667 7.74133V1.6139H47.3545V1.60889ZM52.7137 14.9614C50.3575 14.9614 48.9667 13.4803 48.9667 10.9842C48.9667 8.48816 50.3575 7.00704 52.7137 7.00704C55.0698 7.00704 56.4208 8.48816 56.4208 10.9842C56.4208 13.4803 55.0723 14.9614 52.7137 14.9614ZM70.6423 13.8462L69.2117 13.0944C68.627 14.1695 67.5397 14.9614 65.8678 14.9614C63.8948 14.9614 62.5239 13.8663 62.3224 11.6133H70.9633V11.4103C70.9633 6.784 68.5051 5.46579 65.8877 5.46579C62.8051 5.46579 60.6106 7.37294 60.6106 11.0268C60.6106 14.5179 62.606 16.5052 65.9275 16.5052C68.3036 16.5052 69.8561 15.4902 70.6423 13.8462ZM65.7882 7.00704C67.5398 7.00704 69.0525 7.96187 69.254 10.1522H62.3647C62.6259 8.02202 63.9769 7.00704 65.7882 7.00704ZM73.705 1.60889V14.3925C73.705 15.6707 74.4291 16.5027 75.8 16.5027C76.2229 16.5027 76.6459 16.4225 77.0091 16.2997V14.8988L76.9693 14.8587C76.6061 14.9389 76.3448 14.9589 76.1433 14.9589C75.5586 14.9589 75.3173 14.7559 75.3173 14.2296V1.60889H73.705ZM89.499 5.74898H88.0086L87.9091 7.79897C87.205 6.27777 85.7943 5.46579 83.881 5.46579C80.9004 5.46579 78.7433 7.45313 78.7433 11.0043C78.7433 14.5755 80.9402 16.5027 83.9606 16.5027C86.0954 16.5027 87.3443 15.5278 87.9091 14.2296L88.0086 16.217H89.499V5.74647V5.74898ZM84.1398 14.9614C81.7836 14.9614 80.4326 13.4803 80.4326 10.9842C80.4326 8.48816 81.7811 7.00704 84.1398 7.00704C86.4959 7.00704 87.8867 8.48816 87.8867 10.9842C87.8867 13.4803 86.4959 14.9614 84.1398 14.9614ZM94.4128 18.3096V5.74898H92.8005V18.1667C92.8005 18.693 92.5592 18.9386 91.9546 18.9386C91.6312 18.9386 91.3102 18.8785 90.947 18.7958L90.9072 18.8359V20.2568C91.2903 20.3796 91.7531 20.4799 92.2557 20.4799C93.7858 20.4799 94.4103 19.5877 94.4103 18.3096H94.4128ZM108.092 5.74898H106.602L106.502 7.79897C105.798 6.27777 104.387 5.46579 102.474 5.46579C99.4933 5.46579 97.3362 7.45313 97.3362 11.0043C97.3362 14.5755 99.5331 16.5027 102.554 16.5027C104.688 16.5027 105.937 15.5278 106.502 14.2296L106.602 16.217H108.092V5.74647V5.74898ZM102.733 14.9614C100.377 14.9614 99.0256 13.4803 99.0256 10.9842C99.0256 8.48816 100.374 7.00704 102.733 7.00704C105.089 7.00704 106.48 8.48816 106.48 10.9842C106.48 13.4803 105.089 14.9614 102.733 14.9614ZM111.073 5.74898V16.2195H112.685V10.0921C112.685 8.18492 113.812 7.12984 115.767 7.12984C116.151 7.12984 116.514 7.16994 116.917 7.23009V5.64873C116.574 5.58859 116.272 5.56854 115.991 5.56854C114.28 5.56854 113.212 6.29782 112.667 7.63858L112.565 5.75148H111.075L111.073 5.74898Z" fill="black"/>
<path fill-rule="evenodd" clip-rule="evenodd" d="M107.333 20.4398C107.592 20.8733 107.054 21.6778 106.134 22.2367C105.213 22.7955 104.255 22.8958 103.997 22.4622C103.738 22.0287 104.275 21.2242 105.196 20.6653C106.116 20.1065 107.074 20.0062 107.333 20.4398Z" fill="black"/>
<path d="M47.3545 20.1865V34.2809H49.6484L49.7853 32.4013C50.3103 33.6543 51.4373 34.554 53.3805 34.554C56.1994 34.554 58.0828 32.6168 58.0828 29.191C58.0828 25.7852 56.2566 23.8279 53.4775 23.8279C51.8454 23.8279 50.5416 24.4745 49.8425 25.903V20.1865H47.3545ZM52.7186 32.2058C50.9497 32.2058 49.8823 31.0505 49.8823 29.191C49.8823 27.3314 50.9522 26.1761 52.7186 26.1761C54.4876 26.1761 55.5177 27.3314 55.5177 29.191C55.5177 31.0505 54.4876 32.2058 52.7186 32.2058ZM69.8412 32.0103L67.8383 30.8174C67.3905 31.6595 66.5744 32.286 65.2732 32.286C63.7754 32.286 62.8051 31.464 62.5911 29.8576H70.2094V29.622C70.2094 25.1386 67.7214 23.8279 65.1761 23.8279C62.1631 23.8279 59.9687 25.7075 59.9687 29.2311C59.9687 32.5792 61.9716 34.5565 65.196 34.5565C67.49 34.5565 69.0251 33.5591 69.8412 32.0128V32.0103ZM65.099 26.0784C66.4973 26.0784 67.4104 26.9204 67.587 28.3289H62.611C62.8449 26.9781 63.6808 26.0784 65.099 26.0784ZM72.3665 20.1865V34.2809H74.8545V31.4239C74.8545 30.9728 74.9913 30.6595 75.3397 30.3463L76.8549 28.9754L79.8878 34.2809H82.6868L78.7035 27.3715L82.2588 24.1036H78.9747L74.8545 27.9204V20.189H72.3665V20.1865ZM93.5295 32.0103L91.5267 30.8174C91.0788 31.6595 90.2628 32.286 88.9615 32.286C87.4662 32.286 86.4934 31.464 86.2795 29.8576H93.8978V29.622C93.8978 25.1386 91.4098 23.8279 88.8645 23.8279C85.8515 23.8279 83.6571 25.7075 83.6571 29.2311C83.6571 32.5792 85.66 34.5565 88.8844 34.5565C91.1784 34.5565 92.7135 33.5591 93.5295 32.0128V32.0103ZM88.7874 26.0784C90.1856 26.0784 91.0987 26.9204 91.2754 28.3289H86.2994C86.5332 26.9781 87.3692 26.0784 88.7874 26.0784ZM95.9379 24.1011V34.2809H98.4259V29.1709C98.4259 27.2512 99.5132 26.2739 101.419 26.2739C101.787 26.2739 102.138 26.314 102.546 26.3716V24.0033C102.195 23.9457 101.904 23.9256 101.633 23.9256C99.9611 23.9256 98.9111 24.6299 98.406 25.9606L98.2319 24.1011H95.9379ZM106.918 35.7094V24.1011H104.449V35.2984C104.449 35.7871 104.196 36.0427 103.613 36.0427C103.302 36.0427 102.972 35.985 102.564 35.9048L102.524 35.9449V38.1177C103.088 38.3132 103.651 38.3909 104.196 38.3909C106.139 38.3909 106.918 37.3133 106.918 35.7094ZM119.997 24.1011H117.723L117.569 26.0007C116.89 24.5121 115.566 23.8279 113.896 23.8279C111.117 23.8279 109.271 25.7852 109.271 29.191C109.271 32.6168 111.177 34.554 113.993 34.554C115.937 34.554 117.064 33.6543 117.589 32.4013L117.725 34.2809H120V24.1011H119.997ZM114.653 32.2058C112.884 32.2058 111.854 31.0505 111.854 29.191C111.854 27.3314 112.884 26.1761 114.653 26.1761C116.422 26.1761 117.472 27.3314 117.472 29.191C117.472 31.0505 116.422 32.2058 114.653 32.2058Z" fill="black"/>
<path fill-rule="evenodd" clip-rule="evenodd" d="M95.4951 2.29574C95.7539 2.72929 95.2165 3.53375 94.2959 4.09262C93.3754 4.65148 92.4175 4.75172 92.1587 4.31816C91.9 3.88461 92.4374 3.08015 93.3579 2.52128C94.2785 1.96242 95.2364 1.86218 95.4951 2.29574Z" fill="black"/>
</g>
<defs>
<clipPath id="clip0_415_3965">
<rect width="120" height="40" fill="white"/>
</clipPath>
</defs>
</svg>
