<svg width="50" height="12" viewBox="0 0 50 12" fill="none" xmlns="http://www.w3.org/2000/svg">
<path fill-rule="evenodd" clip-rule="evenodd" d="M5.8378 11.8063C9.00035 11.8063 11.5789 9.19757 11.5789 5.99981C11.5789 2.80205 9.00035 0.193359 5.8378 0.193359C2.67525 0.193359 0.0966797 2.80205 0.0966797 5.99981C0.0966797 9.19835 2.67602 11.8063 5.8378 11.8063Z" fill="#00ADD9"/>
<path fill-rule="evenodd" clip-rule="evenodd" d="M2.52918 7.30313C2.6016 8.25451 3.18943 8.98616 4.27417 9.03759C5.31731 9.08746 6.35968 9.10382 7.40205 9.03759C8.35967 8.97759 9.07462 8.25451 9.14704 7.30313C9.18479 6.81537 9.20019 6.3276 9.19557 5.84061C8.95443 4.52458 7.86276 4.47783 7.76029 4.47627H7.75721H7.75413H7.75336H4.08388C3.95522 4.47627 3.84967 4.36952 3.84967 4.2394C3.84967 4.10849 3.95445 4.00253 4.08388 4.00253H7.76491C7.73102 3.12049 6.76723 2.95531 6.30806 2.92726L6.07 2.9218H6.06923C5.46985 2.91323 4.87201 2.92726 4.27417 2.97479C3.16786 3.06205 2.6016 3.75786 2.52918 4.70924C2.46293 5.57413 2.46293 6.43824 2.52918 7.30313ZM8.05228 6.8029V7.11847C8.05228 7.23612 7.95675 7.33274 7.84041 7.33274C7.72408 7.33274 7.62855 7.23612 7.62855 7.11847V6.80212C7.53533 6.73901 7.47447 6.6346 7.47447 6.51772C7.47447 6.32448 7.63857 6.16865 7.84041 6.16865C8.04226 6.16865 8.20636 6.32526 8.20636 6.51772C8.20636 6.63537 8.1455 6.73901 8.05228 6.8029Z" fill="white"/>
<path fill-rule="evenodd" clip-rule="evenodd" d="M40.5416 5.4736L40.5385 6.52237C40.5385 6.52237 40.1841 7.22675 38.9599 7.39973C37.7357 7.57193 37.735 6.80132 37.8236 6.60263C37.9122 6.40316 38.2003 6.12889 39.2134 5.96136C40.2943 5.78215 40.5416 5.4736 40.5416 5.4736ZM41.9838 4.46378C41.9838 2.84152 40.4414 2.08572 39.0609 2.21974C37.7758 2.34519 36.6965 2.95139 36.3644 4.30794L37.6949 4.63909C38.1156 3.42357 39.6911 3.06749 40.3582 3.93627C40.537 4.17236 40.4622 4.41859 40.1995 4.55572C39.8082 4.75987 39.0609 4.70065 38.2989 4.91181C35.0771 5.80553 36.0909 8.78511 38.7604 8.70875C39.6148 8.6846 40.2303 8.28955 40.6479 7.89451L40.6618 8.55837H41.983V4.46378H41.9838ZM16.7682 3.72434C15.7998 3.72434 15.0132 4.52222 15.0132 5.50788C15.0132 6.49276 15.799 7.29142 16.7682 7.29142C17.7381 7.29142 18.524 6.49354 18.524 5.50788C18.524 4.52222 17.7381 3.72434 16.7682 3.72434ZM20.2073 2.41142V7.5057V8.43448C20.2073 10.5414 18.7574 11.806 16.9146 11.806C15.6626 11.806 14.7466 11.5083 13.8576 10.525L14.95 9.53157C15.4777 10.1604 16.1126 10.3123 16.8914 10.3123C17.8275 10.3123 18.5232 9.55027 18.5232 8.61603V7.99814C17.9816 8.47578 17.2797 8.76407 16.5132 8.76407C14.799 8.76407 13.4092 7.32259 13.4092 5.5445C13.4092 3.76641 14.799 2.32493 16.5132 2.32493C17.2797 2.32493 17.9816 2.61322 18.5232 3.09086V2.41142H20.2073ZM49.9029 2.3109L48.0986 2.30779L46.3151 6.26291L44.2581 2.30701H42.4484L45.4199 7.94282L43.8497 11.2138H45.6594L49.9029 2.3109ZM32.2781 3.72434C33.2465 3.72434 34.0324 4.52222 34.0324 5.50788C34.0324 6.49276 33.2465 7.29142 32.2781 7.29142C31.3082 7.29142 30.5224 6.49354 30.5224 5.50788C30.5224 4.52222 31.3082 3.72434 32.2781 3.72434ZM28.839 2.41142H30.5231V3.09242C31.0647 2.61478 31.7666 2.32649 32.5331 2.32649C34.2473 2.32649 35.6371 3.76797 35.6371 5.54606C35.6371 7.32415 34.2465 8.76563 32.5331 8.76563C31.7666 8.76563 31.0647 8.47734 30.5231 7.9997V11.2146H28.839V2.41142ZM24.349 3.67525C25.4045 3.67525 26.2604 4.51287 26.2604 5.54606C26.2604 6.58003 25.4053 7.41765 24.349 7.41765C23.2936 7.41765 22.4384 6.58003 22.4384 5.54606C22.4377 4.51287 23.2928 3.67525 24.349 3.67525ZM24.349 2.20805C22.4662 2.20805 20.9392 3.7033 20.9392 5.54684C20.9392 7.39116 22.4654 8.88563 24.349 8.88563C26.2327 8.88563 27.7589 7.39116 27.7589 5.54684C27.7581 3.70252 26.2319 2.20805 24.349 2.20805Z" fill="black"/>
</svg>
