<svg width="18" height="18" viewBox="0 0 18 18" fill="none" xmlns="http://www.w3.org/2000/svg">
<path d="M9.00132 6.49984C7.62015 6.49984 6.5013 7.61909 6.5013 8.99984C6.5013 10.3809 7.62057 11.4998 9.00132 11.4998C10.3824 11.4998 11.5013 10.3806 11.5013 8.99984C11.5013 7.61875 10.3821 6.49984 9.00132 6.49984ZM9.00132 4.83317C11.3017 4.83317 13.168 6.69742 13.168 8.99984C13.168 11.3003 11.3037 13.1665 9.00132 13.1665C6.70091 13.1665 4.83464 11.3023 4.83464 8.99984C4.83464 6.69944 6.69889 4.83317 9.00132 4.83317ZM14.418 4.62413C14.418 5.19922 13.9507 5.66581 13.3763 5.66581C12.8012 5.66581 12.3347 5.1985 12.3347 4.62413C12.3347 4.04975 12.8019 3.58317 13.3763 3.58317C13.9499 3.58245 14.418 4.04975 14.418 4.62413ZM9.00132 2.33317C6.93924 2.33317 6.60314 2.33863 5.64404 2.38134C4.99061 2.41201 4.55259 2.4999 4.14562 2.6579C3.78395 2.79816 3.52306 2.96565 3.24509 3.24363C2.96604 3.52267 2.79885 3.78286 2.65915 4.1447C2.50079 4.5526 2.41293 4.98993 2.3828 5.64246C2.33968 6.5625 2.33464 6.88404 2.33464 8.99984C2.33464 11.0619 2.34009 11.398 2.38279 12.357C2.41349 13.0102 2.50149 13.4488 2.6591 13.8548C2.79974 14.217 2.96757 14.4785 3.2442 14.7552C3.52434 15.0349 3.78531 15.2027 4.14371 15.341C4.55564 15.5003 4.99339 15.5883 5.64392 15.6183C6.56397 15.6614 6.88551 15.6665 9.00132 15.6665C11.0634 15.6665 11.3995 15.661 12.3585 15.6183C13.0102 15.5878 13.4492 15.4995 13.8563 15.342C14.2175 15.2018 14.4798 15.0333 14.7567 14.7569C15.0368 14.4763 15.2042 14.216 15.3427 13.8568C15.5016 13.4463 15.5897 13.008 15.6198 12.3573C15.6629 11.4372 15.668 11.1156 15.668 8.99984C15.668 6.93777 15.6625 6.60168 15.6198 5.64264C15.5892 4.99072 15.5009 4.55108 15.3432 4.14415C15.2033 3.78349 15.0352 3.5218 14.7575 3.24363C14.478 2.96413 14.2185 2.79728 13.8564 2.65769C13.4488 2.49945 13.0108 2.41147 12.3587 2.38135C11.4387 2.33821 11.1171 2.33317 9.00132 2.33317ZM9.00132 0.666504C11.2652 0.666504 11.5478 0.674837 12.4367 0.716504C13.3235 0.757479 13.9284 0.897754 14.4597 1.104C15.0089 1.31581 15.4728 1.60192 15.936 2.06511C16.3985 2.52831 16.6847 2.99359 16.8972 3.5415C17.1027 4.07206 17.243 4.67761 17.2847 5.56442C17.3242 6.45331 17.3347 6.73594 17.3347 8.99984C17.3347 11.2638 17.3263 11.5463 17.2847 12.4353C17.2437 13.3221 17.1027 13.9269 16.8972 14.4582C16.6853 15.0075 16.3985 15.4713 15.936 15.9346C15.4728 16.3971 15.0068 16.6832 14.4597 16.8957C13.9284 17.1013 13.3235 17.2415 12.4367 17.2832C11.5478 17.3228 11.2652 17.3332 9.00132 17.3332C6.73741 17.3332 6.45477 17.3248 5.56589 17.2832C4.67908 17.2422 4.07491 17.1013 3.54297 16.8957C2.99435 16.6838 2.52977 16.3971 2.06658 15.9346C1.60339 15.4713 1.31797 15.0054 1.10547 14.4582C0.899219 13.9269 0.759636 13.3221 0.717969 12.4353C0.678386 11.5463 0.667969 11.2638 0.667969 8.99984C0.667969 6.73594 0.676302 6.45331 0.717969 5.56442C0.758936 4.67692 0.899219 4.07275 1.10547 3.5415C1.31727 2.99289 1.60339 2.52831 2.06658 2.06511C2.52977 1.60192 2.99505 1.3165 3.54297 1.104C4.07422 0.897754 4.67839 0.758171 5.56589 0.716504C6.45477 0.676921 6.73741 0.666504 9.00132 0.666504Z" fill="#25292A"/>
</svg>
