<svg width="50" height="12" viewBox="0 0 50 12" fill="none" xmlns="http://www.w3.org/2000/svg">
<path d="M8.50828 10.4136C9.868 9.62527 10.7181 8.27704 10.7181 6.81141C10.7181 3.54396 7.43008 2.37515 7.43008 2.37515C6.82525 2.03 6.0793 1.84497 5.2538 1.84497C5.19279 1.84497 5.08297 1.84681 5.02147 1.84681C5.86063 1.236 6.95112 0.859515 8.054 0.859515C10.6239 0.859515 12.5688 3.22469 12.5688 5.43881C12.5688 8.01387 10.6887 10.0131 8.50828 10.4136ZM6.85504 10.404C5.18376 10.0866 3.8111 8.85988 3.22145 7.40635C3.80735 7.9637 4.64083 8.34476 5.70537 8.34476C7.40404 8.34476 9.01942 7.08091 9.01942 5.2105C9.01942 4.2898 8.68342 3.68821 8.68342 3.68821C9.39375 4.3862 9.84252 5.3654 9.84252 6.55841C9.84244 8.23553 8.54749 9.80021 6.85504 10.404ZM5.36075 10.6699C3.36577 10.6699 1.25857 8.79865 1.25857 6.47018C1.25857 5.33215 1.62636 4.19692 2.5592 3.43345C2.39307 3.76851 2.2795 4.16919 2.23358 4.65122C2.21138 4.82528 2.1986 5.00519 2.1986 5.19399C2.1986 7.70886 3.62134 9.79412 5.84865 10.6383C5.6878 10.659 5.52455 10.6699 5.36075 10.6699ZM5.55346 2.52702C7.00359 2.52702 8.12532 3.91011 8.12532 5.14302C8.12532 6.81141 7.0746 7.92812 5.60641 7.92812C4.29014 7.92812 3.11403 6.74665 3.11403 5.06593C3.11395 3.67843 4.17888 2.52702 5.55346 2.52702ZM7.6208 0.322754C6.26619 0.322754 4.34165 0.888204 3.20675 2.26529C1.4096 3.02755 0.0966797 4.72567 0.0966797 6.58486C0.0966797 9.4674 2.62932 11.1894 5.68157 11.1894C6.18369 11.1894 6.66376 11.0815 7.11006 10.9697C7.43847 11.0207 7.77981 11.0478 8.1333 11.0478C11.0143 11.0478 13.5512 8.78463 13.5512 5.82579C13.5513 2.77632 11.0485 0.322754 7.6208 0.322754Z" fill="#00AAE7"/>
<path d="M18.3088 8.77475C18.3088 9.70226 17.7011 10.2258 16.4053 10.2651V11.6776C17.8758 11.6776 19.7397 10.9043 19.7397 8.77475V1.85352H18.3088V8.77475Z" fill="#00AAE7"/>
<path d="M22.4156 4.70207C22.5107 3.84188 22.8884 3.08249 23.8327 3.08249C24.7784 3.08249 25.1556 3.84196 25.2518 4.70207H22.4156ZM26.7491 4.83382C26.7491 3.73626 26.1273 1.72168 23.8326 1.72168C21.6593 1.72168 20.918 3.48847 20.918 5.31729C20.918 7.14827 21.6743 8.91402 24.1705 8.91402C24.8464 8.91402 25.7082 8.75767 26.6947 8.07666L25.9662 6.97926C25.3458 7.35911 24.7498 7.5544 24.1705 7.5544C23.0634 7.5544 22.5504 6.82235 22.4293 6.06393H25.439C26.3299 6.06401 26.7491 5.72479 26.7491 4.83382Z" fill="#00AAE7"/>
<path d="M30.6383 1.72168C28.8553 1.72168 27.9414 3.14805 27.9414 3.14805V8.83637H29.3703V3.60547C29.3703 3.60547 29.8156 3.08233 30.6383 3.08233C31.5432 3.08233 32.0416 3.80117 32.0416 4.44195V8.83629H33.4743V4.44195C33.4743 3.12096 32.5144 1.72168 30.6383 1.72168Z" fill="#00AAE7"/>
<path d="M36.4903 1.80029H35.0605V8.83628H36.4903V1.80029Z" fill="#00AAE7"/>
<path d="M47.3121 4.57257H47.3249C46.8369 4.44147 46.206 4.20923 46.206 3.72432C46.206 3.37107 46.5832 3.08233 47.2984 3.08233C48.014 3.08233 48.8233 3.39639 49.1338 3.53936L49.594 2.29651C49.1196 2.06114 48.1607 1.72168 47.2984 1.72168C46.0573 1.72168 44.7605 2.33553 44.7605 3.7244C44.7605 5.00395 45.9219 5.64617 47.0688 5.92024C47.6912 6.04999 48.4721 6.30001 48.4721 6.79711C48.4721 7.32049 47.8403 7.55585 47.2175 7.55585C46.6107 7.55585 45.7739 7.1752 45.1397 6.84767L44.5859 8.14326C45.1927 8.44513 46.0849 8.88709 47.2175 8.91394C48.5252 8.91394 49.9035 8.31331 49.9035 6.79703C49.9034 5.32955 48.3916 4.83326 47.3121 4.57257Z" fill="#00AAE7"/>
<path d="M42.22 6.19383C42.22 6.83261 41.7225 7.54839 40.8233 7.55392C39.9282 7.54839 39.4288 6.83261 39.4288 6.19383V1.80029H37.999V6.19383C37.999 7.51193 38.9527 8.90488 40.8171 8.91394H40.8336C42.698 8.9048 43.6498 7.51193 43.6498 6.19383V1.80029H42.22V6.19383Z" fill="#00AAE7"/>
</svg>
