<svg width="17" height="16" viewBox="0 0 17 16" fill="none" xmlns="http://www.w3.org/2000/svg">
<path d="M3.78357 2.16645C3.78326 2.84504 3.37157 3.45569 2.74262 3.71045C2.11367 3.96521 1.39306 3.81321 0.920587 3.32613C0.448112 2.83904 0.318129 2.11413 0.59192 1.49323C0.86572 0.872329 1.48862 0.47942 2.1669 0.499778C3.06779 0.52682 3.78398 1.26515 3.78357 2.16645ZM3.83357 5.06645H0.500237V15.4998H3.83357V5.06645ZM9.10025 5.06645H5.78357V15.4998H9.06692V10.0248C9.06692 6.97475 13.0419 6.69142 13.0419 10.0248V15.4998H16.3336V8.89142C16.3336 3.74978 10.4503 3.94145 9.06692 6.46642L9.10025 5.06645Z" fill="#25292A"/>
</svg>
