<svg width="26" height="20" viewBox="0 0 26 20" fill="none" xmlns="http://www.w3.org/2000/svg">
<path fill-rule="evenodd" clip-rule="evenodd" d="M7.35259 17.8308V18.8888V19.9468H6.88944V19.6899C6.74254 19.8804 6.51964 20 6.21665 20C5.61936 20 5.15111 19.5354 5.15111 18.8888C5.15111 18.2428 5.61936 17.7776 6.21665 17.7776C6.51964 17.7776 6.74254 17.8972 6.88944 18.0877V17.8308H7.35259ZM6.27427 18.2113C5.87335 18.2113 5.62801 18.5169 5.62801 18.8888C5.62801 19.2607 5.87335 19.5662 6.27427 19.5662C6.65734 19.5662 6.91594 19.2739 6.91594 18.8888C6.91594 18.5037 6.65734 18.2113 6.27427 18.2113ZM23.0037 18.8888C23.0037 18.5169 23.2491 18.2113 23.65 18.2113C24.0336 18.2113 24.2917 18.5037 24.2917 18.8888C24.2917 19.2739 24.0336 19.5662 23.65 19.5662C23.2491 19.5662 23.0037 19.2607 23.0037 18.8888ZM24.7288 16.9811V18.8888V19.9468H24.2652V19.6899C24.1182 19.8804 23.8953 20 23.5924 20C22.9951 20 22.5268 19.5354 22.5268 18.8888C22.5268 18.2428 22.9951 17.7776 23.5924 17.7776C23.8953 17.7776 24.1182 17.8972 24.2652 18.0877V16.9811H24.7288ZM13.1016 18.1896C13.4 18.1896 13.5918 18.3755 13.6408 18.7029H12.5354C12.5849 18.3973 12.7716 18.1896 13.1016 18.1896ZM12.0499 18.8888C12.0499 18.2291 12.4865 17.7776 13.1109 17.7776C13.7076 17.7776 14.1177 18.2291 14.1223 18.8888C14.1223 18.9506 14.1177 19.0084 14.1132 19.0657H12.5314C12.5982 19.4467 12.8701 19.584 13.1685 19.584C13.3822 19.584 13.6097 19.5039 13.7882 19.3626L14.0152 19.7036C13.7566 19.9204 13.4628 20 13.142 20C12.5044 20 12.0499 19.5617 12.0499 18.8888ZM18.7033 18.8888C18.7033 18.5169 18.9487 18.2113 19.3496 18.2113C19.7326 18.2113 19.9913 18.5037 19.9913 18.8888C19.9913 19.2739 19.7326 19.5662 19.3496 19.5662C18.9487 19.5662 18.7033 19.2607 18.7033 18.8888ZM20.4279 17.8308V18.8888V19.9468H19.9648V19.6899C19.8173 19.8804 19.5949 20 19.292 20C18.6947 20 18.2264 19.5354 18.2264 18.8888C18.2264 18.2428 18.6947 17.7776 19.292 17.7776C19.5949 17.7776 19.8173 17.8972 19.9648 18.0877V17.8308H20.4279ZM16.0876 18.8888C16.0876 19.5308 16.5375 20 17.2241 20C17.5449 20 17.7586 19.9291 17.9902 19.7477L17.7678 19.3758C17.5939 19.4999 17.4113 19.5663 17.2103 19.5663C16.8405 19.5617 16.5686 19.2962 16.5686 18.8888C16.5686 18.4814 16.8405 18.2159 17.2103 18.2114C17.4113 18.2114 17.5939 18.2777 17.7678 18.4019L17.9902 18.03C17.7586 17.8486 17.5449 17.7776 17.2241 17.7776C16.5375 17.7776 16.0876 18.2468 16.0876 18.8888ZM21.4974 18.0877C21.6178 17.9018 21.7917 17.7776 22.059 17.7776C22.1529 17.7776 22.2865 17.7953 22.389 17.8354L22.2462 18.2691C22.1483 18.2291 22.0504 18.2159 21.9565 18.2159C21.6535 18.2159 21.502 18.4105 21.502 18.7606V19.9468H21.0384V17.8308H21.4974V18.0877ZM9.64332 17.9991C9.42041 17.8531 9.11335 17.7776 8.77466 17.7776C8.235 17.7776 7.88764 18.0345 7.88764 18.4551C7.88764 18.8001 8.14625 19.013 8.62266 19.0793L8.84148 19.1102C9.0955 19.1457 9.21537 19.2121 9.21537 19.3317C9.21537 19.4953 9.04602 19.5886 8.72978 19.5886C8.40894 19.5886 8.17737 19.4867 8.02128 19.3671L7.80297 19.7254C8.05699 19.9113 8.37782 20 8.72518 20C9.34033 20 9.69687 19.7122 9.69687 19.3094C9.69687 18.9375 9.41633 18.7429 8.95268 18.6765L8.73437 18.6451C8.53391 18.6187 8.37323 18.5792 8.37323 18.4373C8.37323 18.2823 8.52473 18.1896 8.77874 18.1896C9.05061 18.1896 9.31381 18.2914 9.44286 18.371L9.64332 17.9991ZM15.0583 18.0877C15.1782 17.9018 15.3521 17.7776 15.6194 17.7776C15.7133 17.7776 15.8469 17.7953 15.9494 17.8354L15.8066 18.2691C15.7087 18.2291 15.6107 18.2159 15.5169 18.2159C15.2139 18.2159 15.0624 18.4105 15.0624 18.7606V19.9468H14.5993V17.8308H15.0583V18.0877ZM11.6667 17.8308H10.9093V17.1889H10.441V17.8308H10.009V18.2514H10.441V19.2166C10.441 19.7076 10.6328 20 11.1806 20C11.3816 20 11.6132 19.9382 11.7601 19.8363L11.6264 19.4421C11.4882 19.5217 11.3367 19.5617 11.2163 19.5617C10.9848 19.5617 10.9093 19.4198 10.9093 19.2075V18.2514H11.6667V17.8308ZM4.7415 18.6187V19.9468H4.27325V18.7692C4.27325 18.4105 4.12176 18.2113 3.80552 18.2113C3.49794 18.2113 3.28422 18.4064 3.28422 18.7738V19.9468H2.81597V18.7692C2.81597 18.4105 2.6604 18.2113 2.35282 18.2113C2.03607 18.2113 1.83102 18.4064 1.83102 18.7738L1.83102 19.9468H1.36328L1.36328 17.8308H1.82694V18.0918C2.00087 17.844 2.22327 17.7776 2.45076 17.7776C2.77619 17.7776 3.00776 17.9195 3.15466 18.1541C3.35104 17.8572 3.63158 17.7731 3.90345 17.7776C4.42066 17.7822 4.7415 18.1186 4.7415 18.6187Z" fill="#231F20"/>
<path d="M16.5099 14.2352H9.49023V1.70361H16.5099V14.2352Z" fill="#FF5F00"/>
<path d="M9.93537 7.96963C9.93537 5.42754 11.1335 3.16311 12.9994 1.70383C11.6349 0.636726 9.91293 -0.000189781 8.04147 -0.000189781C3.61096 -0.000189781 0.0195312 3.56796 0.0195312 7.96963C0.0195312 12.3713 3.61096 15.9395 8.04147 15.9395C9.91293 15.9395 11.6349 15.3025 12.9994 14.2354C11.1335 12.7761 9.93537 10.5117 9.93537 7.96963Z" fill="#EB001B"/>
<path d="M25.9794 7.96963C25.9794 12.3713 22.388 15.9395 17.9575 15.9395C16.086 15.9395 14.364 15.3025 12.999 14.2354C14.8654 12.7761 16.0635 10.5117 16.0635 7.96963C16.0635 5.42754 14.8654 3.16311 12.999 1.70383C14.364 0.636726 16.086 -0.000189781 17.9575 -0.000189781C22.388 -0.000189781 25.9794 3.56796 25.9794 7.96963Z" fill="#F79E1B"/>
</svg>
