<svg width="120" height="20" viewBox="0 0 120 20" fill="none" xmlns="http://www.w3.org/2000/svg">
<g clip-path="url(#clip0_415_4028)">
<path fill-rule="evenodd" clip-rule="evenodd" d="M1.30778 16.1408C0.585645 16.1408 0 15.5484 0 14.818V5.19482C0 4.46442 0.585645 3.87207 1.30778 3.87207C2.02991 3.87207 2.61555 4.46442 2.61555 5.19482V14.818C2.61555 15.5484 2.02991 16.1408 1.30778 16.1408Z" fill="#89C7E8"/>
<path fill-rule="evenodd" clip-rule="evenodd" d="M17.0002 16.1411C16.278 16.1411 15.6924 15.5487 15.6924 14.8183V5.20264C15.6924 4.47224 16.278 3.87988 17.0002 3.87988C17.7223 3.87988 18.3079 4.47224 18.3079 5.20264V14.8183C18.3079 15.5487 17.7223 16.1411 17.0002 16.1411Z" fill="#00ACDB"/>
<path fill-rule="evenodd" clip-rule="evenodd" d="M9.15445 19.9998C8.43232 19.9998 7.84668 19.4075 7.84668 18.6771V1.34326C7.84668 0.61286 8.43232 0.0205078 9.15445 0.0205078C9.87658 0.0205078 10.4622 0.61286 10.4622 1.34326V18.6771C10.4622 19.4075 9.87658 19.9998 9.15445 19.9998Z" fill="#0256A7"/>
<path fill-rule="evenodd" clip-rule="evenodd" d="M111.387 14.6189C111.229 14.5051 111.072 14.2775 111.072 13.9813C111.072 13.5722 111.41 13.2308 111.837 13.2308C111.994 13.2308 112.152 13.276 112.264 13.3681C113.455 14.1863 114.693 14.6189 115.952 14.6189C117.346 14.6189 118.359 13.891 118.359 12.7531V12.7079C118.359 11.5249 116.987 11.0698 115.458 10.638C113.636 10.1143 111.612 9.47761 111.612 7.31736V7.27135C111.612 5.24664 113.276 3.90381 115.57 3.90381C116.807 3.90381 118.157 4.29118 119.28 4.90529C119.506 5.0425 119.708 5.29182 119.708 5.63318C119.708 6.04314 119.371 6.38449 118.944 6.38449C118.786 6.38449 118.651 6.33848 118.562 6.2933C117.571 5.72437 116.515 5.38302 115.525 5.38302C114.153 5.38302 113.276 6.11091 113.276 7.08979V7.13497C113.276 8.2494 114.715 8.68195 116.267 9.15884C118.066 9.70518 120 10.4105 120 12.5264V12.5707C120 14.8012 118.179 16.0972 115.862 16.0972C114.333 16.0972 112.646 15.5283 111.387 14.6189Z" fill="#002855"/>
<path fill-rule="evenodd" clip-rule="evenodd" d="M108.575 8.80938C108.575 6.16304 106.281 3.85889 103.515 3.85889C100.716 3.85889 98.4473 6.15383 98.4473 8.98424V15.0458C98.4473 15.5687 98.8468 15.972 99.363 15.972C99.8808 15.972 100.256 15.5687 100.256 15.0458L100.256 12.3233V8.80854C100.256 6.99049 101.713 5.5163 103.511 5.5163C105.309 5.5163 106.766 6.99049 106.766 8.80854V12.3292V15.0458C106.766 15.5687 107.165 15.972 107.659 15.972C108.176 15.972 108.576 15.5687 108.576 15.0458C108.576 15.0458 108.592 9.37914 108.576 8.80938" fill="#002855"/>
<path fill-rule="evenodd" clip-rule="evenodd" d="M89.7175 14.5474C88.1425 14.5474 86.9009 13.8681 86.9009 12.3897V12.3437C86.9009 10.8653 88.1152 9.90986 90.2965 9.90986C91.7135 9.90986 93.7136 10.3692 93.7144 10.4102V10.4127C93.7144 12.5688 91.7234 14.5474 89.7175 14.5474ZM95.3564 8.68165H95.3531C95.1951 6.15746 92.9733 4.01562 90.3073 4.01562H89.5314C89.0789 4.01562 88.7125 4.38626 88.7125 4.84391C88.7125 5.30156 89.0789 5.67304 89.5314 5.67304H90.3031C92.1014 5.67304 93.6929 7.14723 93.6929 8.96528V9.11337C92.6581 8.81803 91.601 8.61305 90.117 8.61305C87.1706 8.61305 85.1465 9.93245 85.1465 12.4123V12.4575C85.1465 14.8696 87.2484 16.1204 89.4073 16.1204C91.3677 16.1204 92.9146 15.1038 93.7144 13.7945V15.1423C93.7144 15.6008 94.0825 15.9723 94.5358 15.9723C94.9891 15.9723 95.3572 15.6008 95.3572 15.1423L95.3564 8.68165Z" fill="#002855"/>
<path fill-rule="evenodd" clip-rule="evenodd" d="M84.8199 4.84182C84.8199 4.38417 84.4526 4.0127 84.0001 4.0127H83.441H83.4404C80.642 4.0127 78.373 6.30764 78.373 9.13721V15.0457C78.373 15.5686 78.7726 15.9718 79.2887 15.9718C79.8066 15.9718 80.1821 15.5686 80.1821 15.0457L80.1815 12.3232V8.96235C80.1815 7.1443 81.639 5.67011 83.4365 5.67011H83.4417V5.67095H84.0008C84.4533 5.67095 84.8206 5.29948 84.8206 4.84183" fill="#002855"/>
<path fill-rule="evenodd" clip-rule="evenodd" d="M75.4979 4.79965C75.4979 4.37212 75.1554 4.02574 74.7327 4.02574H71.697V0.938482C71.697 0.453222 71.3057 0.00728454 70.8268 0.00393792C70.328 -0.000245355 69.9648 0.410553 69.9648 0.890793V12.7537C69.9648 15.1415 71.381 16.0744 73.2479 16.0744C73.9229 16.0744 74.4631 15.9606 74.9577 15.7565C75.2497 15.6427 75.4524 15.3925 75.4524 15.0738C75.4524 14.6638 75.1149 14.3233 74.7104 14.3233C74.5756 14.3233 74.2604 14.4823 73.6533 14.4823C72.4836 14.4823 71.697 13.9585 71.697 12.5262V5.57355H74.7327C75.1554 5.57355 75.4979 5.22718 75.4979 4.79965Z" fill="#002855"/>
<path fill-rule="evenodd" clip-rule="evenodd" d="M66.3867 15.0966C66.3867 15.5969 66.0045 15.9835 65.5322 15.9835C65.0375 15.9835 64.6546 15.5969 64.6546 15.0966V13.8349C63.7099 15.2455 62.3385 16.1198 60.2018 16.1198C57.4134 16.1198 54.6465 13.891 54.6465 10.024V9.97795C54.6465 6.13436 57.4134 3.85949 60.2018 3.85949C62.3608 3.85949 63.7554 4.71121 64.6546 6.03061V0.887692C64.6546 0.387372 65.0144 0 65.5099 0C66.0045 0 66.3867 0.387372 66.3867 0.887692V15.0966ZM56.4241 9.95536V10.0014C56.4241 12.7766 58.3349 14.5511 60.517 14.5511C62.6759 14.5511 64.7224 12.708 64.7224 10.0014V9.95536C64.7224 7.24878 62.6759 5.42906 60.517 5.42906C58.2671 5.42906 56.4241 7.11241 56.4241 9.95536Z" fill="#002855"/>
<path fill-rule="evenodd" clip-rule="evenodd" d="M50.0176 4.73793C50.0176 4.2602 50.3997 3.85107 50.8721 3.85107C51.3667 3.85107 51.7497 4.23761 51.7497 4.73793V15.0966C51.7497 15.5977 51.389 15.9834 50.8944 15.9834C50.3997 15.9834 50.0176 15.5977 50.0176 15.0966V4.73793Z" fill="#002855"/>
<path fill-rule="evenodd" clip-rule="evenodd" d="M41.5803 3.85107C39.9226 3.85107 38.4601 4.69442 37.5858 5.97785C36.7164 4.70028 35.2713 3.85944 33.6194 3.85944C30.9419 3.85944 28.7705 6.05566 28.7705 8.76392V15.0966C28.7705 15.5969 29.1518 15.9834 29.6473 15.9834C30.142 15.9834 30.5026 15.5969 30.5026 15.0966L30.501 8.59658C30.501 6.8555 31.8956 5.44574 33.617 5.44574C35.3367 5.44574 36.7322 6.8555 36.7322 8.59658L36.7313 14.3712V14.3737C36.7313 14.8573 37.1184 15.2497 37.5974 15.2497C38.0755 15.2497 38.4634 14.8573 38.4634 14.3737L38.461 8.58826C38.461 6.84801 39.8564 5.43741 41.577 5.43741C43.2975 5.43741 44.6921 6.84801 44.6921 8.58826V15.0882C44.6921 15.5894 45.0743 15.9751 45.5466 15.9751C46.0413 15.9751 46.4242 15.5894 46.4242 15.0882L46.4292 8.76395C46.4292 5.97036 44.147 3.85107 41.5803 3.85107Z" fill="#002855"/>
</g>
<defs>
<clipPath id="clip0_415_4028">
<rect width="120" height="20" fill="white"/>
</clipPath>
</defs>
</svg>
