<svg width="120" height="20" viewBox="0 0 120 20" fill="none" xmlns="http://www.w3.org/2000/svg">
<mask id="mask0_415_6317" style="mask-type:luminance" maskUnits="userSpaceOnUse" x="0" y="0" width="120" height="20">
<path d="M0 20L120 20L120 8.49798e-05L-4.02133e-05 4.19617e-05L0 20Z" fill="white"/>
</mask>
<g mask="url(#mask0_415_6317)">
<path d="M17.3047 3.79081L30.1399 3.79082L30.1399 10.9893L24.7552 10.9893L30.1399 15.5962L25.5656 15.5962L20.2849 10.9893L20.2849 15.5962L17.3047 15.5962L17.3047 8.27823L26.7154 8.27823L26.7154 6.52653L17.3047 6.52652L17.3047 3.79081Z" fill="black"/>
<path d="M31.4727 15.5962L34.6095 15.5962L34.6095 3.76689L31.4726 3.76689L31.4727 15.5962Z" fill="black"/>
<path d="M6.35253 12.7409L6.35251 3.79081L3.8953 3.79081C3.45093 3.79081 3.11106 4.10298 3.11106 4.4864C3.11106 6.59863 3.08495 12.8129 3.08496 14.8763C3.08496 15.2603 3.42484 15.5962 3.84308 15.5962C5.54217 15.5962 10.4303 15.5962 11.1358 15.5962L11.1358 12.7409L6.35253 12.7409Z" fill="black"/>
<path d="M12.7559 18.5474C13.0438 18.5474 15.2394 18.5474 15.9716 18.5474C15.9716 18.5474 15.9715 12.7167 15.9715 12.6208C14.9257 12.6208 13.8284 12.6208 12.7558 12.6208C12.7559 14.5883 12.7559 16.5558 12.7559 18.5474Z" fill="black"/>
<path d="M7.92088 3.79074C7.92088 3.83909 7.92089 6.74192 7.92089 6.74192C9.35866 6.74192 11.1882 6.74192 12.7565 6.74192C12.7565 8.78204 12.7565 11.1572 12.7565 11.1572C13.4887 11.1572 15.6843 11.1572 15.9722 11.1572L15.9722 4.51093C15.9722 4.12666 15.6318 3.81449 15.2142 3.79074C13.6459 3.79074 9.93354 3.79074 7.92088 3.79074Z" fill="black"/>
<path d="M7.92089 8.18162C7.92089 9.16563 7.9209 10.1496 7.9209 11.1812C8.18231 11.1812 8.46985 11.1812 8.73126 11.1812C9.46353 11.1812 10.3778 11.1812 11.11 11.1812C11.11 11.1812 11.11 8.22998 11.11 8.18163C10.0642 8.18163 8.99267 8.18162 7.92089 8.18162ZM10.169 10.2692C9.85537 10.2692 9.48928 10.2692 9.20138 10.2692C9.09726 10.2692 8.99267 10.2692 8.86197 10.2692C8.86196 9.86123 8.86196 9.4778 8.86196 9.06978C9.30624 9.06978 9.72476 9.06978 10.169 9.06978C10.169 9.09353 10.169 10.2692 10.169 10.2692Z" fill="black"/>
<path d="M50.0065 12.6211L50.0065 17.036C50.0065 17.4199 49.6404 17.7319 49.2228 17.7319L44.4131 17.7319L44.4131 18.4517L50.0065 18.4517L50.0332 18.4517C50.425 18.4517 50.7645 18.1397 50.7645 17.7558L50.7645 17.7319L50.7644 12.6211L50.0065 12.6211Z" fill="black"/>
<path d="M1.7774 6.71795L1.77739 2.30264C1.77739 1.91921 2.09105 1.6308 2.50929 1.6308L7.31913 1.6308C7.34526 1.6308 7.34526 1.60705 7.34526 1.60705L7.34526 0.935205C7.34526 0.935205 7.34526 0.911453 7.31913 0.911453L1.77739 0.911452C1.33302 0.911451 0.993151 1.22362 0.993152 1.6308L0.993164 6.71795C0.993164 6.7417 1.01929 6.7417 1.01929 6.7417L1.75128 6.7417C1.75128 6.7417 1.7774 6.7417 1.7774 6.71795Z" fill="black"/>
<path d="M48.6466 6.71791L48.6466 3.79049L35.9687 3.79048L35.9687 8.1812L35.9687 11.1332L44.4127 11.1332L44.4127 12.5966L35.9687 12.5966L35.9688 15.5479L48.6467 15.5479L48.6466 8.2058L40.2036 8.2058L40.2036 6.71791L48.6466 6.71791Z" fill="black"/>
<path d="M57.7957 8.03809L54.9985 8.03809C54.6591 8.03809 54.3455 7.98973 54.0318 7.87013C53.7439 7.77427 53.4569 7.60631 53.2472 7.41375C53.0117 7.19829 52.8296 6.95822 52.6981 6.69441C52.5674 6.40599 52.4893 6.11842 52.4893 5.7825C52.4893 5.44658 52.5674 5.15817 52.6981 4.8706C52.8296 4.60678 52.986 4.34297 53.2214 4.15041C53.4569 3.93494 53.7181 3.79073 54.0051 3.67113C54.3188 3.55067 54.6324 3.50317 54.9985 3.50317C55.3389 3.50317 55.6525 3.55067 55.9662 3.67113C56.2532 3.79074 56.5153 3.93494 56.7499 4.12666C56.9596 4.34297 57.1426 4.55843 57.2732 4.84685C57.4039 5.11066 57.4563 5.39823 57.4563 5.7104C57.4563 5.90211 57.4296 6.09467 57.4039 6.26263C57.3514 6.45434 57.2732 6.6223 57.1684 6.79026C57.0902 6.93447 56.9596 7.07783 56.829 7.19829C56.6984 7.34165 56.5411 7.43835 56.358 7.50961L57.7957 7.50961L57.7957 8.03809ZM54.9728 7.48585C55.234 7.48585 55.4952 7.43835 55.705 7.34165C55.9138 7.24579 56.1226 7.12618 56.2798 6.98198C56.4362 6.81402 56.5411 6.64606 56.6459 6.43059C56.7241 6.21428 56.7765 5.97422 56.7765 5.73415C56.7765 5.51869 56.7241 5.27862 56.6459 5.08691C56.5411 4.8706 56.4105 4.70264 56.2532 4.55843C56.0968 4.39047 55.9137 4.27086 55.7049 4.19876C55.4695 4.1029 55.234 4.05455 54.9728 4.05455C54.7115 4.05455 54.4761 4.1029 54.2673 4.19876C54.0575 4.27086 53.8745 4.39047 53.7181 4.55843C53.5608 4.70264 53.4302 4.8706 53.3254 5.08691C53.2472 5.27862 53.1948 5.49409 53.1948 5.73415C53.1948 5.97422 53.2472 6.19053 53.3254 6.40599C53.4045 6.6223 53.5351 6.81401 53.6915 6.95822C53.8488 7.12618 54.0318 7.24579 54.2673 7.34165C54.4761 7.43835 54.7115 7.48585 54.9728 7.48585Z" fill="black"/>
<path d="M58.4766 3.59902L60.1755 3.59902C60.4891 3.59902 60.7504 3.64653 60.9334 3.71863C61.1431 3.81449 61.2995 3.91119 61.4301 4.0308C61.535 4.15041 61.6131 4.27086 61.6656 4.41507C61.718 4.55843 61.718 4.70264 61.718 4.84685C61.718 4.99021 61.6923 5.13442 61.6398 5.25487C61.5874 5.39823 61.5092 5.51869 61.4043 5.61454C61.2995 5.73415 61.1955 5.80626 61.0383 5.87836C60.8819 5.95046 60.7246 5.99797 60.5416 6.02257L61.9268 8.03809L61.0907 8.03809L59.8618 6.09467L59.1296 6.09467L59.1296 8.03809L58.4766 8.03809L58.4766 3.59902ZM59.1296 5.56619L59.9924 5.56619C60.123 5.56619 60.2537 5.56619 60.3852 5.54244C60.4891 5.51869 60.6197 5.49409 60.6988 5.42283C60.8028 5.37448 60.8819 5.30238 60.9334 5.20652C61.0125 5.13442 61.0383 4.99021 61.0383 4.84685C61.0383 4.70264 61.0125 4.58303 60.9334 4.48633C60.8819 4.39047 60.8028 4.31837 60.6988 4.27086C60.6197 4.22251 60.4891 4.17501 60.3852 4.17501C60.2536 4.15041 60.123 4.12665 59.9924 4.12665L59.1296 4.12665L59.1296 5.56619Z" fill="black"/>
<path d="M67.912 4.55845C67.7814 4.41509 67.5983 4.27088 67.3895 4.19878C67.1798 4.10292 66.971 4.05457 66.7355 4.05457C66.4743 4.05457 66.2131 4.10292 66.0043 4.19878C65.7945 4.29464 65.5857 4.41509 65.4285 4.58305C65.2721 4.75101 65.1672 4.94272 65.0633 5.15819C64.9842 5.3745 64.9318 5.61456 64.9318 5.85463C64.9318 6.09469 64.9842 6.31016 65.0633 6.52647C65.1415 6.74193 65.2721 6.93449 65.4285 7.07785C65.5858 7.24581 65.7688 7.36627 65.9776 7.46212C66.2131 7.55798 66.4743 7.60633 66.7355 7.60633C67.0234 7.60633 67.2589 7.53423 67.4677 7.43837C67.6765 7.34167 67.8596 7.19831 68.0168 7.00575L68.566 7.39002C68.5135 7.43837 68.4611 7.48588 68.3563 7.58173C68.2781 7.65384 68.1475 7.74969 68.0168 7.84555C67.8596 7.91765 67.6765 7.98976 67.4677 8.06186C67.2589 8.13396 66.9977 8.15772 66.7355 8.15772C66.3437 8.15772 66.0043 8.08561 65.6906 7.966C65.4027 7.8218 65.1415 7.65384 64.906 7.43837C64.6972 7.22206 64.5399 6.95824 64.4093 6.69443C64.3044 6.43061 64.2529 6.1422 64.2529 5.85463C64.2529 5.51871 64.3044 5.20654 64.4351 4.91897C64.5666 4.63056 64.723 4.36674 64.9584 4.17503C65.1672 3.95872 65.4285 3.79076 65.7421 3.67115C66.0558 3.55069 66.3961 3.50319 66.7622 3.50319C67.0759 3.50319 67.3895 3.55069 67.7032 3.67115C68.0168 3.79076 68.2523 3.95872 68.4611 4.19878L67.912 4.55845Z" fill="black"/>
<path d="M69.0361 6.55036C69.0361 6.33405 69.0886 6.14234 69.1667 5.95062C69.2716 5.75891 69.3765 5.59095 69.5328 5.4705C69.6901 5.32629 69.8732 5.20668 70.082 5.13458C70.2908 5.03872 70.5262 4.99037 70.7617 4.99037C70.9972 4.99037 71.2317 5.03872 71.4415 5.13458C71.6503 5.20668 71.8333 5.32629 71.9906 5.4705C72.147 5.59095 72.2518 5.75891 72.3558 5.95062C72.4349 6.14234 72.4864 6.33405 72.4864 6.55036C72.4864 6.79043 72.4349 6.98214 72.3558 7.17385C72.2518 7.36641 72.147 7.53437 71.9906 7.67773C71.8333 7.79818 71.6503 7.91779 71.4415 7.9899C71.2317 8.08575 70.9972 8.11035 70.7617 8.11035C70.5262 8.11035 70.2908 8.08575 70.082 7.9899C69.8732 7.91779 69.6901 7.79818 69.5328 7.67773C69.3765 7.53437 69.2716 7.36641 69.1667 7.17385C69.0886 6.98214 69.0361 6.79042 69.0361 6.55036ZM69.6901 6.55036C69.6901 6.71832 69.7159 6.86253 69.7683 6.98214C69.8207 7.10259 69.8989 7.2222 69.9771 7.2943C70.082 7.39016 70.1868 7.46226 70.3174 7.50977C70.4481 7.55812 70.6044 7.60647 70.7617 7.60647C70.9181 7.60647 71.0754 7.55812 71.206 7.50977C71.3366 7.46226 71.4415 7.39016 71.5454 7.2943C71.6245 7.2222 71.7027 7.10259 71.7551 6.98214C71.8076 6.86253 71.8333 6.71832 71.8333 6.55036C71.8333 6.40615 71.8076 6.26279 71.7551 6.14234C71.7027 6.02273 71.6245 5.90227 71.5454 5.83017C71.4415 5.73431 71.3366 5.66221 71.206 5.6147C71.0754 5.5426 70.9181 5.51885 70.7617 5.51885C70.6044 5.51885 70.4481 5.5426 70.3174 5.6147C70.1868 5.66221 70.082 5.73431 69.9771 5.83017C69.8989 5.90227 69.8207 6.02273 69.7683 6.14234C69.7159 6.26279 69.6901 6.40615 69.6901 6.55036Z" fill="black"/>
<path d="M76.4866 8.03825L75.8851 8.03825L75.8851 7.63022L75.8593 7.63022C75.7545 7.77443 75.5714 7.89404 75.3626 7.9899C75.1796 8.08575 74.9441 8.11035 74.7353 8.11035C74.4998 8.11035 74.2643 8.08575 74.0555 8.01365C73.8458 7.91779 73.6895 7.82194 73.5322 7.67773C73.4016 7.53437 73.2967 7.36641 73.2185 7.17385C73.1403 6.98214 73.0879 6.79042 73.0879 6.55036C73.0879 6.33405 73.1403 6.14234 73.2185 5.95062C73.2967 5.75891 73.4015 5.59095 73.5322 5.44674C73.6894 5.30254 73.8458 5.20668 74.0555 5.11082C74.2643 5.03872 74.4998 4.99037 74.7353 4.99037C74.9698 4.99037 75.1796 5.03872 75.3884 5.13458C75.5972 5.23043 75.7544 5.35089 75.8593 5.49425L75.8851 5.49425L75.8851 3.31077L76.4866 3.31077L76.4866 8.03825ZM74.8135 7.60647C74.9698 7.60647 75.1271 7.55812 75.2577 7.50977C75.3884 7.46226 75.4932 7.39016 75.5972 7.2943C75.6763 7.2222 75.7545 7.10259 75.8069 6.98214C75.8593 6.86253 75.8851 6.71832 75.8851 6.55036C75.8851 6.40615 75.8593 6.26279 75.8069 6.14234C75.7545 6.02273 75.6763 5.90227 75.5972 5.83017C75.4932 5.73431 75.3884 5.66221 75.2577 5.6147C75.1271 5.5426 74.9698 5.51885 74.8135 5.51885C74.6562 5.51885 74.4998 5.5426 74.3692 5.6147C74.2386 5.66221 74.1337 5.73431 74.0289 5.83017C73.9507 5.90227 73.8725 6.02273 73.8201 6.14234C73.7676 6.26279 73.7419 6.40615 73.7419 6.55036C73.7419 6.71832 73.7676 6.86253 73.8201 6.98214C73.8725 7.10259 73.9507 7.2222 74.0289 7.2943C74.1337 7.39016 74.2386 7.46226 74.3692 7.50977C74.4998 7.55812 74.6562 7.60647 74.8135 7.60647Z" fill="black"/>
<path d="M77.8718 6.76667C77.8718 6.88628 77.9242 7.00589 77.9757 7.12634C78.0281 7.2222 78.1072 7.31806 78.2112 7.39016C78.316 7.46226 78.4467 7.53437 78.5773 7.58187C78.7079 7.60647 78.8385 7.63022 78.9691 7.63022C79.1788 7.63022 79.3352 7.58187 79.4658 7.50977C79.6231 7.43851 79.7537 7.31806 79.8586 7.19845L80.3286 7.50977C79.9892 7.91779 79.5182 8.11035 78.8909 8.11035C78.6297 8.11035 78.4209 8.08575 78.2112 8.01365C78.0024 7.91779 77.8193 7.82194 77.662 7.67773C77.5314 7.53437 77.4275 7.36641 77.3484 7.17385C77.2702 6.98214 77.2178 6.79042 77.2178 6.55036C77.2178 6.33405 77.2702 6.14234 77.3484 5.95062C77.4275 5.75891 77.5581 5.59095 77.7145 5.44674C77.8451 5.30254 78.0281 5.20668 78.2378 5.11082C78.4466 5.03872 78.6554 4.99037 78.8909 4.99037C79.1788 4.99037 79.4401 5.03872 79.6231 5.13458C79.8319 5.23043 79.9892 5.35089 80.1198 5.49425C80.2504 5.63846 80.3286 5.80642 80.381 5.99813C80.4592 6.19069 80.4859 6.3824 80.4859 6.57411L80.4859 6.76667L77.8718 6.76667ZM79.8319 6.3103C79.8062 6.19069 79.8062 6.07023 79.7537 5.97438C79.728 5.87852 79.6489 5.78267 79.5707 5.71056C79.4925 5.61471 79.4134 5.56635 79.2828 5.51885C79.1788 5.4705 79.0482 5.44674 78.8909 5.44674C78.7346 5.44674 78.6039 5.4705 78.4724 5.5426C78.3418 5.59095 78.2379 5.66221 78.1587 5.73431C78.0806 5.80642 78.0024 5.90227 77.95 6.02273C77.8975 6.11858 77.8718 6.21444 77.8718 6.3103L79.8319 6.3103Z" fill="black"/>
<path d="M83.4144 7.1262C83.5183 7.27041 83.6756 7.39002 83.8586 7.48588C84.0417 7.55798 84.2505 7.60633 84.4335 7.60633C84.5384 7.60633 84.669 7.58173 84.7729 7.55798C84.8778 7.50963 84.9827 7.46212 85.0866 7.41377C85.1657 7.34167 85.2439 7.27041 85.2963 7.17371C85.3745 7.07785 85.4003 6.982 85.4003 6.86239C85.4003 6.69443 85.3487 6.55022 85.2172 6.45436C85.1133 6.38226 84.956 6.31016 84.7729 6.23805C84.6166 6.16595 84.4069 6.11844 84.1981 6.07009C83.9893 5.99799 83.8062 5.92673 83.6232 5.83003C83.4659 5.73417 83.3095 5.59081 83.2046 5.42285C83.074 5.25489 83.0216 5.03858 83.0216 4.72641C83.0216 4.6068 83.0483 4.4626 83.1007 4.31839C83.1789 4.17503 83.2571 4.05457 83.3877 3.93496C83.5183 3.79076 83.7013 3.6949 83.9111 3.6228C84.1199 3.52694 84.3553 3.50319 84.6423 3.50319C84.9302 3.50319 85.1657 3.52694 85.4003 3.59904C85.6624 3.67115 85.8712 3.79076 86.0542 4.00707L85.5051 4.43884C85.4269 4.34299 85.3221 4.24713 85.1657 4.17503C85.0084 4.10292 84.852 4.05457 84.6423 4.05457C84.4593 4.05457 84.3287 4.07917 84.1981 4.12668C84.0674 4.17503 83.9892 4.22253 83.9111 4.29464C83.832 4.36674 83.7795 4.43884 83.7538 4.51095C83.728 4.6068 83.7013 4.67891 83.7013 4.72641C83.7013 4.91897 83.7795 5.06233 83.8844 5.18279C84.015 5.27864 84.1456 5.35075 84.3287 5.42285C84.5117 5.47036 84.6948 5.54246 84.9036 5.59081C85.1133 5.63832 85.2963 5.71042 85.4794 5.78252C85.6624 5.87838 85.793 5.99799 85.9236 6.16595C86.0276 6.31016 86.08 6.52647 86.08 6.79028C86.08 7.00575 86.0543 7.19831 85.9494 7.36627C85.8712 7.53423 85.7406 7.67759 85.61 7.79804C85.4527 7.91765 85.2696 8.01351 85.0608 8.06186C84.8778 8.13396 84.6423 8.15772 84.4069 8.15772C84.0932 8.15772 83.8062 8.11021 83.545 8.01351C83.2571 7.91765 83.0483 7.74969 82.8652 7.53423L83.4144 7.1262Z" fill="black"/>
<path d="M88.6409 5.56635L87.7524 5.56635L87.7524 6.91003C87.7524 7.00589 87.7524 7.07799 87.7524 7.1501C87.779 7.24595 87.779 7.31806 87.8048 7.39016C87.8572 7.43851 87.883 7.48602 87.9612 7.53437C88.0136 7.58187 88.0927 7.60647 88.2233 7.60647C88.3015 7.60647 88.3797 7.58187 88.4579 7.58187C88.537 7.55812 88.5894 7.53437 88.6676 7.50977L88.6676 8.01365C88.5894 8.062 88.4846 8.08575 88.3797 8.11035C88.2491 8.11035 88.1709 8.11035 88.1185 8.11035C87.8572 8.11035 87.6742 8.08575 87.5693 8.03825C87.4387 7.96614 87.3339 7.89404 87.2823 7.79818C87.2032 7.70233 87.1775 7.58187 87.1508 7.46226C87.1508 7.34181 87.1508 7.2222 87.1508 7.10259L87.1508 5.56635L86.4453 5.56635L86.4453 5.08707L87.1508 5.08707L87.1508 4.24727L87.7524 4.24727L87.7524 5.08707L88.6409 5.08707L88.6409 5.56635Z" fill="black"/>
<path d="M89.4516 5.44674C89.6089 5.30254 89.8177 5.18293 90.0532 5.11082C90.262 5.03872 90.4974 4.99037 90.7329 4.99037C90.9684 4.99037 91.1772 5.03872 91.3335 5.08707C91.5166 5.13458 91.6481 5.20668 91.7521 5.30254C91.8569 5.39839 91.9618 5.49425 92.0096 5.6147C92.0372 5.73431 92.0648 5.85477 92.0648 5.99813L92.0648 7.50977C92.0648 7.60647 92.0924 7.70233 92.0924 7.79818C92.0924 7.89404 92.0924 7.96614 92.12 8.03825L91.569 8.03825C91.5433 7.89404 91.5433 7.74983 91.5433 7.60647L91.5166 7.60647C91.386 7.79818 91.2296 7.91779 91.0466 8.01365C90.8635 8.08575 90.6281 8.11035 90.3926 8.11035C90.2362 8.11035 90.1056 8.11035 89.975 8.062C89.8177 8.03825 89.7137 7.96614 89.6089 7.89404C89.504 7.82194 89.4258 7.72608 89.3734 7.60647C89.2952 7.50977 89.2686 7.36641 89.2686 7.2222C89.2686 7.03049 89.321 6.88628 89.4258 6.74207C89.504 6.62246 89.6346 6.50201 89.7919 6.43075C89.9483 6.35865 90.158 6.28654 90.3668 6.26279C90.5756 6.21444 90.8111 6.21444 91.0466 6.21444L91.5166 6.21444L91.5166 6.07023C91.5166 5.99813 91.4908 5.92687 91.4651 5.85477C91.4384 5.78267 91.386 5.71056 91.3078 5.63846C91.2554 5.59095 91.1772 5.5426 91.0723 5.49425C90.9684 5.4705 90.8635 5.44674 90.7329 5.44674C90.628 5.44674 90.5241 5.4705 90.4192 5.49425C90.3411 5.49425 90.262 5.5426 90.1838 5.56635C90.1056 5.59095 90.0532 5.63846 89.975 5.66221C89.9225 5.71056 89.8701 5.75891 89.8177 5.78266L89.4516 5.44674ZM91.1772 6.62246C91.0199 6.62246 90.8893 6.62246 90.7329 6.64622C90.5756 6.64622 90.445 6.69457 90.3144 6.71832C90.1838 6.76667 90.0789 6.81418 90.0007 6.91003C89.9225 6.98214 89.8959 7.07799 89.8959 7.19845C89.8959 7.36641 89.9483 7.48602 90.0789 7.55812C90.2095 7.63022 90.3668 7.67773 90.5756 7.67773C90.7587 7.67773 90.8893 7.65398 91.0199 7.58187C91.1248 7.53437 91.2296 7.46226 91.3078 7.39016C91.386 7.2943 91.4384 7.2222 91.4651 7.10259C91.4908 7.00589 91.5166 6.91003 91.5166 6.81418L91.5166 6.62246L91.1772 6.62246Z" fill="black"/>
<path d="M92.9853 5.08691L93.5832 5.08691L93.5832 5.54244L93.6108 5.54244C93.6844 5.37448 93.8224 5.25487 93.9972 5.15817C94.1811 5.03856 94.4203 4.99021 94.6502 4.99021C94.8158 4.99021 94.9722 5.01481 95.1285 5.06231C95.2573 5.11066 95.3861 5.18277 95.4873 5.27862C95.5976 5.35073 95.6712 5.47034 95.754 5.61454C95.8092 5.75875 95.8276 5.95046 95.8276 6.14217L95.8276 8.03809L95.2297 8.03809L95.2297 6.28638C95.2297 6.14217 95.2021 6.04632 95.1469 5.92671C95.1285 5.83001 95.0733 5.75875 94.9906 5.7104C94.9446 5.6383 94.8618 5.59079 94.7606 5.56619C94.6778 5.54244 94.5766 5.51869 94.4939 5.51869C94.3651 5.51869 94.2363 5.54244 94.1351 5.59079C94.0247 5.61454 93.9236 5.68665 93.8408 5.75875C93.7672 5.85461 93.712 5.95046 93.6568 6.07007C93.6108 6.19053 93.5832 6.33389 93.5832 6.52645L93.5832 8.03809L92.9854 8.03809L92.9853 5.08691Z" fill="black"/>
<path d="M100.012 8.03825L99.3868 8.03825L99.3868 7.63022C99.2581 7.77443 99.1017 7.89404 98.8901 7.9899C98.6786 8.08575 98.467 8.11035 98.2646 8.11035C97.9979 8.11035 97.7863 8.08575 97.584 8.01365C97.3724 7.91779 97.1884 7.82194 97.0597 7.67773C96.9033 7.53437 96.8021 7.36641 96.7193 7.17385C96.6366 6.98214 96.6182 6.79042 96.6182 6.55036C96.6182 6.33405 96.6366 6.14234 96.7193 5.95062C96.8021 5.75891 96.9033 5.59095 97.0597 5.44674C97.1884 5.30254 97.3724 5.20668 97.584 5.11082C97.7863 5.03872 97.9979 4.99037 98.2646 4.99037C98.4946 4.99037 98.7062 5.03872 98.9177 5.13458C99.1201 5.23043 99.2764 5.35089 99.3868 5.49425L99.3868 3.31077L100.012 3.31077L100.012 8.03825ZM98.3382 7.60647C98.4946 7.60647 98.651 7.55812 98.7797 7.50977C98.9177 7.46226 99.0189 7.39016 99.1017 7.2943C99.2029 7.2222 99.2764 7.10259 99.304 6.98214C99.3592 6.86253 99.3868 6.71832 99.3868 6.55036C99.3868 6.40615 99.3592 6.26279 99.304 6.14234C99.2764 6.02273 99.2029 5.90227 99.1017 5.83017C99.0189 5.73431 98.9177 5.66221 98.7797 5.6147C98.651 5.5426 98.4946 5.51885 98.3382 5.51885C98.1543 5.51885 98.0255 5.5426 97.8967 5.6147C97.7679 5.66221 97.63 5.73431 97.5564 5.83017C97.4552 5.90227 97.4 6.02273 97.3448 6.14234C97.2896 6.26279 97.2712 6.40615 97.2712 6.55036C97.2712 6.71832 97.2896 6.86253 97.3448 6.98214C97.4 7.10259 97.4552 7.2222 97.5564 7.2943C97.63 7.39016 97.7679 7.46226 97.8967 7.50977C98.0255 7.55812 98.1543 7.60647 98.3382 7.60647Z" fill="black"/>
<path d="M100.951 5.44674C101.135 5.30254 101.318 5.18293 101.558 5.11082C101.788 5.03872 101.999 4.99037 102.238 4.99037C102.468 4.99037 102.68 5.03872 102.836 5.08707C103.02 5.13458 103.149 5.20668 103.25 5.30254C103.388 5.39839 103.462 5.49425 103.517 5.6147C103.572 5.73431 103.59 5.85477 103.59 5.99813L103.59 7.50977C103.59 7.60647 103.59 7.70233 103.59 7.79818C103.59 7.89404 103.59 7.96614 103.618 8.03825L103.075 8.03825C103.048 7.89404 103.048 7.74983 103.048 7.60647C102.891 7.79818 102.735 7.91779 102.551 8.01365C102.367 8.08575 102.156 8.11035 101.898 8.11035C101.742 8.11035 101.604 8.11035 101.475 8.062C101.346 8.03825 101.217 7.96614 101.107 7.89404C101.006 7.82194 100.932 7.72608 100.877 7.60647C100.822 7.50977 100.767 7.36641 100.767 7.2222C100.767 7.03049 100.822 6.88628 100.932 6.74207C101.006 6.62246 101.135 6.50201 101.291 6.43075C101.475 6.35865 101.659 6.28654 101.87 6.26279C102.082 6.21444 102.312 6.21444 102.579 6.21444L103.02 6.21444L103.02 6.07023C103.02 5.99813 102.993 5.92687 102.965 5.85477C102.937 5.78267 102.891 5.71056 102.809 5.63846C102.753 5.59095 102.68 5.5426 102.579 5.49425C102.496 5.4705 102.367 5.44674 102.238 5.44674C102.128 5.44674 102.027 5.4705 101.926 5.49425C101.843 5.49425 101.76 5.5426 101.686 5.56635C101.604 5.59095 101.558 5.63846 101.502 5.66221C101.429 5.71056 101.374 5.75891 101.318 5.78266L100.951 5.44674ZM102.68 6.62246C102.551 6.62246 102.395 6.62246 102.238 6.64622C102.082 6.64622 101.944 6.69457 101.815 6.71832C101.686 6.76667 101.604 6.81418 101.502 6.91003C101.429 6.98214 101.401 7.07799 101.401 7.19845C101.401 7.36641 101.447 7.48602 101.585 7.55812C101.714 7.63022 101.87 7.67773 102.1 7.67773C102.257 7.67773 102.395 7.65398 102.523 7.58187C102.652 7.53437 102.735 7.46226 102.809 7.39016C102.891 7.2943 102.937 7.2222 102.965 7.10259C102.993 7.00589 103.02 6.91003 103.02 6.81418L103.02 6.62246L102.68 6.62246Z" fill="black"/>
<path d="M104.482 5.08691L105.08 5.08691L105.08 5.54244L105.108 5.54244C105.135 5.44658 105.218 5.37448 105.264 5.32613C105.347 5.25487 105.421 5.20652 105.503 5.15817C105.577 5.11066 105.687 5.06231 105.789 5.03856C105.871 5.01481 105.973 4.99021 106.074 4.99021C106.184 4.99021 106.258 5.01481 106.34 5.03856L106.313 5.63829C106.258 5.63829 106.23 5.61454 106.184 5.61454C106.129 5.61454 106.074 5.61454 106.028 5.61454C105.715 5.61454 105.503 5.68665 105.347 5.83001C105.163 5.99797 105.08 6.23803 105.08 6.5502L105.08 8.03809L104.482 8.03809L104.482 5.08691Z" fill="black"/>
<path d="M52.8037 11.1336L54.5026 11.1336C54.8163 11.1336 55.0784 11.1574 55.2605 11.2532C55.4703 11.3253 55.6266 11.4212 55.7315 11.5412C55.8621 11.6612 55.9403 11.7812 55.9927 11.9492C56.0194 12.0931 56.0452 12.2371 56.0452 12.381C56.0452 12.501 56.0194 12.645 55.9927 12.789C55.9403 12.9569 55.8621 13.0769 55.7315 13.1968C55.6266 13.3169 55.4703 13.4128 55.2606 13.4848C55.0784 13.5808 54.8163 13.6048 54.5026 13.6048L53.4577 13.6048L53.4577 15.5723L52.8037 15.5723L52.8037 11.1336ZM53.4577 13.0769L54.3196 13.0769C54.4502 13.0769 54.5817 13.0769 54.6857 13.0529C54.8163 13.0289 54.9211 13.0049 55.026 12.9569C55.1299 12.9089 55.209 12.8369 55.2605 12.741C55.313 12.645 55.3654 12.525 55.3654 12.381C55.3654 12.2131 55.313 12.0931 55.2605 11.9971C55.209 11.9012 55.1299 11.8291 55.026 11.7812C54.9211 11.7332 54.8163 11.7092 54.6857 11.6852C54.5817 11.6612 54.4502 11.6612 54.3196 11.6612L53.4577 11.6612L53.4577 13.0769Z" fill="black"/>
<path d="M57.169 14.2764C57.169 14.4203 57.1948 14.5403 57.2472 14.6363C57.2996 14.7562 57.3778 14.8282 57.4827 14.9242C57.5875 14.9962 57.7181 15.0441 57.8488 15.0922C57.9794 15.1402 58.11 15.1402 58.2406 15.1402C58.4503 15.1402 58.6067 15.1162 58.7373 15.0202C58.8946 14.9482 59.0252 14.8283 59.1291 14.7082L59.6001 15.0202C59.2607 15.4281 58.7897 15.644 58.1624 15.644C57.9012 15.644 57.6915 15.596 57.4827 15.5241C57.2739 15.4521 57.0908 15.3321 56.9602 15.1882C56.8029 15.0441 56.699 14.8762 56.6199 14.6842C56.5417 14.5163 56.4893 14.3004 56.4893 14.0844C56.4893 13.8684 56.5417 13.6525 56.6199 13.4606C56.699 13.2686 56.8296 13.1006 56.986 12.9567C57.1166 12.8367 57.2996 12.7167 57.5084 12.6448C57.7181 12.5487 57.9269 12.5247 58.1624 12.5247C58.4503 12.5247 58.7115 12.5728 58.8946 12.6687C59.1034 12.7407 59.2607 12.8607 59.3913 13.0286C59.5219 13.1726 59.6001 13.3405 59.6525 13.5085C59.7307 13.7005 59.7574 13.8924 59.7574 14.0844L59.7574 14.2764L57.169 14.2764ZM59.1034 13.8444C59.0776 13.7005 59.0776 13.6045 59.0252 13.4846C58.9985 13.3885 58.9203 13.2926 58.8679 13.2206C58.7897 13.1487 58.6849 13.0766 58.5543 13.0286C58.4503 12.9807 58.3188 12.9807 58.1624 12.9807C58.0051 12.9807 57.8745 13.0046 57.7439 13.0526C57.6133 13.1006 57.5084 13.1726 57.4302 13.2446C57.352 13.3405 57.2739 13.4366 57.2214 13.5325C57.169 13.6285 57.169 13.7245 57.169 13.8444L59.1034 13.8444Z" fill="black"/>
<path d="M60.4883 12.597L61.0632 12.597L61.0632 13.0529C61.0898 13.0049 61.1156 12.9569 61.168 12.9089C61.2462 12.8369 61.2986 12.789 61.4035 12.7169C61.4817 12.6689 61.5865 12.621 61.7172 12.573C61.822 12.549 61.9526 12.525 62.109 12.525C62.3445 12.525 62.5533 12.573 62.7106 12.6689C62.8936 12.741 63.0242 12.8849 63.1291 13.0769C63.233 12.8849 63.3636 12.741 63.5734 12.6689C63.7564 12.573 63.9394 12.525 64.1482 12.525C64.3837 12.525 64.5925 12.549 64.7498 12.621C64.9062 12.7169 65.0368 12.813 65.1417 12.9329C65.2198 13.0529 65.298 13.1968 65.3247 13.3408C65.3505 13.5087 65.3771 13.6767 65.3771 13.8447L65.3771 15.5723L64.7498 15.5723L64.7498 13.9167C64.7498 13.7967 64.7498 13.6767 64.7231 13.5808C64.7231 13.4848 64.6974 13.3888 64.6449 13.3169C64.5925 13.2208 64.5143 13.1728 64.4352 13.1249C64.3313 13.0769 64.2007 13.0529 64.0701 13.0529C63.7564 13.0529 63.5467 13.1249 63.4161 13.2928C63.3112 13.4608 63.233 13.6767 63.233 13.9407L63.233 15.5723L62.6324 15.5723L62.6324 14.0126C62.6324 13.8687 62.6057 13.7487 62.6057 13.6288C62.58 13.5087 62.5533 13.4128 62.5008 13.3169C62.4493 13.2208 62.3969 13.1728 62.292 13.1249C62.2139 13.0769 62.0832 13.0529 61.9526 13.0529C61.822 13.0529 61.7172 13.0769 61.6123 13.1009C61.5084 13.1489 61.4292 13.1968 61.3511 13.2928C61.2729 13.3648 61.2205 13.4608 61.168 13.5808C61.1156 13.7007 61.0898 13.8447 61.0898 14.0126L61.0898 15.5723L60.4883 15.5723L60.4883 12.597Z" fill="black"/>
<path d="M66.292 10.8212L66.9193 10.8212L66.9193 13.0286C67.0499 12.8607 67.2072 12.7407 67.3903 12.6448C67.5991 12.5728 67.8345 12.5247 68.0433 12.5247C68.3046 12.5247 68.54 12.5487 68.7231 12.6448C68.9328 12.7167 69.1149 12.8367 69.2465 12.9567C69.4028 13.1006 69.5077 13.2686 69.5859 13.4606C69.6641 13.6525 69.6907 13.8684 69.6907 14.0844C69.6907 14.3004 69.6641 14.5163 69.5859 14.6842C69.5077 14.8762 69.4028 15.0441 69.2465 15.1882C69.1149 15.3321 68.9328 15.4521 68.7231 15.5241C68.54 15.596 68.3046 15.644 68.0433 15.644C67.8345 15.644 67.6257 15.596 67.416 15.5001C67.2072 15.4281 67.0499 15.3081 66.9193 15.1402L66.9193 15.572L66.292 15.572L66.292 10.8212ZM67.9909 15.1162C68.1482 15.1162 68.3046 15.0922 68.4361 15.0441C68.5667 14.9722 68.6706 14.9002 68.7498 14.8283C68.8537 14.7322 68.9328 14.6123 68.9586 14.4923C69.011 14.3723 69.0367 14.2283 69.0367 14.0844C69.0367 13.9404 69.011 13.7965 68.9586 13.6525C68.9328 13.5325 68.8537 13.4366 68.7497 13.3405C68.6706 13.2446 68.5667 13.1726 68.4361 13.1246C68.3046 13.0766 68.1482 13.0526 67.9909 13.0526C67.8088 13.0526 67.6772 13.0766 67.5466 13.1246C67.416 13.1726 67.2854 13.2446 67.2072 13.3405C67.1024 13.4366 67.0499 13.5325 66.9984 13.6525C66.946 13.7965 66.9193 13.9404 66.9193 14.0844C66.9193 14.2283 66.946 14.3723 66.9984 14.4923C67.0499 14.6123 67.1024 14.7322 67.2072 14.8282C67.2854 14.9002 67.416 14.9722 67.5466 15.0441C67.6772 15.0922 67.8088 15.1162 67.9909 15.1162Z" fill="black"/>
<path d="M70.4737 12.9567C70.6568 12.8127 70.8665 12.6927 71.0753 12.6208C71.3108 12.5487 71.5453 12.5247 71.7808 12.5247C72.0163 12.5247 72.1993 12.5487 72.3824 12.5968C72.5387 12.6448 72.696 12.7167 72.8009 12.8127C72.9048 12.9087 72.983 13.0286 73.0355 13.1246C73.0879 13.2446 73.1146 13.3885 73.1146 13.5085L73.1146 15.0202C73.1146 15.1402 73.1146 15.2361 73.1146 15.3081C73.1403 15.4041 73.1403 15.4761 73.1403 15.572L72.5912 15.572C72.5912 15.4041 72.5912 15.2601 72.5912 15.1162L72.5654 15.1162C72.4348 15.3081 72.2775 15.4521 72.0945 15.5241C71.8857 15.596 71.6769 15.644 71.4414 15.644C71.2841 15.644 71.1277 15.62 70.9971 15.572C70.8665 15.548 70.735 15.5001 70.6568 15.4041C70.5529 15.3321 70.4738 15.2361 70.3956 15.1402C70.3431 15.0202 70.3174 14.9002 70.3174 14.7562C70.3174 14.5643 70.3698 14.3963 70.448 14.2764C70.5529 14.1324 70.6835 14.0364 70.8398 13.9404C70.9971 13.8684 71.1802 13.8205 71.4147 13.7725C71.6244 13.7485 71.859 13.7245 72.0945 13.7245L72.5387 13.7245L72.5387 13.6045C72.5387 13.5325 72.5387 13.4366 72.4863 13.3645C72.4606 13.2926 72.4081 13.2206 72.3557 13.1726C72.3042 13.1006 72.1993 13.0526 72.1211 13.0286C72.0163 12.9807 71.9114 12.9807 71.7808 12.9807C71.6502 12.9807 71.5453 12.9807 71.4672 13.0046C71.3623 13.0286 71.2841 13.0526 71.2317 13.0766C71.1535 13.1006 71.0753 13.1486 71.0229 13.1966C70.9704 13.2206 70.918 13.2686 70.8398 13.3166L70.4737 12.9567ZM72.2251 14.1324C72.0687 14.1324 71.9114 14.1324 71.7808 14.1564C71.6244 14.1803 71.4938 14.2043 71.3623 14.2524C71.2317 14.2764 71.1277 14.3483 71.0486 14.4203C70.9705 14.4923 70.918 14.5883 70.918 14.7082C70.918 14.8762 70.9971 14.9962 71.1277 15.0681C71.2317 15.1402 71.4147 15.1882 71.6244 15.1882C71.7808 15.1882 71.9381 15.1642 72.042 15.1162C72.1727 15.0681 72.2775 14.9962 72.33 14.9002C72.4081 14.8283 72.4606 14.7322 72.4863 14.6363C72.5388 14.5163 72.5387 14.4203 72.5387 14.3244L72.5387 14.1324L72.2251 14.1324Z" fill="black"/>
<path d="M73.6377 12.5967L74.3432 12.5967L75.3108 14.9241L76.2251 12.5967L76.8791 12.5967L75.3633 16.1958C75.3108 16.3398 75.2317 16.4598 75.1802 16.5557C75.1278 16.6517 75.0496 16.7477 74.9705 16.8197C74.8923 16.9156 74.7875 16.9636 74.6835 17.0116C74.5529 17.0356 74.4214 17.0596 74.2393 17.0596C74.1602 17.0596 74.0562 17.0596 73.9771 17.0596C73.8732 17.0356 73.7941 17.0116 73.7159 16.9876L73.7941 16.4838C73.8989 16.5078 74.0295 16.5318 74.1602 16.5318C74.2393 16.5318 74.3174 16.5318 74.3956 16.5078C74.4481 16.4838 74.5005 16.4598 74.5529 16.4117C74.6044 16.3638 74.6569 16.3158 74.6835 16.2438C74.7093 16.1958 74.736 16.1238 74.7617 16.0518L74.9705 15.5719L73.6377 12.5967Z" fill="black"/>
<path d="M77.4278 12.9567C77.6108 12.8127 77.8196 12.6927 78.0284 12.6208C78.2639 12.5487 78.4994 12.5247 78.7349 12.5247C78.9694 12.5247 79.1525 12.5487 79.3355 12.5968C79.4928 12.6448 79.6492 12.7167 79.754 12.8127C79.8589 12.9087 79.9371 13.0286 79.9895 13.1246C80.0419 13.2446 80.0677 13.3885 80.0677 13.5085L80.0677 15.0202C80.0677 15.1402 80.0677 15.2361 80.0934 15.3081C80.0934 15.4041 80.0934 15.4761 80.0934 15.572L79.5452 15.572C79.5452 15.4041 79.5452 15.2601 79.5452 15.1162L79.5186 15.1162C79.3879 15.3081 79.2316 15.4521 79.0485 15.5241C78.8388 15.596 78.63 15.644 78.3945 15.644C78.2382 15.644 78.0809 15.62 77.9503 15.572C77.8196 15.548 77.7148 15.5001 77.6108 15.4041C77.506 15.3321 77.4278 15.2361 77.3487 15.1402C77.2972 15.0202 77.2705 14.9002 77.2705 14.7562C77.2705 14.5643 77.3229 14.3963 77.4011 14.2764C77.506 14.1324 77.6366 14.0364 77.7939 13.9404C77.9503 13.8684 78.1333 13.8205 78.3688 13.7725C78.5776 13.7485 78.8131 13.7245 79.0485 13.7245L79.4928 13.7245L79.4928 13.6045C79.4928 13.5325 79.4928 13.4366 79.4404 13.3645C79.4137 13.2926 79.3622 13.2206 79.3097 13.1726C79.2573 13.1006 79.1525 13.0526 79.0743 13.0286C78.9694 12.9807 78.8655 12.9807 78.7349 12.9807C78.6042 12.9807 78.4994 12.9807 78.4212 13.0046C78.3421 13.0286 78.2382 13.0526 78.1857 13.0766C78.1075 13.1006 78.0284 13.1486 77.976 13.1966C77.9245 13.2206 77.8721 13.2686 77.8196 13.3166L77.4278 12.9567ZM79.1791 14.1324C79.0218 14.1324 78.8655 14.1324 78.7349 14.1564C78.5776 14.1803 78.447 14.2043 78.3163 14.2524C78.1857 14.2764 78.0809 14.3483 78.0027 14.4203C77.9245 14.4923 77.8721 14.5883 77.8721 14.7082C77.8721 14.8762 77.9503 14.9962 78.0809 15.0681C78.1857 15.1402 78.3688 15.1882 78.5776 15.1882C78.7606 15.1882 78.8912 15.1642 79.0219 15.1162C79.1267 15.0681 79.2316 14.9962 79.2831 14.9002C79.3622 14.8283 79.4137 14.7322 79.4404 14.6363C79.4928 14.5163 79.4928 14.4203 79.4928 14.3244L79.4928 14.1324L79.1791 14.1324Z" fill="black"/>
<path d="M80.956 12.597L81.5834 12.597L81.5834 13.0529C81.6358 12.9809 81.6882 12.9089 81.7664 12.8369C81.8188 12.765 81.897 12.7169 81.9761 12.6689C82.0801 12.621 82.1583 12.597 82.2631 12.549C82.368 12.525 82.4719 12.525 82.5768 12.525C82.655 12.525 82.7598 12.525 82.838 12.549L82.8122 13.1728C82.7598 13.1489 82.7074 13.1489 82.655 13.1249C82.6034 13.1249 82.551 13.1249 82.4986 13.1249C82.2107 13.1249 81.9761 13.1968 81.8188 13.3408C81.6625 13.5087 81.5834 13.7487 81.5834 14.0846L81.5834 15.5723L80.9561 15.5723L80.956 12.597Z" fill="black"/>
<path d="M83.518 12.9567C83.6753 12.8127 83.8841 12.6927 84.1196 12.6208C84.3284 12.5487 84.5638 12.5247 84.7993 12.5247C85.0348 12.5247 85.2169 12.5487 85.4 12.5968C85.583 12.6448 85.7136 12.7167 85.8185 12.8127C85.9233 12.9087 86.0015 13.0286 86.0539 13.1246C86.1064 13.2446 86.1321 13.3885 86.1321 13.5085L86.1321 15.0202C86.1321 15.1402 86.1321 15.2361 86.1588 15.3081C86.1588 15.4041 86.1588 15.4761 86.1588 15.572L85.6354 15.572C85.6097 15.4041 85.6097 15.2601 85.6097 15.1162L85.583 15.1162C85.4524 15.3081 85.296 15.4521 85.113 15.5241C84.9299 15.596 84.6945 15.644 84.459 15.644C84.3026 15.644 84.172 15.62 84.0147 15.572C83.8841 15.548 83.7792 15.5001 83.6753 15.4041C83.5704 15.3321 83.4922 15.2361 83.4141 15.1402C83.3616 15.0202 83.335 14.9002 83.335 14.7562C83.335 14.5643 83.3874 14.3963 83.4656 14.2764C83.5704 14.1324 83.701 14.0364 83.8583 13.9404C84.0147 13.8684 84.1977 13.8205 84.4332 13.7725C84.642 13.7485 84.8775 13.7245 85.113 13.7245L85.5572 13.7245L85.5572 13.6045C85.5572 13.5325 85.5572 13.4366 85.5315 13.3645C85.4791 13.2926 85.4524 13.2206 85.3742 13.1726C85.3218 13.1006 85.2436 13.0526 85.1387 13.0286C85.0348 12.9807 84.9299 12.9807 84.7993 12.9807C84.6687 12.9807 84.5638 12.9807 84.4857 13.0046C84.4065 13.0286 84.3284 13.0526 84.2502 13.0766C84.172 13.1006 84.0929 13.1486 84.0414 13.1966C83.9889 13.2206 83.9365 13.2686 83.8841 13.3166L83.518 12.9567ZM85.2436 14.1324C85.0863 14.1324 84.9557 14.1324 84.7993 14.1564C84.642 14.1803 84.5114 14.2043 84.3808 14.2524C84.2502 14.2764 84.1453 14.3483 84.0671 14.4203C83.9889 14.4923 83.9623 14.5883 83.9623 14.7082C83.9623 14.8762 84.0147 14.9962 84.1453 15.0681C84.2759 15.1402 84.4332 15.1882 84.642 15.1882C84.8251 15.1882 84.9557 15.1642 85.0863 15.1162C85.1912 15.0681 85.296 14.9962 85.3742 14.9002C85.4266 14.8283 85.4791 14.7322 85.5315 14.6363C85.5572 14.5163 85.5572 14.4203 85.5572 14.3244L85.5572 14.1324L85.2436 14.1324Z" fill="black"/>
<path d="M87.0469 12.597L87.6475 12.597L87.6475 13.0529L87.6742 13.0529C87.7524 12.8849 87.883 12.765 88.066 12.6689C88.2491 12.573 88.4845 12.525 88.72 12.525C88.8764 12.525 89.0337 12.549 89.1643 12.573C89.3207 12.621 89.4513 12.6929 89.5561 12.789C89.661 12.8849 89.7392 13.0049 89.8174 13.1489C89.8698 13.2928 89.8956 13.4608 89.8956 13.6528L89.8956 15.5723L89.2949 15.5723L89.2949 13.8207C89.2949 13.6767 89.2682 13.5567 89.2167 13.4608C89.1901 13.3648 89.1376 13.2688 89.0594 13.2208C88.9813 13.1489 88.9031 13.1249 88.824 13.0769C88.7458 13.0529 88.6409 13.0529 88.5627 13.0529C88.4321 13.0529 88.3015 13.0529 88.1966 13.1009C88.0927 13.1489 87.9878 13.1968 87.9097 13.2688C87.8306 13.3648 87.7524 13.4608 87.7266 13.5808C87.6742 13.7247 87.6475 13.8687 87.6475 14.0366L87.6475 15.5723L87.0469 15.5723L87.0469 12.597Z" fill="black"/>
<path d="M92.874 11.1336L93.7386 11.1336L96.4061 14.7805L96.4337 14.7805L96.4337 11.1336L97.0868 11.1336L97.0868 15.5723L96.2498 15.5723L93.5547 11.9252L93.5271 11.9252L93.5271 15.5723L92.874 15.5723L92.874 11.1336Z" fill="black"/>
<path d="M98.182 12.9567C98.3384 12.8127 98.5499 12.6927 98.7799 12.6208C98.9914 12.5487 99.2306 12.5247 99.4606 12.5247C99.6997 12.5247 99.9113 12.5487 100.068 12.5968C100.252 12.6448 100.38 12.7167 100.482 12.8127C100.592 12.9087 100.666 13.0286 100.721 13.1246C100.767 13.2446 100.794 13.3885 100.794 13.5085L100.794 15.0202C100.794 15.1402 100.794 15.2361 100.822 15.3081C100.822 15.4041 100.822 15.4761 100.822 15.572L100.298 15.572C100.27 15.4041 100.27 15.2601 100.27 15.1162L100.252 15.1162C100.114 15.3081 99.9573 15.4521 99.7733 15.5241C99.5985 15.596 99.3594 15.644 99.1202 15.644C98.9639 15.644 98.8351 15.62 98.6787 15.572C98.5499 15.548 98.4488 15.5001 98.3384 15.4041C98.2372 15.3321 98.1544 15.2361 98.1084 15.1402C98.0256 15.0202 97.998 14.9002 97.998 14.7562C97.998 14.5643 98.0532 14.3963 98.1268 14.2764C98.2372 14.1324 98.366 14.0364 98.5223 13.9404C98.6787 13.8684 98.8627 13.8205 99.1018 13.7725C99.3042 13.7485 99.5433 13.7245 99.7733 13.7245L100.224 13.7245L100.224 13.6045C100.224 13.5325 100.224 13.4366 100.196 13.3645C100.141 13.2926 100.114 13.2206 100.04 13.1726C99.9849 13.1006 99.9113 13.0526 99.8009 13.0286C99.6997 12.9807 99.5985 12.9807 99.4606 12.9807C99.3318 12.9807 99.2582 12.9807 99.1478 13.0046C99.0742 13.0286 98.9914 13.0526 98.9179 13.0766C98.8351 13.1006 98.7799 13.1486 98.7063 13.1966C98.6511 13.2206 98.6051 13.2686 98.5499 13.3166L98.182 12.9567ZM99.9113 14.1324C99.7549 14.1324 99.6169 14.1324 99.4606 14.1564C99.3042 14.1803 99.1754 14.2043 99.0466 14.2524C98.9179 14.2764 98.8075 14.3483 98.7339 14.4203C98.6511 14.4923 98.6235 14.5883 98.6235 14.7082C98.6235 14.8762 98.6787 14.9962 98.8075 15.0681C98.9455 15.1402 99.1018 15.1882 99.3042 15.1882C99.4882 15.1882 99.6169 15.1642 99.7549 15.1162C99.8561 15.0681 99.9573 14.9962 100.04 14.9002C100.095 14.8283 100.141 14.7322 100.196 14.6363C100.224 14.5163 100.224 14.4203 100.224 14.3244L100.224 14.1324L99.9113 14.1324Z" fill="black"/>
<path d="M103.416 13.3405C103.36 13.2446 103.25 13.1966 103.149 13.1246C103.048 13.0766 102.919 13.0526 102.753 13.0526C102.624 13.0526 102.496 13.0766 102.395 13.1246C102.284 13.1966 102.211 13.2686 102.211 13.3885C102.211 13.4606 102.257 13.5325 102.312 13.5805C102.367 13.6525 102.441 13.6765 102.523 13.7245C102.624 13.7485 102.707 13.7725 102.808 13.7965C102.891 13.8205 102.965 13.8205 103.048 13.8444C103.176 13.8684 103.305 13.9164 103.416 13.9404C103.544 13.9885 103.645 14.0364 103.728 14.1084C103.802 14.1803 103.885 14.2524 103.903 14.3483C103.958 14.4443 103.986 14.5643 103.986 14.7082C103.986 14.8762 103.958 15.0202 103.885 15.1402C103.802 15.2601 103.701 15.3561 103.572 15.4281C103.462 15.5001 103.305 15.548 103.149 15.596C102.992 15.62 102.836 15.644 102.68 15.644C102.422 15.644 102.183 15.596 101.971 15.5241C101.76 15.4521 101.585 15.3081 101.429 15.1162L101.898 14.7562C101.999 14.8523 102.1 14.9242 102.238 14.9962C102.339 15.0681 102.496 15.1162 102.68 15.1162C102.753 15.1162 102.836 15.1162 102.919 15.0922C102.992 15.0681 103.075 15.0441 103.121 15.0202C103.176 14.9962 103.232 14.9482 103.278 14.9002C103.305 14.8523 103.333 14.8042 103.333 14.7322C103.333 14.6603 103.305 14.5883 103.25 14.5403C103.204 14.4683 103.121 14.4443 103.048 14.3963C102.965 14.3723 102.891 14.3483 102.781 14.3244C102.707 14.3004 102.624 14.3004 102.551 14.2764C102.422 14.2524 102.284 14.2283 102.183 14.1803C102.054 14.1324 101.944 14.0844 101.87 14.0364C101.76 13.9644 101.714 13.8924 101.659 13.7965C101.585 13.7005 101.557 13.5805 101.557 13.4366C101.557 13.2686 101.603 13.1486 101.659 13.0286C101.741 12.9087 101.843 12.8127 101.944 12.7407C102.082 12.6687 102.211 12.6208 102.339 12.5728C102.496 12.5487 102.652 12.5247 102.781 12.5247C103.02 12.5247 103.232 12.5487 103.416 12.6208C103.618 12.7167 103.774 12.8367 103.903 13.0046L103.416 13.3405Z" fill="black"/>
<path d="M104.639 11.5412C104.639 11.4212 104.694 11.3253 104.767 11.2295C104.85 11.1574 104.951 11.109 105.08 11.109C105.218 11.109 105.319 11.1574 105.393 11.2295C105.503 11.3253 105.531 11.4212 105.531 11.5412C105.531 11.6372 105.503 11.7332 105.393 11.8291C105.319 11.9012 105.218 11.9492 105.08 11.9492C104.951 11.9492 104.85 11.9012 104.767 11.8291C104.694 11.7332 104.639 11.6372 104.639 11.5412ZM104.767 12.597L105.393 12.597L105.393 15.5723L104.767 15.5723L104.767 12.597Z" fill="black"/>
<path d="M106.212 14.0844C106.212 13.8684 106.258 13.6525 106.341 13.4606C106.442 13.2926 106.552 13.1246 106.709 12.9807C106.865 12.8367 107.049 12.7167 107.251 12.6448C107.463 12.5487 107.702 12.5247 107.932 12.5247C108.171 12.5247 108.401 12.5487 108.613 12.6448C108.824 12.7167 109.008 12.8367 109.165 12.9807C109.321 13.1246 109.422 13.2926 109.532 13.4606C109.606 13.6525 109.661 13.8684 109.661 14.0844C109.661 14.3004 109.606 14.4923 109.532 14.6842C109.422 14.8762 109.321 15.0441 109.165 15.1882C109.008 15.3321 108.824 15.4281 108.613 15.5241C108.401 15.596 108.171 15.644 107.932 15.644C107.702 15.644 107.463 15.596 107.251 15.5241C107.049 15.4281 106.865 15.3321 106.709 15.1882C106.552 15.0441 106.442 14.8762 106.341 14.6842C106.258 14.4923 106.212 14.3004 106.212 14.0844ZM106.865 14.0844C106.865 14.2283 106.883 14.3723 106.939 14.4923C106.994 14.6123 107.067 14.7322 107.15 14.8282C107.251 14.9002 107.362 14.9722 107.49 15.0441C107.619 15.0922 107.776 15.1162 107.932 15.1162C108.088 15.1162 108.245 15.0922 108.373 15.0441C108.511 14.9722 108.613 14.9002 108.714 14.8283C108.797 14.7322 108.87 14.6123 108.925 14.4923C108.981 14.3723 109.008 14.2283 109.008 14.0844C109.008 13.9404 108.981 13.7965 108.925 13.6525C108.87 13.5325 108.797 13.4366 108.714 13.3405C108.613 13.2446 108.511 13.1726 108.373 13.1246C108.245 13.0766 108.088 13.0526 107.932 13.0526C107.776 13.0526 107.619 13.0766 107.49 13.1246C107.362 13.1726 107.251 13.2446 107.15 13.3405C107.067 13.4366 106.994 13.5325 106.939 13.6525C106.883 13.7965 106.865 13.9404 106.865 14.0844Z" fill="black"/>
<path d="M110.416 12.597L111.041 12.597L111.041 13.0529C111.124 12.8849 111.253 12.765 111.465 12.6689C111.649 12.573 111.851 12.525 112.118 12.525C112.274 12.525 112.43 12.549 112.559 12.573C112.716 12.621 112.826 12.6929 112.955 12.789C113.056 12.8849 113.139 13.0049 113.185 13.1489C113.267 13.2928 113.295 13.4608 113.295 13.6528L113.295 15.5723L112.67 15.5723L112.67 13.8207C112.67 13.6767 112.67 13.5567 112.614 13.4608C112.587 13.3648 112.504 13.2688 112.458 13.2208C112.375 13.1489 112.302 13.1249 112.219 13.0769C112.118 13.0529 112.035 13.0529 111.934 13.0529C111.805 13.0529 111.695 13.0529 111.593 13.1009C111.492 13.1489 111.382 13.1968 111.308 13.2688C111.225 13.3648 111.152 13.4608 111.097 13.5808C111.069 13.7247 111.041 13.8687 111.041 14.0366L111.041 15.5723L110.416 15.5723L110.416 12.597Z" fill="black"/>
<path d="M114.233 12.9567C114.417 12.8127 114.601 12.6927 114.831 12.6208C115.07 12.5487 115.281 12.5247 115.511 12.5247C115.75 12.5247 115.962 12.5487 116.118 12.5968C116.302 12.6448 116.431 12.7167 116.56 12.8127C116.661 12.9087 116.744 13.0286 116.799 13.1246C116.845 13.2446 116.873 13.3885 116.873 13.5085L116.873 15.0202C116.873 15.1402 116.873 15.2361 116.873 15.3081C116.873 15.4041 116.873 15.4761 116.9 15.572L116.348 15.572C116.321 15.4041 116.321 15.2601 116.321 15.1162C116.164 15.3081 116.008 15.4521 115.824 15.5241C115.649 15.596 115.438 15.644 115.171 15.644C115.042 15.644 114.886 15.62 114.757 15.572C114.628 15.548 114.49 15.5001 114.389 15.4041C114.288 15.3321 114.205 15.2361 114.159 15.1402C114.104 15.0202 114.049 14.9002 114.049 14.7562C114.049 14.5643 114.104 14.3963 114.205 14.2764C114.288 14.1324 114.417 14.0364 114.573 13.9404C114.757 13.8684 114.941 13.8205 115.153 13.7725C115.355 13.7485 115.594 13.7245 115.852 13.7245L116.302 13.7245L116.302 13.6045C116.302 13.5325 116.275 13.4366 116.247 13.3645C116.22 13.2926 116.164 13.2206 116.118 13.1726C116.036 13.1006 115.962 13.0526 115.852 13.0286C115.778 12.9807 115.649 12.9807 115.511 12.9807C115.41 12.9807 115.309 12.9807 115.199 13.0046C115.125 13.0286 115.042 13.0526 114.969 13.0766C114.886 13.1006 114.831 13.1486 114.785 13.1966C114.702 13.2206 114.656 13.2686 114.601 13.3166L114.233 12.9567ZM115.962 14.1324C115.824 14.1324 115.668 14.1324 115.511 14.1564C115.355 14.1803 115.226 14.2043 115.097 14.2524C114.969 14.2764 114.886 14.3483 114.812 14.4203C114.702 14.4923 114.674 14.5883 114.674 14.7082C114.674 14.8762 114.729 14.9962 114.858 15.0681C114.987 15.1402 115.153 15.1882 115.383 15.1882C115.539 15.1882 115.695 15.1642 115.806 15.1162C115.934 15.0681 116.008 14.9962 116.091 14.9002C116.164 14.8283 116.22 14.7322 116.247 14.6363C116.275 14.5163 116.302 14.4203 116.302 14.3244L116.302 14.1324L115.962 14.1324Z" fill="black"/>
<path d="M117.811 15.5723L118.412 15.5723L118.412 10.8214L117.811 10.8214L117.811 15.5723Z" fill="black"/>
</g>
</svg>
