<svg width="48" height="16" viewBox="0 0 48 16" fill="none" xmlns="http://www.w3.org/2000/svg">
<path fill-rule="evenodd" clip-rule="evenodd" d="M12.0005 15.8755H7.8464L4.73134 3.46316C4.58348 2.89219 4.26955 2.38743 3.80775 2.14952C2.6553 1.55166 1.38537 1.07586 0 0.835883V0.358008H6.69192C7.61551 0.358008 8.30819 1.07586 8.42364 1.90955L10.0399 10.863L14.192 0.358008H18.2306L12.0005 15.8755ZM20.5396 15.8755H16.6164L19.8469 0.358008H23.7701L20.5396 15.8755ZM28.8457 4.6567C28.9611 3.82093 29.6538 3.34306 30.462 3.34306C31.7319 3.22307 33.1152 3.46304 34.2697 4.05884L34.9624 0.717847C33.8079 0.239972 32.538 0 31.3855 0C27.5778 0 24.807 2.1494 24.807 5.1325C24.807 7.40189 26.7696 8.59348 28.155 9.31133C29.6538 10.0271 30.2311 10.505 30.1156 11.2208C30.1156 12.2944 28.9611 12.7723 27.8087 12.7723C26.4233 12.7723 25.0379 12.4144 23.77 11.8166L23.0773 15.1596C24.4627 15.7554 25.9615 15.9954 27.3469 15.9954C31.6164 16.1133 34.2697 13.966 34.2697 10.7429C34.2697 6.68405 28.8457 6.44614 28.8457 4.6567ZM47.9999 15.8755L44.8849 0.358008H41.5389C40.8462 0.358008 40.1535 0.835883 39.9226 1.55166L34.1543 15.8755H38.1929L38.9991 13.6082H43.9613L44.4231 15.8755H47.9999ZM42.1161 4.53672L43.2686 10.385H40.0381L42.1161 4.53672Z" fill="#172B85"/>
</svg>
