<svg width="80" height="80" viewBox="0 0 80 80" fill="none" xmlns="http://www.w3.org/2000/svg">
<g filter="url(#filter0_d_693_4758)">
<g clip-path="url(#clip0_693_4758)">
<rect x="8" y="8" width="64" height="64" rx="32" fill="#FFFBEB"/>
<line x1="24.5" y1="8" x2="24.5" y2="72" stroke="#C39F0E" stroke-opacity="0.5"/>
<line x1="72" y1="24.5" x2="8" y2="24.5" stroke="#C39F0E" stroke-opacity="0.5"/>
<line x1="72" y1="56.5" x2="8" y2="56.5" stroke="#C39F0E" stroke-opacity="0.5"/>
<line x1="55.5" y1="8" x2="55.5" y2="72" stroke="#C39F0E" stroke-opacity="0.5"/>
<rect x="24.5" y="24.5" width="31" height="57" rx="3.5" fill="white"/>
<rect x="24.5" y="24.5" width="31" height="57" rx="3.5" stroke="#1976E4"/>
<rect x="28" y="28" width="24" height="24" rx="12" fill="#E4F0FF"/>
<path d="M40.0002 33.3333C36.3202 33.3333 33.3335 36.3199 33.3335 39.9999C33.3335 43.6799 36.3202 46.6666 40.0002 46.6666C43.6802 46.6666 46.6668 43.6799 46.6668 39.9999C46.6668 36.3199 43.6802 33.3333 40.0002 33.3333ZM38.1935 42.8599L35.8002 40.4666C35.5402 40.2066 35.5402 39.7866 35.8002 39.5266C36.0602 39.2666 36.4802 39.2666 36.7402 39.5266L38.6668 41.4466L43.2535 36.8599C43.5135 36.5999 43.9335 36.5999 44.1935 36.8599C44.4535 37.1199 44.4535 37.5399 44.1935 37.7999L39.1335 42.8599C38.8802 43.1199 38.4535 43.1199 38.1935 42.8599Z" fill="#1976E4" fill-opacity="0.5"/>
<rect x="28" y="58" width="24" height="2" rx="1" fill="#7FB3F1"/>
<rect x="60.5" y="34.5" width="31" height="57" rx="3.5" fill="white"/>
<rect x="60.5" y="34.5" width="31" height="57" rx="3.5" stroke="#1976E4"/>
<rect x="64" y="38" width="24" height="24" rx="12" fill="#E4F0FF"/>
<path d="M76.0002 43.3333C72.3202 43.3333 69.3335 46.3199 69.3335 49.9999C69.3335 53.6799 72.3202 56.6666 76.0002 56.6666C79.6802 56.6666 82.6668 53.6799 82.6668 49.9999C82.6668 46.3199 79.6802 43.3333 76.0002 43.3333ZM74.1935 52.8599L71.8002 50.4666C71.5402 50.2066 71.5402 49.7866 71.8002 49.5266C72.0602 49.2666 72.4802 49.2666 72.7402 49.5266L74.6668 51.4466L79.2535 46.8599C79.5135 46.5999 79.9335 46.5999 80.1935 46.8599C80.4535 47.1199 80.4535 47.5399 80.1935 47.7999L75.1335 52.8599C74.8802 53.1199 74.4535 53.1199 74.1935 52.8599Z" fill="#1976E4" fill-opacity="0.5"/>
<rect x="64" y="68" width="24" height="2" rx="1" fill="#7FB3F1"/>
<rect x="-11.5" y="34.5" width="31" height="57" rx="3.5" fill="white"/>
<rect x="-11.5" y="34.5" width="31" height="57" rx="3.5" stroke="#1976E4"/>
<rect x="-8" y="38" width="24" height="24" rx="12" fill="#E4F0FF"/>
<path d="M4.00016 43.3333C0.320163 43.3333 -2.6665 46.3199 -2.6665 49.9999C-2.6665 53.6799 0.320163 56.6666 4.00016 56.6666C7.68016 56.6666 10.6668 53.6799 10.6668 49.9999C10.6668 46.3199 7.68016 43.3333 4.00016 43.3333ZM2.1935 52.8599L-0.199837 50.4666C-0.459837 50.2066 -0.459837 49.7866 -0.199837 49.5266C0.0601628 49.2666 0.480163 49.2666 0.740163 49.5266L2.66683 51.4466L7.2535 46.8599C7.5135 46.5999 7.9335 46.5999 8.1935 46.8599C8.4535 47.1199 8.4535 47.5399 8.1935 47.7999L3.1335 52.8599C2.88016 53.1199 2.4535 53.1199 2.1935 52.8599Z" fill="#1976E4" fill-opacity="0.5"/>
<rect x="-8" y="68" width="24" height="2" rx="1" fill="#7FB3F1"/>
<g filter="url(#filter1_d_693_4758)">
<path d="M22.9998 41.5195L27.1498 44.0295C27.9098 44.4895 28.8398 43.8095 28.6398 42.9495L27.5398 38.2295L31.2098 35.0495C31.8798 34.4695 31.5198 33.3695 30.6398 33.2995L25.8098 32.8895L23.9198 28.4295C23.5798 27.6195 22.4198 27.6195 22.0798 28.4295L20.1898 32.8795L15.3598 33.2895C14.4798 33.3595 14.1198 34.4595 14.7898 35.0395L18.4598 38.2195L17.3598 42.9395C17.1598 43.7995 18.0898 44.4795 18.8498 44.0195L22.9998 41.5195Z" fill="#1976E4"/>
<path d="M29.1268 42.836L29.1268 42.8363C29.4265 44.125 28.0314 45.1474 26.8911 44.4574C26.891 44.4573 26.891 44.4573 26.8909 44.4573L22.9993 42.1035L19.1087 44.4473L29.1268 42.836ZM29.1268 42.836L28.0953 38.4098L31.5371 35.4276C31.5371 35.4275 31.5372 35.4275 31.5373 35.4274C32.5399 34.5592 32.0049 32.9077 30.6809 32.8012C30.6804 32.8012 30.6799 32.8011 30.6795 32.8011L26.1526 32.4168L24.3809 28.236C24.3808 28.2358 24.3807 28.2356 24.3806 28.2354C23.8689 27.0177 22.1312 27.0176 21.6192 28.2349C21.6191 28.2353 21.6189 28.2356 21.6188 28.236L19.8474 32.4068L15.3202 32.7911C15.3197 32.7911 15.3192 32.7912 15.3188 32.7912C13.9948 32.8977 13.4597 34.5492 14.4624 35.4174C14.4625 35.4175 14.4625 35.4175 14.4626 35.4176L17.9044 38.3998L16.8729 42.826L16.8728 42.8263M29.1268 42.836L16.8728 42.8263M16.8728 42.8263C16.5732 44.1147 17.9676 45.137 19.1078 44.4478L16.8728 42.8263Z" stroke="white"/>
</g>
<g filter="url(#filter2_d_693_4758)">
<path d="M55.9999 25.5996L59.4583 27.6913C60.0916 28.0746 60.8666 27.508 60.6999 26.7913L59.7833 22.858L62.8416 20.208C63.3999 19.7246 63.0999 18.808 62.3666 18.7496L58.3416 18.408L56.7666 14.6913C56.4833 14.0163 55.5166 14.0163 55.2333 14.6913L53.6583 18.3996L49.6333 18.7413C48.8999 18.7996 48.5999 19.7163 49.1583 20.1996L52.2166 22.8496L51.2999 26.783C51.1333 27.4996 51.9083 28.0663 52.5416 27.683L55.9999 25.5996Z" fill="#1976E4"/>
<path d="M61.1869 26.6778L61.1869 26.6781C61.4533 27.8234 60.2132 28.7325 59.1995 28.1191C59.1995 28.1191 59.1994 28.1191 59.1994 28.1191L55.9994 26.1837L52.8005 28.1107C52.8003 28.1108 52.8001 28.111 52.7999 28.1111C51.7863 28.7239 50.5466 27.8149 50.8129 26.6697L50.813 26.6695L51.6612 23.03L48.831 20.5777C48.831 20.5776 48.8309 20.5776 48.8308 20.5775C47.9398 19.806 48.4149 18.3378 49.5922 18.243C49.5927 18.243 49.5931 18.2429 49.5936 18.2429L53.3158 17.9269L54.7722 14.4978C54.7724 14.4975 54.7725 14.4971 54.7726 14.4968C55.2279 13.4144 56.7723 13.4145 57.2274 14.4971C57.2274 14.4973 57.2275 14.4976 57.2276 14.4978L58.6843 17.9353L62.4063 18.2512C62.4067 18.2513 62.4072 18.2513 62.4077 18.2513C63.5851 18.3461 64.0601 19.8145 63.1689 20.586M61.1869 26.6778L62.8416 20.208M61.1869 26.6778L60.3387 23.0383M61.1869 26.6778L59.7833 22.858M63.1689 20.586L62.8416 20.208M63.1689 20.586L63.169 20.5859L62.8416 20.208M63.1689 20.586L60.3387 23.0383M62.8416 20.208L59.7833 22.858M60.3387 23.0383L60.2702 22.7445L59.7833 22.858M60.3387 23.0383L60.1107 23.2359L59.7833 22.858" stroke="white"/>
</g>
</g>
<rect x="10" y="10" width="60" height="60" rx="30" stroke="white" stroke-width="4"/>
</g>
<defs>
<filter id="filter0_d_693_4758" x="0" y="0" width="80" height="80" filterUnits="userSpaceOnUse" color-interpolation-filters="sRGB">
<feFlood flood-opacity="0" result="BackgroundImageFix"/>
<feColorMatrix in="SourceAlpha" type="matrix" values="0 0 0 0 0 0 0 0 0 0 0 0 0 0 0 0 0 0 127 0" result="hardAlpha"/>
<feOffset/>
<feGaussianBlur stdDeviation="4"/>
<feComposite in2="hardAlpha" operator="out"/>
<feColorMatrix type="matrix" values="0 0 0 0 0 0 0 0 0 0 0 0 0 0 0 0 0 0 0.08 0"/>
<feBlend mode="normal" in2="BackgroundImageFix" result="effect1_dropShadow_693_4758"/>
<feBlend mode="normal" in="SourceGraphic" in2="effect1_dropShadow_693_4758" result="shape"/>
</filter>
<filter id="filter1_d_693_4758" x="12.4419" y="25.822" width="21.1157" height="20.3594" filterUnits="userSpaceOnUse" color-interpolation-filters="sRGB">
<feFlood flood-opacity="0" result="BackgroundImageFix"/>
<feColorMatrix in="SourceAlpha" type="matrix" values="0 0 0 0 0 0 0 0 0 0 0 0 0 0 0 0 0 0 127 0" result="hardAlpha"/>
<feOffset/>
<feGaussianBlur stdDeviation="0.5"/>
<feComposite in2="hardAlpha" operator="out"/>
<feColorMatrix type="matrix" values="0 0 0 0 0 0 0 0 0 0 0 0 0 0 0 0 0 0 0.25 0"/>
<feBlend mode="normal" in2="BackgroundImageFix" result="effect1_dropShadow_693_4758"/>
<feBlend mode="normal" in="SourceGraphic" in2="effect1_dropShadow_693_4758" result="shape"/>
</filter>
<filter id="filter2_d_693_4758" x="46.8682" y="12.1851" width="18.2637" height="17.6333" filterUnits="userSpaceOnUse" color-interpolation-filters="sRGB">
<feFlood flood-opacity="0" result="BackgroundImageFix"/>
<feColorMatrix in="SourceAlpha" type="matrix" values="0 0 0 0 0 0 0 0 0 0 0 0 0 0 0 0 0 0 127 0" result="hardAlpha"/>
<feOffset/>
<feGaussianBlur stdDeviation="0.5"/>
<feComposite in2="hardAlpha" operator="out"/>
<feColorMatrix type="matrix" values="0 0 0 0 0 0 0 0 0 0 0 0 0 0 0 0 0 0 0.25 0"/>
<feBlend mode="normal" in2="BackgroundImageFix" result="effect1_dropShadow_693_4758"/>
<feBlend mode="normal" in="SourceGraphic" in2="effect1_dropShadow_693_4758" result="shape"/>
</filter>
<clipPath id="clip0_693_4758">
<rect x="8" y="8" width="64" height="64" rx="32" fill="white"/>
</clipPath>
</defs>
</svg>
