<svg width="264" height="160" viewBox="0 0 264 160" fill="none" xmlns="http://www.w3.org/2000/svg">
<rect width="264" height="160" fill="white"/>
<g filter="url(#filter0_d_429_7662)">
<rect x="85" y="60" width="94" height="40" rx="4" fill="white" shape-rendering="crispEdges"/>
<rect x="85.5" y="60.5" width="93" height="39" rx="3.5" stroke="#CBCECF" shape-rendering="crispEdges"/>
<path d="M98.2 74.48H99.944V81.968C99.944 83.872 101.08 84.592 102.568 84.592C104.056 84.592 105.192 83.872 105.192 81.968V74.48H106.952V82.064C106.952 84.976 105.08 86.224 102.568 86.224C100.056 86.224 98.2 84.928 98.2 82.064V74.48ZM109.243 89.36V77.712H110.795L110.891 79.264C111.323 78.24 112.283 77.488 113.931 77.488C116.283 77.488 117.931 79.04 117.931 81.84C117.931 84.64 116.331 86.224 113.995 86.224C112.587 86.224 111.499 85.648 110.923 84.48V89.36H109.243ZM113.579 79.072C111.931 79.072 110.939 80.128 110.939 81.856C110.939 83.584 111.931 84.64 113.579 84.64C115.227 84.64 116.187 83.584 116.187 81.856C116.187 80.128 115.227 79.072 113.579 79.072ZM123.575 77.488C125.031 77.488 126.135 78.08 126.679 79.312L126.791 77.712H128.327V86.064C128.327 89.104 126.599 90.432 123.943 90.432C122.055 90.432 120.743 89.776 119.879 88.496L121.111 87.488C121.703 88.272 122.519 88.88 123.911 88.88C125.719 88.88 126.647 87.872 126.647 86.064V84.528C126.199 85.504 125.239 86.224 123.639 86.224C121.287 86.224 119.639 84.672 119.639 81.872C119.639 79.072 121.255 77.488 123.575 77.488ZM123.991 84.64C125.655 84.64 126.631 83.584 126.631 81.856C126.631 80.112 125.655 79.072 123.991 79.072C122.343 79.072 121.383 80.112 121.383 81.856C121.383 83.584 122.343 84.64 123.991 84.64ZM130.455 77.712H132.007L132.119 79.216C132.535 78.144 133.399 77.568 134.759 77.568C134.983 77.568 135.239 77.584 135.511 77.632V79.248C135.191 79.2 134.903 79.168 134.583 79.168C133.031 79.168 132.135 79.984 132.135 81.52V86H130.455V77.712ZM145.321 77.712V86H143.785L143.673 84.448C143.241 85.472 142.281 86.224 140.633 86.224C138.281 86.224 136.633 84.672 136.633 81.872C136.633 79.072 138.233 77.488 140.569 77.488C142.009 77.488 143.113 78.08 143.673 79.296L143.785 77.712H145.321ZM140.985 84.64C142.649 84.64 143.625 83.584 143.625 81.856C143.625 80.128 142.649 79.072 140.985 79.072C139.337 79.072 138.377 80.128 138.377 81.856C138.377 83.584 139.337 84.64 140.985 84.64ZM155.865 74.48V86H154.329L154.217 84.448C153.785 85.472 152.825 86.224 151.177 86.224C148.825 86.224 147.177 84.672 147.177 81.872C147.177 79.072 148.777 77.488 151.113 77.488C152.521 77.488 153.609 78.064 154.185 79.232V74.48H155.865ZM151.529 84.64C153.193 84.64 154.169 83.584 154.169 81.856C154.169 80.128 153.193 79.072 151.529 79.072C149.881 79.072 148.921 80.128 148.921 81.856C148.921 83.584 149.881 84.64 151.529 84.64ZM165.769 84.144C165.113 85.408 163.865 86.224 161.977 86.224C159.337 86.224 157.721 84.64 157.721 81.888C157.721 79.008 159.497 77.488 161.961 77.488C164.041 77.488 166.057 78.544 166.057 82.192V82.384H159.497C159.657 83.904 160.601 84.672 161.993 84.672C163.177 84.672 163.945 84.112 164.361 83.344L165.769 84.144ZM161.881 79.024C160.585 79.024 159.721 79.808 159.513 81.168H164.265C164.105 79.744 163.161 79.024 161.881 79.024Z" fill="black"/>
</g>
<g filter="url(#filter1_d_429_7662)">
<path d="M180.923 104.03C181.098 104.451 180.93 106.045 180 106.414C179.07 106.784 177.882 106.414 177.882 106.414L175.726 102.102L172 105.828V89L183.414 100.414H179.162C179.37 100.814 180.7 103.495 180.923 104.03Z" fill="white"/>
<path fill-rule="evenodd" clip-rule="evenodd" d="M173 91.4143V103.414L176 100.414L178.5 105.414C178.5 105.414 179.176 105.63 179.5 105.414C179.824 105.199 180.146 104.764 180 104.414C179.312 102.764 177.5 99.4143 177.5 99.4143H181L173 91.4143Z" fill="black"/>
</g>
<defs>
<filter id="filter0_d_429_7662" x="60" y="47" width="144" height="90" filterUnits="userSpaceOnUse" color-interpolation-filters="sRGB">
<feFlood flood-opacity="0" result="BackgroundImageFix"/>
<feColorMatrix in="SourceAlpha" type="matrix" values="0 0 0 0 0 0 0 0 0 0 0 0 0 0 0 0 0 0 127 0" result="hardAlpha"/>
<feOffset dy="12"/>
<feGaussianBlur stdDeviation="12.5"/>
<feComposite in2="hardAlpha" operator="out"/>
<feColorMatrix type="matrix" values="0 0 0 0 0 0 0 0 0 0 0 0 0 0 0 0 0 0 0.1 0"/>
<feBlend mode="normal" in2="BackgroundImageFix" result="effect1_dropShadow_429_7662"/>
<feBlend mode="normal" in="SourceGraphic" in2="effect1_dropShadow_429_7662" result="shape"/>
</filter>
<filter id="filter1_d_429_7662" x="163.2" y="85.2" width="27.6" height="27.6" filterUnits="userSpaceOnUse" color-interpolation-filters="sRGB">
<feFlood flood-opacity="0" result="BackgroundImageFix"/>
<feColorMatrix in="SourceAlpha" type="matrix" values="0 0 0 0 0 0 0 0 0 0 0 0 0 0 0 0 0 0 127 0" result="hardAlpha"/>
<feOffset dy="1"/>
<feGaussianBlur stdDeviation="0.9"/>
<feColorMatrix type="matrix" values="0 0 0 0 0 0 0 0 0 0 0 0 0 0 0 0 0 0 0.65 0"/>
<feBlend mode="normal" in2="BackgroundImageFix" result="effect1_dropShadow_429_7662"/>
<feBlend mode="normal" in="SourceGraphic" in2="effect1_dropShadow_429_7662" result="shape"/>
</filter>
</defs>
</svg>
