<svg width="264" height="160" viewBox="0 0 264 160" fill="none" xmlns="http://www.w3.org/2000/svg">
<g clip-path="url(#clip0_429_7814)">
<rect width="264" height="160" fill="white"/>
<g opacity="0.1">
<rect x="66.5" y="16.5" width="236" height="39" rx="3.5" fill="white"/>
<rect x="66.5" y="16.5" width="236" height="39" rx="3.5" stroke="#CBCECF"/>
<path d="M79.296 30.48H84.672C86.848 30.48 88.224 31.712 88.224 34.048C88.224 36.32 86.912 37.552 84.672 37.552H81.04V42H79.296V30.48ZM84.368 32.064H81.04V36.032H84.368C85.728 36.032 86.432 35.36 86.432 34.032C86.432 32.736 85.728 32.064 84.368 32.064ZM89.9614 33.712H91.5134L91.6254 35.216C92.0414 34.144 92.9054 33.568 94.2654 33.568C94.4894 33.568 94.7454 33.584 95.0174 33.632V35.248C94.6974 35.2 94.4094 35.168 94.0894 35.168C92.5374 35.168 91.6414 35.984 91.6414 37.52V42H89.9614V33.712ZM100.459 42.224C97.9634 42.224 96.1394 40.656 96.1394 37.856C96.1394 35.04 97.9954 33.488 100.459 33.488C102.923 33.488 104.779 35.04 104.779 37.856C104.779 40.656 102.955 42.224 100.459 42.224ZM100.459 40.64C101.931 40.64 103.019 39.744 103.019 37.856C103.019 35.968 101.931 35.072 100.459 35.072C98.9874 35.072 97.8834 35.968 97.8834 37.856C97.8834 39.744 98.9874 40.64 100.459 40.64ZM107.792 32.256C107.136 32.256 106.704 31.824 106.704 31.168C106.704 30.512 107.136 30.08 107.792 30.08C108.448 30.08 108.88 30.512 108.88 31.168C108.88 31.824 108.448 32.256 107.792 32.256ZM108.64 43.392C108.64 44.56 108.064 45.36 106.656 45.36C106.224 45.36 105.808 45.28 105.424 45.168V43.696L105.456 43.664C105.76 43.728 106.032 43.776 106.288 43.776C106.768 43.776 106.96 43.584 106.96 43.168V33.712H108.64V43.392ZM118.759 40.144C118.103 41.408 116.855 42.224 114.967 42.224C112.327 42.224 110.711 40.64 110.711 37.888C110.711 35.008 112.487 33.488 114.951 33.488C117.031 33.488 119.047 34.544 119.047 38.192V38.384H112.487C112.647 39.904 113.591 40.672 114.983 40.672C116.167 40.672 116.935 40.112 117.351 39.344L118.759 40.144ZM114.871 35.024C113.575 35.024 112.711 35.808 112.503 37.168H117.255C117.095 35.744 116.151 35.024 114.871 35.024ZM120.599 37.856C120.599 35.04 122.391 33.488 124.903 33.488C126.647 33.488 128.055 34.224 128.727 35.84L127.255 36.528L127.191 36.512C126.807 35.632 126.007 35.072 124.871 35.072C123.431 35.072 122.343 36 122.343 37.856C122.343 39.712 123.431 40.64 124.871 40.64C125.991 40.64 126.807 40.096 127.191 39.2L127.255 39.184L128.727 39.872C128.071 41.488 126.647 42.224 124.903 42.224C122.391 42.224 120.599 40.656 120.599 37.856ZM129.566 33.712H131.182V31.856L132.862 31.44V33.712H134.942V35.216H132.862V39.536C132.862 40.304 133.262 40.608 133.934 40.608C134.19 40.608 134.59 40.576 135.118 40.48V42C134.638 42.112 134.142 42.208 133.63 42.208C132.062 42.208 131.182 41.376 131.182 39.744V35.216H129.566V33.712ZM146.546 42H144.466L140.722 30.48H142.562L145.506 39.712L148.434 30.48H150.514L153.474 39.712L156.386 30.48H158.226L154.482 42H152.402L149.458 32.784L146.546 42ZM166.634 40.144C165.978 41.408 164.73 42.224 162.842 42.224C160.202 42.224 158.586 40.64 158.586 37.888C158.586 35.008 160.362 33.488 162.826 33.488C164.906 33.488 166.922 34.544 166.922 38.192V38.384H160.362C160.522 39.904 161.466 40.672 162.858 40.672C164.042 40.672 164.81 40.112 165.226 39.344L166.634 40.144ZM162.746 35.024C161.45 35.024 160.586 35.808 160.378 37.168H165.13C164.97 35.744 164.026 35.024 162.746 35.024ZM168.842 30.48H170.522V35.232C171.098 34.064 172.186 33.488 173.594 33.488C175.93 33.488 177.53 35.072 177.53 37.872C177.53 40.672 175.882 42.224 173.53 42.224C171.882 42.224 170.922 41.472 170.49 40.448L170.394 42H168.842V30.48ZM173.178 40.64C174.826 40.64 175.786 39.584 175.786 37.856C175.786 36.128 174.826 35.072 173.178 35.072C171.53 35.072 170.538 36.128 170.538 37.856C170.538 39.584 171.53 40.64 173.178 40.64ZM184.305 30.48H188.689C192.273 30.48 194.545 32.528 194.545 36.24C194.545 40 192.273 42 188.689 42H184.305V30.48ZM188.689 32.064H186.049V40.432H188.689C191.025 40.432 192.753 39.088 192.753 36.24C192.753 33.408 191.041 32.064 188.689 32.064ZM204.372 40.144C203.716 41.408 202.468 42.224 200.58 42.224C197.94 42.224 196.324 40.64 196.324 37.888C196.324 35.008 198.1 33.488 200.564 33.488C202.644 33.488 204.66 34.544 204.66 38.192V38.384H198.1C198.26 39.904 199.204 40.672 200.596 40.672C201.78 40.672 202.548 40.112 202.964 39.344L204.372 40.144ZM200.484 35.024C199.188 35.024 198.324 35.808 198.116 37.168H202.868C202.708 35.744 201.764 35.024 200.484 35.024ZM205.433 33.712H207.225L209.689 40.288L212.137 33.712H213.929L210.713 42H208.649L205.433 33.712ZM222.787 40.144C222.131 41.408 220.883 42.224 218.995 42.224C216.355 42.224 214.739 40.64 214.739 37.888C214.739 35.008 216.515 33.488 218.979 33.488C221.059 33.488 223.075 34.544 223.075 38.192V38.384H216.515C216.675 39.904 217.619 40.672 219.011 40.672C220.195 40.672 220.963 40.112 221.379 39.344L222.787 40.144ZM218.899 35.024C217.603 35.024 216.739 35.808 216.531 37.168H221.283C221.123 35.744 220.179 35.024 218.899 35.024ZM224.995 30.48H226.675V40.064C226.675 40.48 226.867 40.64 227.331 40.64C227.491 40.64 227.715 40.624 228.003 40.544L228.051 40.592V42.032C227.747 42.144 227.363 42.224 226.947 42.224C225.683 42.224 224.995 41.488 224.995 40.272V30.48ZM233.6 42.224C231.104 42.224 229.28 40.656 229.28 37.856C229.28 35.04 231.136 33.488 233.6 33.488C236.064 33.488 237.92 35.04 237.92 37.856C237.92 40.656 236.096 42.224 233.6 42.224ZM233.6 40.64C235.072 40.64 236.16 39.744 236.16 37.856C236.16 35.968 235.072 35.072 233.6 35.072C232.128 35.072 231.024 35.968 231.024 37.856C231.024 39.744 232.128 40.64 233.6 40.64ZM239.893 45.36V33.712H241.445L241.541 35.264C241.973 34.24 242.933 33.488 244.581 33.488C246.933 33.488 248.581 35.04 248.581 37.84C248.581 40.64 246.981 42.224 244.645 42.224C243.237 42.224 242.149 41.648 241.573 40.48V45.36H239.893ZM244.229 35.072C242.581 35.072 241.589 36.128 241.589 37.856C241.589 39.584 242.581 40.64 244.229 40.64C245.877 40.64 246.837 39.584 246.837 37.856C246.837 36.128 245.877 35.072 244.229 35.072ZM250.561 33.712H252.113L252.225 35.2C252.657 34.112 253.537 33.488 254.897 33.488C256.241 33.488 257.233 34.096 257.665 35.328C258.065 34.16 259.041 33.488 260.497 33.488C262.401 33.488 263.569 34.608 263.569 36.88V42H261.905V37.216C261.905 35.584 261.025 35.088 259.985 35.088C258.625 35.088 257.905 35.952 257.905 37.296V42H256.225V37.216C256.225 35.584 255.361 35.088 254.321 35.088C252.961 35.088 252.241 35.952 252.241 37.296V42H250.561V33.712ZM273.475 40.144C272.819 41.408 271.571 42.224 269.683 42.224C267.043 42.224 265.427 40.64 265.427 37.888C265.427 35.008 267.203 33.488 269.667 33.488C271.747 33.488 273.763 34.544 273.763 38.192V38.384H267.203C267.363 39.904 268.307 40.672 269.699 40.672C270.883 40.672 271.651 40.112 272.067 39.344L273.475 40.144ZM269.587 35.024C268.291 35.024 267.427 35.808 267.219 37.168H271.971C271.811 35.744 270.867 35.024 269.587 35.024ZM275.586 33.712H277.138L277.25 35.312C277.698 34.16 278.626 33.488 280.098 33.488C282.018 33.488 283.282 34.656 283.282 36.928V42H281.602V37.264C281.602 35.648 280.754 35.088 279.57 35.088C278.082 35.088 277.266 35.984 277.266 37.632V42H275.586V33.712ZM284.547 33.712H286.163V31.856L287.843 31.44V33.712H289.923V35.216H287.843V39.536C287.843 40.304 288.243 40.608 288.915 40.608C289.171 40.608 289.571 40.576 290.099 40.48V42C289.619 42.112 289.123 42.208 288.611 42.208C287.043 42.208 286.163 41.376 286.163 39.744V35.216H284.547V33.712Z" fill="black"/>
</g>
<g opacity="0.1">
<rect x="51.5" y="120.5" width="162" height="39" rx="3.5" fill="white"/>
<rect x="51.5" y="120.5" width="162" height="39" rx="3.5" stroke="#CBCECF"/>
<path d="M64.296 134.48H68.68C72.264 134.48 74.536 136.528 74.536 140.24C74.536 144 72.264 146 68.68 146H64.296V134.48ZM68.68 136.064H66.04V144.432H68.68C71.016 144.432 72.744 143.088 72.744 140.24C72.744 137.408 71.032 136.064 68.68 136.064ZM77.5929 136.256C76.9369 136.256 76.5049 135.824 76.5049 135.168C76.5049 134.512 76.9369 134.08 77.5929 134.08C78.2489 134.08 78.6809 134.512 78.6809 135.168C78.6809 135.824 78.2489 136.256 77.5929 136.256ZM76.7609 137.712H78.4249V146H76.7609V137.712ZM84.4504 137.488C85.9064 137.488 87.0104 138.08 87.5544 139.312L87.6664 137.712H89.2024V146.064C89.2024 149.104 87.4744 150.432 84.8184 150.432C82.9304 150.432 81.6184 149.776 80.7544 148.496L81.9864 147.488C82.5784 148.272 83.3944 148.88 84.7864 148.88C86.5944 148.88 87.5224 147.872 87.5224 146.064V144.528C87.0744 145.504 86.1144 146.224 84.5144 146.224C82.1624 146.224 80.5144 144.672 80.5144 141.872C80.5144 139.072 82.1304 137.488 84.4504 137.488ZM84.8664 144.64C86.5304 144.64 87.5064 143.584 87.5064 141.856C87.5064 140.112 86.5304 139.072 84.8664 139.072C83.2184 139.072 82.2584 140.112 82.2584 141.856C82.2584 143.584 83.2184 144.64 84.8664 144.64ZM92.2741 136.256C91.6181 136.256 91.1861 135.824 91.1861 135.168C91.1861 134.512 91.6181 134.08 92.2741 134.08C92.9301 134.08 93.3621 134.512 93.3621 135.168C93.3621 135.824 92.9301 136.256 92.2741 136.256ZM91.4421 137.712H93.1061V146H91.4421V137.712ZM94.6036 137.712H96.2196V135.856L97.8996 135.44V137.712H99.9796V139.216H97.8996V143.536C97.8996 144.304 98.2996 144.608 98.9716 144.608C99.2276 144.608 99.6276 144.576 100.156 144.48V146C99.6756 146.112 99.1796 146.208 98.6676 146.208C97.0996 146.208 96.2196 145.376 96.2196 143.744V139.216H94.6036V137.712ZM110.068 137.712V146H108.532L108.42 144.448C107.988 145.472 107.028 146.224 105.38 146.224C103.028 146.224 101.38 144.672 101.38 141.872C101.38 139.072 102.98 137.488 105.316 137.488C106.756 137.488 107.86 138.08 108.42 139.296L108.532 137.712H110.068ZM105.732 144.64C107.396 144.64 108.372 143.584 108.372 141.856C108.372 140.128 107.396 139.072 105.732 139.072C104.084 139.072 103.124 140.128 103.124 141.856C103.124 143.584 104.084 144.64 105.732 144.64ZM112.292 134.48H113.972V144.064C113.972 144.48 114.164 144.64 114.628 144.64C114.788 144.64 115.012 144.624 115.3 144.544L115.348 144.592V146.032C115.044 146.144 114.66 146.224 114.244 146.224C112.98 146.224 112.292 145.488 112.292 144.272V134.48ZM121.503 134.48H123.487L127.199 140.688L130.879 134.48H132.863V146H131.119V137.248L127.679 142.976H126.687L123.247 137.248V146H121.503V134.48ZM143.587 137.712V146H142.051L141.939 144.448C141.507 145.472 140.547 146.224 138.899 146.224C136.547 146.224 134.899 144.672 134.899 141.872C134.899 139.072 136.499 137.488 138.835 137.488C140.275 137.488 141.379 138.08 141.939 139.296L142.051 137.712H143.587ZM139.251 144.64C140.915 144.64 141.891 143.584 141.891 141.856C141.891 140.128 140.915 139.072 139.251 139.072C137.603 139.072 136.643 140.128 136.643 141.856C136.643 143.584 137.603 144.64 139.251 144.64ZM145.715 137.712H147.267L147.379 139.216C147.795 138.144 148.659 137.568 150.019 137.568C150.243 137.568 150.499 137.584 150.771 137.632V139.248C150.451 139.2 150.163 139.168 149.843 139.168C148.291 139.168 147.395 139.984 147.395 141.52V146H145.715V137.712ZM152.323 134.48H154.003V141.168L157.779 137.712H160.067L157.107 140.416L160.435 146H158.499L155.875 141.52L154.419 142.816C154.115 143.072 154.003 143.344 154.003 143.728V146H152.323V134.48ZM169.391 144.144C168.735 145.408 167.487 146.224 165.599 146.224C162.959 146.224 161.343 144.64 161.343 141.888C161.343 139.008 163.119 137.488 165.583 137.488C167.663 137.488 169.679 138.544 169.679 142.192V142.384H163.119C163.279 143.904 164.223 144.672 165.615 144.672C166.799 144.672 167.567 144.112 167.983 143.344L169.391 144.144ZM165.503 139.024C164.207 139.024 163.343 139.808 163.135 141.168H167.887C167.727 139.744 166.783 139.024 165.503 139.024ZM170.638 137.712H172.254V135.856L173.934 135.44V137.712H176.014V139.216H173.934V143.536C173.934 144.304 174.334 144.608 175.006 144.608C175.262 144.608 175.662 144.576 176.19 144.48V146C175.71 146.112 175.214 146.208 174.702 146.208C173.134 146.208 172.254 145.376 172.254 143.744V139.216H170.638V137.712ZM178.693 136.256C178.037 136.256 177.605 135.824 177.605 135.168C177.605 134.512 178.037 134.08 178.693 134.08C179.349 134.08 179.781 134.512 179.781 135.168C179.781 135.824 179.349 136.256 178.693 136.256ZM177.861 137.712H179.525V146H177.861V137.712ZM181.886 137.712H183.438L183.55 139.312C183.998 138.16 184.926 137.488 186.398 137.488C188.318 137.488 189.582 138.656 189.582 140.928V146H187.902V141.264C187.902 139.648 187.054 139.088 185.87 139.088C184.382 139.088 183.566 139.984 183.566 141.632V146H181.886V137.712ZM195.375 137.488C196.831 137.488 197.935 138.08 198.479 139.312L198.591 137.712H200.127V146.064C200.127 149.104 198.399 150.432 195.743 150.432C193.855 150.432 192.543 149.776 191.679 148.496L192.911 147.488C193.503 148.272 194.319 148.88 195.711 148.88C197.519 148.88 198.447 147.872 198.447 146.064V144.528C197.999 145.504 197.039 146.224 195.439 146.224C193.087 146.224 191.439 144.672 191.439 141.872C191.439 139.072 193.055 137.488 195.375 137.488ZM195.791 144.64C197.455 144.64 198.431 143.584 198.431 141.856C198.431 140.112 197.455 139.072 195.791 139.072C194.143 139.072 193.183 140.112 193.183 141.856C193.183 143.584 194.143 144.64 195.791 144.64Z" fill="black"/>
</g>
<rect x="14" y="68.5" width="237" height="39" rx="3.5" fill="white"/>
<rect x="14" y="68.5" width="237" height="39" rx="3.5" stroke="#CBCECF"/>
<path d="M26.796 82.48H32.172C34.348 82.48 35.724 83.712 35.724 86.048C35.724 88.32 34.412 89.552 32.172 89.552H28.54V94H26.796V82.48ZM31.868 84.064H28.54V88.032H31.868C33.228 88.032 33.932 87.36 33.932 86.032C33.932 84.736 33.228 84.064 31.868 84.064ZM37.4614 85.712H39.0134L39.1254 87.216C39.5414 86.144 40.4054 85.568 41.7654 85.568C41.9894 85.568 42.2454 85.584 42.5174 85.632V87.248C42.1974 87.2 41.9094 87.168 41.5894 87.168C40.0374 87.168 39.1414 87.984 39.1414 89.52V94H37.4614V85.712ZM47.9594 94.224C45.4634 94.224 43.6394 92.656 43.6394 89.856C43.6394 87.04 45.4954 85.488 47.9594 85.488C50.4234 85.488 52.2794 87.04 52.2794 89.856C52.2794 92.656 50.4554 94.224 47.9594 94.224ZM47.9594 92.64C49.4314 92.64 50.5194 91.744 50.5194 89.856C50.5194 87.968 49.4314 87.072 47.9594 87.072C46.4874 87.072 45.3834 87.968 45.3834 89.856C45.3834 91.744 46.4874 92.64 47.9594 92.64ZM55.292 84.256C54.636 84.256 54.204 83.824 54.204 83.168C54.204 82.512 54.636 82.08 55.292 82.08C55.948 82.08 56.38 82.512 56.38 83.168C56.38 83.824 55.948 84.256 55.292 84.256ZM56.14 95.392C56.14 96.56 55.564 97.36 54.156 97.36C53.724 97.36 53.308 97.28 52.924 97.168V95.696L52.956 95.664C53.26 95.728 53.532 95.776 53.788 95.776C54.268 95.776 54.46 95.584 54.46 95.168V85.712H56.14V95.392ZM66.2592 92.144C65.6032 93.408 64.3552 94.224 62.4672 94.224C59.8272 94.224 58.2112 92.64 58.2112 89.888C58.2112 87.008 59.9872 85.488 62.4512 85.488C64.5312 85.488 66.5472 86.544 66.5472 90.192V90.384H59.9872C60.1472 91.904 61.0912 92.672 62.4832 92.672C63.6672 92.672 64.4352 92.112 64.8512 91.344L66.2592 92.144ZM62.3712 87.024C61.0752 87.024 60.2112 87.808 60.0032 89.168H64.7552C64.5952 87.744 63.6512 87.024 62.3712 87.024ZM68.0988 89.856C68.0988 87.04 69.8908 85.488 72.4028 85.488C74.1468 85.488 75.5548 86.224 76.2268 87.84L74.7548 88.528L74.6908 88.512C74.3068 87.632 73.5068 87.072 72.3708 87.072C70.9308 87.072 69.8428 88 69.8428 89.856C69.8428 91.712 70.9308 92.64 72.3708 92.64C73.4908 92.64 74.3068 92.096 74.6908 91.2L74.7548 91.184L76.2268 91.872C75.5708 93.488 74.1468 94.224 72.4028 94.224C69.8908 94.224 68.0988 92.656 68.0988 89.856ZM77.0661 85.712H78.6821V83.856L80.3621 83.44V85.712H82.4421V87.216H80.3621V91.536C80.3621 92.304 80.7621 92.608 81.4341 92.608C81.6901 92.608 82.0901 92.576 82.6181 92.48V94C82.1381 94.112 81.6421 94.208 81.1301 94.208C79.5621 94.208 78.6821 93.376 78.6821 91.744V87.216H77.0661V85.712ZM88.9741 82.48H94.3661C96.5261 82.48 97.9021 83.728 97.9021 85.936C97.9021 88.08 96.6061 89.328 94.4141 89.328H94.2381L98.2061 94H96.0301L92.4461 89.792C92.1741 89.472 91.8701 89.328 91.4381 89.328H90.7181V94H88.9741V82.48ZM94.0621 84.064H90.7181V87.808H94.0621C95.3581 87.808 96.1101 87.2 96.1101 85.952C96.1101 84.688 95.3741 84.064 94.0621 84.064ZM107.259 92.144C106.603 93.408 105.355 94.224 103.467 94.224C100.827 94.224 99.2113 92.64 99.2113 89.888C99.2113 87.008 100.987 85.488 103.451 85.488C105.531 85.488 107.547 86.544 107.547 90.192V90.384H100.987C101.147 91.904 102.091 92.672 103.483 92.672C104.667 92.672 105.435 92.112 105.851 91.344L107.259 92.144ZM103.371 87.024C102.075 87.024 101.211 87.808 101.003 89.168H105.755C105.595 87.744 104.651 87.024 103.371 87.024ZM117.787 85.712V94H116.251L116.139 92.448C115.707 93.472 114.747 94.224 113.099 94.224C110.747 94.224 109.099 92.672 109.099 89.872C109.099 87.072 110.699 85.488 113.035 85.488C114.475 85.488 115.579 86.08 116.139 87.296L116.251 85.712H117.787ZM113.451 92.64C115.115 92.64 116.091 91.584 116.091 89.856C116.091 88.128 115.115 87.072 113.451 87.072C111.803 87.072 110.843 88.128 110.843 89.856C110.843 91.584 111.803 92.64 113.451 92.64ZM120.01 82.48H121.69V92.064C121.69 92.48 121.882 92.64 122.346 92.64C122.506 92.64 122.73 92.624 123.018 92.544L123.066 92.592V94.032C122.762 94.144 122.378 94.224 121.962 94.224C120.698 94.224 120.01 93.488 120.01 92.272V82.48ZM129.03 88.24C129.03 84.384 131.542 82.256 134.886 82.256C137.19 82.256 138.998 83.264 139.974 85.12L138.518 85.952L138.47 85.936C137.686 84.624 136.454 83.888 134.838 83.888C132.486 83.888 130.822 85.424 130.822 88.24C130.822 91.056 132.486 92.592 134.838 92.592C136.454 92.592 137.686 91.856 138.47 90.544L138.518 90.528L139.974 91.36C138.998 93.216 137.19 94.224 134.886 94.224C131.542 94.224 129.03 92.096 129.03 88.24ZM150.259 85.712V94H148.723L148.611 92.448C148.179 93.472 147.219 94.224 145.571 94.224C143.219 94.224 141.571 92.672 141.571 89.872C141.571 87.072 143.171 85.488 145.507 85.488C146.947 85.488 148.051 86.08 148.611 87.296L148.723 85.712H150.259ZM145.923 92.64C147.587 92.64 148.563 91.584 148.563 89.856C148.563 88.128 147.587 87.072 145.923 87.072C144.275 87.072 143.315 88.128 143.315 89.856C143.315 91.584 144.275 92.64 145.923 92.64ZM151.922 92.208L153.234 91.44C153.65 92.288 154.434 92.768 155.458 92.768C156.37 92.768 157.042 92.4 157.042 91.712C157.042 91.312 156.818 90.976 155.906 90.672L154.242 90.128C153.09 89.76 152.37 89.056 152.37 87.872C152.37 86.352 153.506 85.488 155.266 85.488C156.914 85.488 157.922 86.224 158.37 87.344L156.946 87.936C156.674 87.312 156.098 86.928 155.314 86.928C154.578 86.928 154.114 87.264 154.114 87.856C154.114 88.288 154.354 88.592 155.074 88.832L156.866 89.424C158.034 89.808 158.786 90.352 158.786 91.648C158.786 93.104 157.81 94.224 155.554 94.224C153.794 94.224 152.498 93.52 151.922 92.208ZM168.315 92.144C167.659 93.408 166.411 94.224 164.523 94.224C161.883 94.224 160.267 92.64 160.267 89.888C160.267 87.008 162.043 85.488 164.507 85.488C166.587 85.488 168.603 86.544 168.603 90.192V90.384H162.043C162.203 91.904 163.147 92.672 164.539 92.672C165.723 92.672 166.491 92.112 166.907 91.344L168.315 92.144ZM164.427 87.024C163.131 87.024 162.267 87.808 162.059 89.168H166.811C166.651 87.744 165.707 87.024 164.427 87.024ZM175.224 82.48H176.968V94H175.224V82.48ZM179.343 85.712H180.895L181.007 87.312C181.455 86.16 182.383 85.488 183.855 85.488C185.775 85.488 187.039 86.656 187.039 88.928V94H185.359V89.264C185.359 87.648 184.511 87.088 183.327 87.088C181.839 87.088 181.023 87.984 181.023 89.632V94H179.343V85.712ZM197.584 82.48V94H196.048L195.936 92.448C195.504 93.472 194.544 94.224 192.896 94.224C190.544 94.224 188.896 92.672 188.896 89.872C188.896 87.072 190.496 85.488 192.832 85.488C194.24 85.488 195.328 86.064 195.904 87.232V82.48H197.584ZM193.248 92.64C194.912 92.64 195.888 91.584 195.888 89.856C195.888 88.128 194.912 87.072 193.248 87.072C191.6 87.072 190.64 88.128 190.64 89.856C190.64 91.584 191.6 92.64 193.248 92.64ZM207.247 94H205.711L205.583 92.448C205.151 93.552 204.271 94.224 202.799 94.224C200.895 94.224 199.711 93.12 199.711 90.816V85.712H201.391V90.528C201.391 92.224 202.255 92.624 203.263 92.624C204.767 92.624 205.567 91.728 205.567 90.112V85.712H207.247V94ZM208.994 92.208L210.306 91.44C210.722 92.288 211.506 92.768 212.53 92.768C213.442 92.768 214.114 92.4 214.114 91.712C214.114 91.312 213.89 90.976 212.978 90.672L211.314 90.128C210.162 89.76 209.442 89.056 209.442 87.872C209.442 86.352 210.578 85.488 212.338 85.488C213.986 85.488 214.994 86.224 215.442 87.344L214.018 87.936C213.746 87.312 213.17 86.928 212.386 86.928C211.65 86.928 211.186 87.264 211.186 87.856C211.186 88.288 211.426 88.592 212.146 88.832L213.938 89.424C215.106 89.808 215.858 90.352 215.858 91.648C215.858 93.104 214.882 94.224 212.626 94.224C210.866 94.224 209.57 93.52 208.994 92.208ZM216.622 85.712H218.238V83.856L219.918 83.44V85.712H221.998V87.216H219.918V91.536C219.918 92.304 220.318 92.608 220.99 92.608C221.246 92.608 221.646 92.576 222.174 92.48V94C221.694 94.112 221.198 94.208 220.686 94.208C219.118 94.208 218.238 93.376 218.238 91.744V87.216H216.622V85.712ZM223.733 85.712H225.285L225.397 87.216C225.813 86.144 226.677 85.568 228.037 85.568C228.261 85.568 228.517 85.584 228.789 85.632V87.248C228.469 87.2 228.181 87.168 227.861 87.168C226.309 87.168 225.413 87.984 225.413 89.52V94H223.733V85.712ZM231.238 95.36C231.926 96.64 233.014 96.912 233.894 96.912C235.462 96.912 236.438 96.08 236.438 94.288V92.528C235.99 93.6 235.078 94.224 233.574 94.224C231.542 94.224 230.246 93.056 230.246 90.768V85.712H231.926V90.48C231.926 92.064 232.806 92.624 234.054 92.624C235.638 92.624 236.438 91.728 236.438 90.304V85.712H238.118V94.352C238.118 97.008 236.598 98.464 233.91 98.464C231.878 98.464 230.598 97.616 229.926 96.24L231.238 95.36Z" fill="black"/>
<g opacity="0.1">
<rect x="-40.5" y="120.5" width="79" height="39" rx="3.5" fill="white"/>
<rect x="-40.5" y="120.5" width="79" height="39" rx="3.5" stroke="#CBCECF"/>
<path d="M-27.704 134.48H-23.32C-19.736 134.48 -17.464 136.528 -17.464 140.24C-17.464 144 -19.736 146 -23.32 146H-27.704V134.48ZM-23.32 136.064H-25.96V144.432H-23.32C-20.984 144.432 -19.256 143.088 -19.256 140.24C-19.256 137.408 -20.968 136.064 -23.32 136.064ZM-7.63762 144.144C-8.29362 145.408 -9.54163 146.224 -11.4296 146.224C-14.0696 146.224 -15.6856 144.64 -15.6856 141.888C-15.6856 139.008 -13.9096 137.488 -11.4456 137.488C-9.36562 137.488 -7.34962 138.544 -7.34962 142.192V142.384H-13.9096C-13.7496 143.904 -12.8056 144.672 -11.4136 144.672C-10.2296 144.672 -9.46162 144.112 -9.04562 143.344L-7.63762 144.144ZM-11.5256 139.024C-12.8216 139.024 -13.6856 139.808 -13.8936 141.168H-9.14162C-9.30162 139.744 -10.2456 139.024 -11.5256 139.024ZM-6.037 144.208L-4.725 143.44C-4.309 144.288 -3.525 144.768 -2.501 144.768C-1.589 144.768 -0.917 144.4 -0.917 143.712C-0.917 143.312 -1.141 142.976 -2.053 142.672L-3.717 142.128C-4.869 141.76 -5.589 141.056 -5.589 139.872C-5.589 138.352 -4.453 137.488 -2.693 137.488C-1.045 137.488 -0.0370002 138.224 0.411 139.344L-1.013 139.936C-1.285 139.312 -1.861 138.928 -2.645 138.928C-3.381 138.928 -3.845 139.264 -3.845 139.856C-3.845 140.288 -3.605 140.592 -2.885 140.832L-1.093 141.424C0.0749998 141.808 0.827 142.352 0.827 143.648C0.827 145.104 -0.149 146.224 -2.405 146.224C-4.165 146.224 -5.461 145.52 -6.037 144.208ZM3.55538 136.256C2.89938 136.256 2.46738 135.824 2.46738 135.168C2.46738 134.512 2.89938 134.08 3.55538 134.08C4.21138 134.08 4.64338 134.512 4.64338 135.168C4.64338 135.824 4.21138 136.256 3.55538 136.256ZM2.72338 137.712H4.38738V146H2.72338V137.712ZM10.4129 137.488C11.8689 137.488 12.9729 138.08 13.5169 139.312L13.6289 137.712H15.1649V146.064C15.1649 149.104 13.4369 150.432 10.7809 150.432C8.89287 150.432 7.58087 149.776 6.71687 148.496L7.94887 147.488C8.54087 148.272 9.35687 148.88 10.7489 148.88C12.5569 148.88 13.4849 147.872 13.4849 146.064V144.528C13.0369 145.504 12.0769 146.224 10.4769 146.224C8.12487 146.224 6.47687 144.672 6.47687 141.872C6.47687 139.072 8.09287 137.488 10.4129 137.488ZM10.8289 144.64C12.4929 144.64 13.4689 143.584 13.4689 141.856C13.4689 140.112 12.4929 139.072 10.8289 139.072C9.18087 139.072 8.22087 140.112 8.22087 141.856C8.22087 143.584 9.18087 144.64 10.8289 144.64ZM17.2926 137.712H18.8446L18.9566 139.312C19.4046 138.16 20.3326 137.488 21.8046 137.488C23.7246 137.488 24.9886 138.656 24.9886 140.928V146H23.3086V141.264C23.3086 139.648 22.4606 139.088 21.2766 139.088C19.7886 139.088 18.9726 139.984 18.9726 141.632V146H17.2926V137.712Z" fill="black"/>
</g>
<g opacity="0.1">
<rect x="226.5" y="120.5" width="51" height="39" rx="3.5" fill="white"/>
<rect x="226.5" y="120.5" width="51" height="39" rx="3.5" stroke="#CBCECF"/>
<path d="M239.296 134.48H244.672C246.848 134.48 248.224 135.712 248.224 138.048C248.224 140.32 246.912 141.552 244.672 141.552H241.04V146H239.296V134.48ZM244.368 136.064H241.04V140.032H244.368C245.728 140.032 246.432 139.36 246.432 138.032C246.432 136.736 245.728 136.064 244.368 136.064ZM249.961 137.712H251.513L251.625 139.216C252.041 138.144 252.905 137.568 254.265 137.568C254.489 137.568 254.745 137.584 255.017 137.632V139.248C254.697 139.2 254.409 139.168 254.089 139.168C252.537 139.168 251.641 139.984 251.641 141.52V146H249.961V137.712ZM260.459 146.224C257.963 146.224 256.139 144.656 256.139 141.856C256.139 139.04 257.995 137.488 260.459 137.488C262.923 137.488 264.779 139.04 264.779 141.856C264.779 144.656 262.955 146.224 260.459 146.224ZM260.459 144.64C261.931 144.64 263.019 143.744 263.019 141.856C263.019 139.968 261.931 139.072 260.459 139.072C258.987 139.072 257.883 139.968 257.883 141.856C257.883 143.744 258.987 144.64 260.459 144.64Z" fill="black"/>
</g>
<g opacity="0.1">
<rect x="-182.5" y="16.5" width="236" height="39" rx="3.5" fill="white"/>
<rect x="-182.5" y="16.5" width="236" height="39" rx="3.5" stroke="#CBCECF"/>
<path d="M-169.704 30.48H-164.328C-162.152 30.48 -160.776 31.712 -160.776 34.048C-160.776 36.32 -162.088 37.552 -164.328 37.552H-167.96V42H-169.704V30.48ZM-164.632 32.064H-167.96V36.032H-164.632C-163.272 36.032 -162.568 35.36 -162.568 34.032C-162.568 32.736 -163.272 32.064 -164.632 32.064ZM-159.039 33.712H-157.487L-157.375 35.216C-156.959 34.144 -156.095 33.568 -154.735 33.568C-154.511 33.568 -154.255 33.584 -153.983 33.632V35.248C-154.303 35.2 -154.591 35.168 -154.911 35.168C-156.463 35.168 -157.359 35.984 -157.359 37.52V42H-159.039V33.712ZM-148.541 42.224C-151.037 42.224 -152.861 40.656 -152.861 37.856C-152.861 35.04 -151.005 33.488 -148.541 33.488C-146.077 33.488 -144.221 35.04 -144.221 37.856C-144.221 40.656 -146.045 42.224 -148.541 42.224ZM-148.541 40.64C-147.069 40.64 -145.981 39.744 -145.981 37.856C-145.981 35.968 -147.069 35.072 -148.541 35.072C-150.013 35.072 -151.117 35.968 -151.117 37.856C-151.117 39.744 -150.013 40.64 -148.541 40.64ZM-141.208 32.256C-141.864 32.256 -142.296 31.824 -142.296 31.168C-142.296 30.512 -141.864 30.08 -141.208 30.08C-140.552 30.08 -140.12 30.512 -140.12 31.168C-140.12 31.824 -140.552 32.256 -141.208 32.256ZM-140.36 43.392C-140.36 44.56 -140.936 45.36 -142.344 45.36C-142.776 45.36 -143.192 45.28 -143.576 45.168V43.696L-143.544 43.664C-143.24 43.728 -142.968 43.776 -142.712 43.776C-142.232 43.776 -142.04 43.584 -142.04 43.168V33.712H-140.36V43.392ZM-130.241 40.144C-130.897 41.408 -132.145 42.224 -134.033 42.224C-136.673 42.224 -138.289 40.64 -138.289 37.888C-138.289 35.008 -136.513 33.488 -134.049 33.488C-131.969 33.488 -129.953 34.544 -129.953 38.192V38.384H-136.513C-136.353 39.904 -135.409 40.672 -134.017 40.672C-132.833 40.672 -132.065 40.112 -131.649 39.344L-130.241 40.144ZM-134.129 35.024C-135.425 35.024 -136.289 35.808 -136.497 37.168H-131.745C-131.905 35.744 -132.849 35.024 -134.129 35.024ZM-128.401 37.856C-128.401 35.04 -126.609 33.488 -124.097 33.488C-122.353 33.488 -120.945 34.224 -120.273 35.84L-121.745 36.528L-121.809 36.512C-122.193 35.632 -122.993 35.072 -124.129 35.072C-125.569 35.072 -126.657 36 -126.657 37.856C-126.657 39.712 -125.569 40.64 -124.129 40.64C-123.009 40.64 -122.193 40.096 -121.809 39.2L-121.745 39.184L-120.273 39.872C-120.929 41.488 -122.353 42.224 -124.097 42.224C-126.609 42.224 -128.401 40.656 -128.401 37.856ZM-119.434 33.712H-117.818V31.856L-116.138 31.44V33.712H-114.058V35.216H-116.138V39.536C-116.138 40.304 -115.738 40.608 -115.066 40.608C-114.81 40.608 -114.41 40.576 -113.882 40.48V42C-114.362 42.112 -114.858 42.208 -115.37 42.208C-116.938 42.208 -117.818 41.376 -117.818 39.744V35.216H-119.434V33.712ZM-102.454 42H-104.534L-108.278 30.48H-106.438L-103.494 39.712L-100.566 30.48H-98.4859L-95.5259 39.712L-92.6139 30.48H-90.7739L-94.5179 42H-96.5979L-99.5419 32.784L-102.454 42ZM-82.3657 40.144C-83.0217 41.408 -84.2697 42.224 -86.1577 42.224C-88.7977 42.224 -90.4137 40.64 -90.4137 37.888C-90.4137 35.008 -88.6377 33.488 -86.1737 33.488C-84.0937 33.488 -82.0777 34.544 -82.0777 38.192V38.384H-88.6377C-88.4777 39.904 -87.5337 40.672 -86.1417 40.672C-84.9577 40.672 -84.1897 40.112 -83.7737 39.344L-82.3657 40.144ZM-86.2537 35.024C-87.5497 35.024 -88.4137 35.808 -88.6217 37.168H-83.8697C-84.0297 35.744 -84.9737 35.024 -86.2537 35.024ZM-80.1582 30.48H-78.4782V35.232C-77.9022 34.064 -76.8142 33.488 -75.4062 33.488C-73.0702 33.488 -71.4702 35.072 -71.4702 37.872C-71.4702 40.672 -73.1182 42.224 -75.4702 42.224C-77.1182 42.224 -78.0782 41.472 -78.5102 40.448L-78.6062 42H-80.1582V30.48ZM-75.8222 40.64C-74.1742 40.64 -73.2142 39.584 -73.2142 37.856C-73.2142 36.128 -74.1742 35.072 -75.8222 35.072C-77.4702 35.072 -78.4622 36.128 -78.4622 37.856C-78.4622 39.584 -77.4702 40.64 -75.8222 40.64ZM-64.6946 30.48H-60.3106C-56.7266 30.48 -54.4546 32.528 -54.4546 36.24C-54.4546 40 -56.7266 42 -60.3106 42H-64.6946V30.48ZM-60.3106 32.064H-62.9506V40.432H-60.3106C-57.9746 40.432 -56.2466 39.088 -56.2466 36.24C-56.2466 33.408 -57.9586 32.064 -60.3106 32.064ZM-44.6283 40.144C-45.2843 41.408 -46.5323 42.224 -48.4203 42.224C-51.0603 42.224 -52.6763 40.64 -52.6763 37.888C-52.6763 35.008 -50.9003 33.488 -48.4363 33.488C-46.3563 33.488 -44.3403 34.544 -44.3403 38.192V38.384H-50.9003C-50.7403 39.904 -49.7963 40.672 -48.4043 40.672C-47.2203 40.672 -46.4523 40.112 -46.0363 39.344L-44.6283 40.144ZM-48.5163 35.024C-49.8123 35.024 -50.6763 35.808 -50.8843 37.168H-46.1323C-46.2923 35.744 -47.2363 35.024 -48.5163 35.024ZM-43.5667 33.712H-41.7747L-39.3107 40.288L-36.8627 33.712H-35.0707L-38.2867 42H-40.3507L-43.5667 33.712ZM-26.2126 40.144C-26.8686 41.408 -28.1166 42.224 -30.0046 42.224C-32.6446 42.224 -34.2606 40.64 -34.2606 37.888C-34.2606 35.008 -32.4846 33.488 -30.0206 33.488C-27.9406 33.488 -25.9246 34.544 -25.9246 38.192V38.384H-32.4846C-32.3246 39.904 -31.3806 40.672 -29.9886 40.672C-28.8046 40.672 -28.0366 40.112 -27.6206 39.344L-26.2126 40.144ZM-30.1006 35.024C-31.3966 35.024 -32.2606 35.808 -32.4686 37.168H-27.7166C-27.8766 35.744 -28.8206 35.024 -30.1006 35.024ZM-24.0051 30.48H-22.3251V40.064C-22.3251 40.48 -22.1331 40.64 -21.6691 40.64C-21.5091 40.64 -21.2851 40.624 -20.9971 40.544L-20.9491 40.592V42.032C-21.2531 42.144 -21.6371 42.224 -22.0531 42.224C-23.3171 42.224 -24.0051 41.488 -24.0051 40.272V30.48ZM-15.4 42.224C-17.896 42.224 -19.72 40.656 -19.72 37.856C-19.72 35.04 -17.864 33.488 -15.4 33.488C-12.936 33.488 -11.08 35.04 -11.08 37.856C-11.08 40.656 -12.904 42.224 -15.4 42.224ZM-15.4 40.64C-13.928 40.64 -12.84 39.744 -12.84 37.856C-12.84 35.968 -13.928 35.072 -15.4 35.072C-16.872 35.072 -17.976 35.968 -17.976 37.856C-17.976 39.744 -16.872 40.64 -15.4 40.64ZM-9.10737 45.36V33.712H-7.55537L-7.45937 35.264C-7.02737 34.24 -6.06737 33.488 -4.41937 33.488C-2.06737 33.488 -0.419369 35.04 -0.419369 37.84C-0.419369 40.64 -2.01937 42.224 -4.35537 42.224C-5.76337 42.224 -6.85137 41.648 -7.42737 40.48V45.36H-9.10737ZM-4.77137 35.072C-6.41937 35.072 -7.41137 36.128 -7.41137 37.856C-7.41137 39.584 -6.41937 40.64 -4.77137 40.64C-3.12337 40.64 -2.16337 39.584 -2.16337 37.856C-2.16337 36.128 -3.12337 35.072 -4.77137 35.072ZM1.56138 33.712H3.11338L3.22538 35.2C3.65738 34.112 4.53738 33.488 5.89738 33.488C7.24138 33.488 8.23338 34.096 8.66538 35.328C9.06538 34.16 10.0414 33.488 11.4974 33.488C13.4014 33.488 14.5694 34.608 14.5694 36.88V42H12.9054V37.216C12.9054 35.584 12.0254 35.088 10.9854 35.088C9.62538 35.088 8.90538 35.952 8.90538 37.296V42H7.22538V37.216C7.22538 35.584 6.36138 35.088 5.32138 35.088C3.96138 35.088 3.24138 35.952 3.24138 37.296V42H1.56138V33.712ZM24.4749 40.144C23.8189 41.408 22.5709 42.224 20.6829 42.224C18.0429 42.224 16.4269 40.64 16.4269 37.888C16.4269 35.008 18.2029 33.488 20.6669 33.488C22.7469 33.488 24.7629 34.544 24.7629 38.192V38.384H18.2029C18.3629 39.904 19.3069 40.672 20.6989 40.672C21.8829 40.672 22.6509 40.112 23.0669 39.344L24.4749 40.144ZM20.5869 35.024C19.2909 35.024 18.4269 35.808 18.2189 37.168H22.9709C22.8109 35.744 21.8669 35.024 20.5869 35.024ZM26.5864 33.712H28.1384L28.2504 35.312C28.6984 34.16 29.6264 33.488 31.0984 33.488C33.0184 33.488 34.2824 34.656 34.2824 36.928V42H32.6024V37.264C32.6024 35.648 31.7544 35.088 30.5704 35.088C29.0824 35.088 28.2664 35.984 28.2664 37.632V42H26.5864V33.712ZM35.5474 33.712H37.1634V31.856L38.8434 31.44V33.712H40.9234V35.216H38.8434V39.536C38.8434 40.304 39.2434 40.608 39.9154 40.608C40.1714 40.608 40.5714 40.576 41.0994 40.48V42C40.6194 42.112 40.1234 42.208 39.6114 42.208C38.0434 42.208 37.1634 41.376 37.1634 39.744V35.216H35.5474V33.712Z" fill="black"/>
</g>
</g>
<defs>
<clipPath id="clip0_429_7814">
<rect width="264" height="160" fill="white"/>
</clipPath>
</defs>
</svg>
