<svg width="80" height="80" viewBox="0 0 80 80" fill="none" xmlns="http://www.w3.org/2000/svg">
<g filter="url(#filter0_d_389_3556)">
<g clip-path="url(#clip0_389_3556)">
<rect x="8" y="8" width="64" height="64" rx="32" fill="#FFFBEB"/>
<line x1="24.5" y1="8" x2="24.5" y2="72" stroke="#C39F0E" stroke-opacity="0.5"/>
<line x1="72" y1="24.5" x2="8" y2="24.5" stroke="#C39F0E" stroke-opacity="0.5"/>
<line x1="72" y1="56.5" x2="8" y2="56.5" stroke="#C39F0E" stroke-opacity="0.5"/>
<line x1="56.5" y1="8" x2="56.5" y2="72" stroke="#C39F0E" stroke-opacity="0.5"/>
<rect x="24.5" y="24.5" width="32" height="32" rx="3.5" fill="white"/>
<rect x="24.5" y="24.5" width="32" height="32" rx="3.5" stroke="#1976E4"/>
<path d="M41.4467 34.5H35.3333C34.6 34.5 34 35.1 34 35.8333V45.1667C34 45.9 34.6 46.5 35.3333 46.5H44.6667C45.4 46.5 46 45.9 46 45.1667V39.0533C46 38.7 45.86 38.36 45.6067 38.1133L42.3867 34.8933C42.14 34.64 41.8 34.5 41.4467 34.5ZM37.3333 42.5H42.6667C43.0333 42.5 43.3333 42.8 43.3333 43.1667C43.3333 43.5333 43.0333 43.8333 42.6667 43.8333H37.3333C36.9667 43.8333 36.6667 43.5333 36.6667 43.1667C36.6667 42.8 36.9667 42.5 37.3333 42.5ZM37.3333 39.8333H42.6667C43.0333 39.8333 43.3333 40.1333 43.3333 40.5C43.3333 40.8667 43.0333 41.1667 42.6667 41.1667H37.3333C36.9667 41.1667 36.6667 40.8667 36.6667 40.5C36.6667 40.1333 36.9667 39.8333 37.3333 39.8333ZM37.3333 37.1667H40.6667C41.0333 37.1667 41.3333 37.4667 41.3333 37.8333C41.3333 38.2 41.0333 38.5 40.6667 38.5H37.3333C36.9667 38.5 36.6667 38.2 36.6667 37.8333C36.6667 37.4667 36.9667 37.1667 37.3333 37.1667Z" fill="#1976E4" fill-opacity="0.5"/>
<g filter="url(#filter1_d_389_3556)">
<path d="M57.4302 48.6116L55.9602 43.7716C55.6702 42.8216 54.3302 42.8216 54.0502 43.7716L52.5702 48.6116H48.1202C47.1502 48.6116 46.7502 49.8616 47.5402 50.4216L51.1802 53.0216L49.7502 57.6316C49.4602 58.5616 50.5402 59.3116 51.3102 58.7216L55.0002 55.9216L58.6902 58.7316C59.4602 59.3216 60.5402 58.5716 60.2502 57.6416L58.8202 53.0316L62.4602 50.4316C63.2502 49.8616 62.8502 48.6216 61.8802 48.6216H57.4302V48.6116Z" fill="#1976E4"/>
<path d="M56.4384 43.6256L56.4386 43.6263L57.8039 48.1216H61.8802C63.3389 48.1216 63.9334 49.9852 62.7528 50.8371L62.7508 50.8385L59.4048 53.2285L60.7275 57.4927C60.7276 57.4929 60.7277 57.4931 60.7277 57.4933L60.7278 57.4934L60.2502 57.6416C60.5402 58.5716 59.4602 59.3216 58.6902 58.7316L56.4384 43.6256ZM56.4384 43.6256C56.0071 42.2128 53.9965 42.1937 53.5714 43.6276L52.2002 48.1116H48.1202C46.6668 48.1116 46.0609 49.9847 47.2502 50.8289C47.2505 50.8291 47.2508 50.8293 47.2511 50.8295L50.5956 53.2185L49.2729 57.4827C49.2728 57.4829 49.2728 57.483 49.2727 57.4832C48.8375 58.8803 50.458 60.0033 51.6134 59.1191C51.6137 59.1189 51.614 59.1187 51.6143 59.1185L54.9997 56.5496L58.3861 59.1285C58.3863 59.1286 58.3865 59.1288 58.3867 59.129L56.4384 43.6256Z" stroke="white"/>
</g>
<g clip-path="url(#clip1_389_3556)">
<g filter="url(#filter2_d_389_3556)">
<path d="M26.6201 22.4077L25.6401 19.1811C25.4468 18.5477 24.5535 18.5477 24.3668 19.1811L23.3801 22.4077H20.4135C19.7668 22.4077 19.5001 23.2411 20.0268 23.6144L22.4535 25.3477L21.5001 28.4211C21.3068 29.0411 22.0268 29.5411 22.5401 29.1477L25.0001 27.2811L27.4601 29.1544C27.9735 29.5477 28.6935 29.0477 28.5001 28.4277L27.5468 25.3544L29.9735 23.6211C30.5001 23.2411 30.2335 22.4144 29.5868 22.4144H26.6201V22.4077Z" fill="#1976E4"/>
<path d="M26.1184 19.0351L26.1186 19.0357L26.9929 21.9144H29.5868C30.7222 21.9144 31.1833 23.3647 30.266 24.0265L30.2641 24.0279L28.1314 25.5513L28.9775 28.2789C28.9775 28.279 28.9775 28.2791 28.9776 28.2793L28.9777 28.2796L28.5001 28.4277C28.6935 29.0477 27.9735 29.5477 27.4601 29.1544L26.1184 19.0351ZM26.1184 19.0351C25.7837 17.9389 24.2198 17.9199 23.888 19.037L23.0102 21.9077H20.4135C19.2834 21.9077 18.8108 23.3642 19.7368 24.0217C19.7371 24.0219 19.7374 24.0221 19.7377 24.0223L21.8689 25.5446L21.0228 28.2722C21.0228 28.2723 21.0228 28.2724 21.0227 28.2724C20.6839 29.3596 21.9444 30.2327 22.8432 29.5454C22.8435 29.5452 22.8439 29.5449 22.8442 29.5446L24.9996 27.9091L27.156 29.5513C27.1563 29.5514 27.1565 29.5516 27.1567 29.5518L26.1184 19.0351Z" stroke="white"/>
</g>
</g>
</g>
<rect x="10" y="10" width="60" height="60" rx="30" stroke="white" stroke-width="4"/>
</g>
<defs>
<filter id="filter0_d_389_3556" x="0" y="0" width="80" height="80" filterUnits="userSpaceOnUse" color-interpolation-filters="sRGB">
<feFlood flood-opacity="0" result="BackgroundImageFix"/>
<feColorMatrix in="SourceAlpha" type="matrix" values="0 0 0 0 0 0 0 0 0 0 0 0 0 0 0 0 0 0 127 0" result="hardAlpha"/>
<feOffset/>
<feGaussianBlur stdDeviation="4"/>
<feComposite in2="hardAlpha" operator="out"/>
<feColorMatrix type="matrix" values="0 0 0 0 0 0 0 0 0 0 0 0 0 0 0 0 0 0 0.08 0"/>
<feBlend mode="normal" in2="BackgroundImageFix" result="effect1_dropShadow_389_3556"/>
<feBlend mode="normal" in="SourceGraphic" in2="effect1_dropShadow_389_3556" result="shape"/>
</filter>
<filter id="filter1_d_389_3556" x="45.1182" y="41.0591" width="19.7627" height="19.886" filterUnits="userSpaceOnUse" color-interpolation-filters="sRGB">
<feFlood flood-opacity="0" result="BackgroundImageFix"/>
<feColorMatrix in="SourceAlpha" type="matrix" values="0 0 0 0 0 0 0 0 0 0 0 0 0 0 0 0 0 0 127 0" result="hardAlpha"/>
<feOffset/>
<feGaussianBlur stdDeviation="0.5"/>
<feComposite in2="hardAlpha" operator="out"/>
<feColorMatrix type="matrix" values="0 0 0 0 0 0 0 0 0 0 0 0 0 0 0 0 0 0 0.25 0"/>
<feBlend mode="normal" in2="BackgroundImageFix" result="effect1_dropShadow_389_3556"/>
<feBlend mode="normal" in="SourceGraphic" in2="effect1_dropShadow_389_3556" result="shape"/>
</filter>
<filter id="filter2_d_389_3556" x="17.7446" y="16.7061" width="14.5098" height="14.592" filterUnits="userSpaceOnUse" color-interpolation-filters="sRGB">
<feFlood flood-opacity="0" result="BackgroundImageFix"/>
<feColorMatrix in="SourceAlpha" type="matrix" values="0 0 0 0 0 0 0 0 0 0 0 0 0 0 0 0 0 0 127 0" result="hardAlpha"/>
<feOffset/>
<feGaussianBlur stdDeviation="0.5"/>
<feComposite in2="hardAlpha" operator="out"/>
<feColorMatrix type="matrix" values="0 0 0 0 0 0 0 0 0 0 0 0 0 0 0 0 0 0 0.25 0"/>
<feBlend mode="normal" in2="BackgroundImageFix" result="effect1_dropShadow_389_3556"/>
<feBlend mode="normal" in="SourceGraphic" in2="effect1_dropShadow_389_3556" result="shape"/>
</filter>
<clipPath id="clip0_389_3556">
<rect x="8" y="8" width="64" height="64" rx="32" fill="white"/>
</clipPath>
<clipPath id="clip1_389_3556">
<rect width="16" height="16" fill="white" transform="translate(17 16)"/>
</clipPath>
</defs>
</svg>
