<svg width="10" height="16" viewBox="0 0 10 16" fill="none" xmlns="http://www.w3.org/2000/svg">
<path d="M0.295898 13.65L0.504232 15.5L1.85423 14.2167L4.16257 7.88333C3.5959 7.74167 3.0959 7.45833 2.68756 7.06667L0.295898 13.65Z" fill="#25292A"/>
<path d="M7.30423 7.06667C6.8959 7.45833 6.38757 7.74167 5.82923 7.88333L8.13757 14.2167L9.48756 15.5L9.70423 13.65L7.30423 7.06667Z" fill="#25292A"/>
<path d="M7.4459 5.16667C7.6959 3.86667 6.9459 2.71667 5.82923 2.31667V1.33333C5.82923 0.875 5.45423 0.5 4.9959 0.5C4.53757 0.5 4.16257 0.875 4.16257 1.33333V2.31667C3.1959 2.66667 2.4959 3.58333 2.4959 4.66667C2.4959 6.2 3.87923 7.41667 5.46257 7.125C6.4459 6.94167 7.25423 6.15 7.4459 5.16667ZM4.9959 5.5C4.53757 5.5 4.16257 5.125 4.16257 4.66667C4.16257 4.20833 4.53757 3.83333 4.9959 3.83333C5.45423 3.83333 5.82923 4.20833 5.82923 4.66667C5.82923 5.125 5.45423 5.5 4.9959 5.5Z" fill="#25292A"/>
</svg>
