<svg width="18" height="14" viewBox="0 0 18 14" fill="none" xmlns="http://www.w3.org/2000/svg">
<path d="M14.0003 0.333313L15.517 3.36665C15.5837 3.49998 15.4837 3.66665 15.3337 3.66665H13.6837C13.367 3.66665 13.0753 3.49165 12.942 3.20831L11.5003 0.333313H9.83366L11.3503 3.36665C11.417 3.49998 11.317 3.66665 11.167 3.66665H9.51699C9.20033 3.66665 8.90866 3.49165 8.77533 3.20831L7.33366 0.333313H5.66699L7.18366 3.36665C7.25033 3.49998 7.15033 3.66665 7.00033 3.66665H5.35033C5.03366 3.66665 4.74199 3.49165 4.60033 3.20831L3.16699 0.333313H2.33366C1.41699 0.333313 0.666992 1.08331 0.666992 1.99998V12C0.666992 12.9166 1.41699 13.6666 2.33366 13.6666H15.667C16.5837 13.6666 17.3337 12.9166 17.3337 12V1.16665C17.3337 0.708313 16.9587 0.333313 16.5003 0.333313H14.0003Z" fill="#25292A"/>
</svg>
