<svg width="16" height="10" viewBox="0 0 16 10" fill="none" xmlns="http://www.w3.org/2000/svg">
<path d="M5.25006 8.25001L2.00007 5.00002L5.25006 1.75002C5.57506 1.42502 5.57506 0.90835 5.25006 0.58335C4.92507 0.25835 4.4084 0.25835 4.0834 0.58335L0.258398 4.40835C-0.0666016 4.73335 -0.0666016 5.25835 0.258398 5.58335L4.0834 9.41668C4.4084 9.74168 4.92507 9.74168 5.25006 9.41668C5.57506 9.09168 5.57506 8.57502 5.25006 8.25001ZM10.7501 8.25001L14.0001 5.00002L10.7501 1.75002C10.4251 1.42502 10.4251 0.90835 10.7501 0.58335C11.0751 0.25835 11.5917 0.25835 11.9167 0.58335L15.7417 4.40835C16.0667 4.73335 16.0667 5.25835 15.7417 5.58335L11.9167 9.41668C11.5917 9.74168 11.0751 9.74168 10.7501 9.41668C10.4251 9.09168 10.4251 8.57502 10.7501 8.25001Z" fill="#25292A"/>
</svg>
