<svg width="116" height="40" viewBox="0 0 116 40" fill="none" xmlns="http://www.w3.org/2000/svg">
<g clip-path="url(#clip0_47_2828)">
<path fill-rule="evenodd" clip-rule="evenodd" d="M19.8835 0.626511C24.9131 0.626511 28.9897 9.35236 28.9897 20.1165C28.9897 30.8807 24.9131 39.6065 19.8835 39.6065C14.854 39.6065 10.7773 30.8807 10.7773 20.1165C10.7773 9.35236 14.854 0.626511 19.8835 0.626511Z" fill="#FFCC00" fill-opacity="0.301961"/>
<path fill-rule="evenodd" clip-rule="evenodd" d="M29.6274 3.23742C33.9825 5.75169 33.1514 15.3475 27.7688 24.6691C22.3872 33.9907 14.4925 39.5088 10.1374 36.9945C5.7824 34.4803 6.61348 24.8845 11.9961 15.5629C17.3776 6.2413 25.2713 0.723162 29.6274 3.23742Z" fill="#FFCC00" fill-opacity="0.301961"/>
<path fill-rule="evenodd" clip-rule="evenodd" d="M10.1384 3.23742C5.78338 5.75169 6.61446 15.3475 11.9971 24.6691C17.3786 33.9907 25.2723 39.5088 29.6284 36.9945C33.9835 34.4803 33.1524 24.8845 27.7698 15.5629C22.3882 6.2413 14.4935 0.723162 10.1384 3.23742Z" fill="#FFCC00" fill-opacity="0.301961"/>
<path fill-rule="evenodd" clip-rule="evenodd" d="M36.7616 10.3715C39.2759 14.7276 33.7578 22.6213 24.4362 28.0029C15.1146 33.3844 5.51879 34.2165 3.00453 29.8615C0.490267 25.5054 6.00841 17.6117 15.33 12.2301C24.6516 6.84859 34.2474 6.01646 36.7616 10.3715Z" fill="#FFCC00" fill-opacity="0.301961"/>
<path fill-rule="evenodd" clip-rule="evenodd" d="M3.00453 10.3715C0.490267 14.7276 6.00841 22.6213 15.33 28.0029C24.6516 33.3844 34.2474 34.2165 36.7616 29.8615C39.2759 25.5054 33.7578 17.6117 24.4362 12.2301C15.1146 6.84859 5.51879 6.01646 3.00453 10.3715Z" fill="#FFCC00" fill-opacity="0.301961"/>
<path fill-rule="evenodd" clip-rule="evenodd" d="M39.3726 20.1165C39.3726 15.0869 30.6467 11.0103 19.8826 11.0103C9.11843 11.0103 0.392578 15.0869 0.392578 20.1165C0.392578 25.1461 9.11843 29.2227 19.8826 29.2227C30.6467 29.2227 39.3726 25.1461 39.3726 20.1165Z" fill="#FFCC00" fill-opacity="0.301961"/>
<path d="M45.7856 2.57971V16.5095H47.2177L47.3144 14.6131C47.8565 15.8518 49.0553 16.7806 51.1063 16.7806C54.0082 16.7806 56.1169 14.9419 56.1169 11.5378C56.1169 8.15143 54.0471 6.25602 51.183 6.25602C49.3642 6.25602 48.0288 7.0104 47.3333 8.42251V2.57971H45.7856ZM50.9318 15.3107C48.6687 15.3107 47.3333 13.8986 47.3333 11.5188C47.3333 9.13907 48.6687 7.72696 50.9318 7.72696C53.196 7.72696 54.4915 9.13907 54.4915 11.5188C54.4915 13.8986 53.195 15.3107 50.9318 15.3107ZM68.1513 14.2464L66.7781 13.5309C66.217 14.5563 65.1727 15.3107 63.5662 15.3107C61.6697 15.3107 60.3543 14.2664 60.161 12.1188H68.4613V11.9255C68.4613 7.51367 66.1004 6.25707 63.5851 6.25707C60.6254 6.25707 58.5167 8.07579 58.5167 11.5588C58.5167 14.8863 60.432 16.7827 63.624 16.7827C65.9071 16.7827 67.397 15.815 68.1513 14.2485V14.2464ZM63.4884 7.72591C65.1716 7.72591 66.6226 8.63579 66.8159 10.7245H60.1988C60.4499 8.69253 61.7464 7.72591 63.4874 7.72591H63.4884ZM71.0922 2.57971V14.7686C71.0922 15.9874 71.7888 16.7806 73.1042 16.7806C73.5108 16.7806 73.9164 16.7029 74.2652 16.5873V15.2519L74.2263 15.213C73.8786 15.2908 73.6264 15.3097 73.4331 15.3097C72.872 15.3097 72.6398 15.1164 72.6398 14.6131V2.57866H71.0922V2.57971ZM86.2608 6.52709H84.8287L84.732 8.48135C84.0554 7.03036 82.7 6.25602 80.8624 6.25602C77.9993 6.25602 75.9284 8.15248 75.9284 11.5378C75.9284 14.943 78.0371 16.7806 80.9391 16.7806C82.99 16.7806 84.1899 15.8518 84.731 14.6131L84.8276 16.5095H86.2597V6.52604L86.2608 6.52709ZM81.1146 15.3107C78.8504 15.3107 77.5549 13.8986 77.5549 11.5188C77.5549 9.13907 78.8514 7.72696 81.1146 7.72696C83.3777 7.72696 84.7131 9.13907 84.7131 11.5188C84.7131 13.8986 83.3777 15.3107 81.1146 15.3107ZM90.9814 18.5037V6.52814H89.4338V18.3682C89.4338 18.8715 89.2016 19.1037 88.6216 19.1037C88.3117 19.1037 88.0028 19.0459 87.6539 18.9681L87.6151 19.007V20.3613C87.9828 20.4769 88.4272 20.5746 88.9116 20.5746C90.3815 20.5746 90.9814 19.7236 90.9814 18.5048V18.5037ZM104.118 6.52814H102.686L102.589 8.4824C101.913 7.03141 100.557 6.25707 98.7196 6.25707C95.8566 6.25707 93.7857 8.15353 93.7857 11.5388C93.7857 14.944 95.8944 16.7817 98.7963 16.7817C100.847 16.7817 102.047 15.8529 102.588 14.6141L102.685 16.5106H104.117V6.52709L104.118 6.52814ZM98.9718 15.3118C96.7076 15.3118 95.4121 13.8997 95.4121 11.5199C95.4121 9.14012 96.7086 7.72801 98.9718 7.72801C101.235 7.72801 102.57 9.14012 102.57 11.5199C102.57 13.8997 101.235 15.3118 98.9718 15.3118ZM106.981 6.52814V16.5116H108.529V10.6688C108.529 8.85013 109.612 7.84464 111.488 7.84464C111.856 7.84464 112.204 7.88351 112.592 7.9413V6.43253C112.263 6.37474 111.973 6.35478 111.702 6.35478C110.057 6.35478 109.032 7.05138 108.51 8.32795L108.413 6.52919H106.981V6.52814Z" fill="#333333"/>
<path fill-rule="evenodd" clip-rule="evenodd" d="M103.392 20.5357C103.641 20.9497 103.125 21.7156 102.241 22.2483C101.356 22.781 100.437 22.8777 100.188 22.4637C99.9386 22.0498 100.454 21.2838 101.339 20.7511C102.224 20.2184 103.143 20.1218 103.392 20.5357Z" fill="#FFCC00"/>
<path d="M45.7857 20.2941V33.7332H47.9879L48.1182 31.9418C48.6225 33.1365 49.7047 33.9949 51.5707 33.9949C54.2773 33.9949 56.0876 32.1467 56.0876 28.8802C56.0876 25.6325 54.333 23.7655 51.6642 23.7655C50.0966 23.7655 48.8453 24.3812 48.1739 25.7439V20.2941H45.7847H45.7857ZM50.9372 31.7548C49.2382 31.7548 48.2117 30.6537 48.2117 28.8802C48.2117 27.1066 49.2382 26.0055 50.9372 26.0055C52.6361 26.0055 53.6248 27.1066 53.6248 28.8802C53.6248 30.6537 52.6351 31.7548 50.9372 31.7548ZM67.3813 31.5678L65.4585 30.4289C65.0288 31.2316 64.245 31.8284 62.9947 31.8284C61.5574 31.8284 60.6244 31.0446 60.4185 29.5137H67.7353V29.2899C67.7353 25.0158 65.3461 23.7655 62.9012 23.7655C60.0076 23.7655 57.8989 25.5569 57.8989 28.917C57.8989 32.1089 59.8217 33.9938 62.9201 33.9938C65.1223 33.9938 66.5975 33.0419 67.3813 31.5678ZM62.8266 25.912C64.1704 25.912 65.0477 26.7147 65.2158 28.0586H60.4374C60.6612 26.7704 61.4639 25.912 62.8266 25.912ZM69.8073 20.2941V33.7332H72.1965V31.0078C72.1965 30.5781 72.3268 30.2797 72.663 29.9813L74.1192 28.6742L77.0307 33.7322H79.7183L75.8917 27.1434L79.3075 24.0261H76.1533L72.1965 27.6656V20.293H69.8073V20.2941ZM90.1336 31.5678L88.2109 30.4289C87.7812 31.2316 86.9974 31.8284 85.7471 31.8284C84.3097 31.8284 83.3767 31.0446 83.1708 29.5137H90.4877V29.2899C90.4877 25.0158 88.0985 23.7655 85.6535 23.7655C82.76 23.7655 80.6513 25.5569 80.6513 28.917C80.6513 32.1089 82.574 33.9938 85.6725 33.9938C87.8747 33.9938 89.3498 33.0419 90.1336 31.5678ZM85.5789 25.912C86.9228 25.912 87.8001 26.7147 87.9682 28.0586H83.1897C83.4135 26.7704 84.2162 25.912 85.5789 25.912ZM92.4472 24.0271V33.7332H94.8364V28.8613C94.8364 27.032 95.8818 26.099 97.7111 26.099C98.0662 26.099 98.4014 26.1369 98.7933 26.1926V23.9347C98.4571 23.879 98.1776 23.8601 97.916 23.8601C96.3105 23.8601 95.3029 24.5314 94.8175 25.8017L94.6494 24.0282H92.4472V24.0271ZM102.993 35.096V24.0271H100.622V34.7041C100.622 35.1706 100.38 35.4133 99.8198 35.4133C99.5214 35.4133 99.2041 35.3576 98.8122 35.283L98.7744 35.3208V37.3927C99.3155 37.5798 99.8565 37.6544 100.38 37.6544C102.247 37.6544 102.993 36.6278 102.993 35.097V35.096ZM115.555 24.0271H113.37L113.221 25.8374C112.568 24.419 111.298 23.7655 109.693 23.7655C107.024 23.7655 105.251 25.6325 105.251 28.8802C105.251 32.1467 107.08 33.9949 109.786 33.9949C111.654 33.9949 112.736 33.1365 113.239 31.9418L113.369 33.7332H115.554V24.0271H115.555ZM110.422 31.7548C108.723 31.7548 107.735 30.6537 107.735 28.8802C107.735 27.1066 108.724 26.0055 110.422 26.0055C112.121 26.0055 113.129 27.1066 113.129 28.8802C113.129 30.6537 112.121 31.7548 110.422 31.7548Z" fill="#333333"/>
<path fill-rule="evenodd" clip-rule="evenodd" d="M92.0216 3.23639C92.2706 3.65035 91.7547 4.41735 90.87 4.94899C89.9854 5.48168 89.066 5.57834 88.817 5.16438C88.568 4.75041 89.0839 3.98342 89.9686 3.45178C90.8532 2.91909 91.7726 2.82242 92.0216 3.23639Z" fill="#FFCC00"/>
</g>
<defs>
<clipPath id="clip0_47_2828">
<rect width="116" height="40" fill="white"/>
</clipPath>
</defs>
</svg>
