<svg width="80" height="80" viewBox="0 0 80 80" fill="none" xmlns="http://www.w3.org/2000/svg">
<g filter="url(#filter0_d_392_3706)">
<g clip-path="url(#clip0_392_3706)">
<rect x="8" y="8" width="64" height="64" rx="32" fill="#FFFBEB"/>
<line x1="23.5" y1="8" x2="23.5" y2="72" stroke="#C39F0E" stroke-opacity="0.5"/>
<line x1="72" y1="24.5" x2="8" y2="24.5" stroke="#C39F0E" stroke-opacity="0.5"/>
<line x1="72" y1="56.5" x2="8" y2="56.5" stroke="#C39F0E" stroke-opacity="0.5"/>
<line x1="56.5" y1="8" x2="56.5" y2="72" stroke="#C39F0E" stroke-opacity="0.5"/>
<rect x="24.5" y="25.5" width="31" height="31" rx="15.5" fill="#E4F0FF"/>
<rect x="24.5" y="25.5" width="31" height="31" rx="15.5" stroke="white"/>
<path d="M36.88 38.94L37.41 39.47C37.7 39.76 38.18 39.76 38.47 39.47C38.76 39.18 38.76 38.7 38.47 38.41L37.59 37.53C37.2 37.14 36.57 37.14 36.18 37.53L35.29 38.41C35 38.7 35 39.18 35.29 39.47C35.58 39.76 36.06 39.76 36.35 39.47L36.88 38.94ZM40 46.5C42.03 46.5 43.8 45.39 44.75 43.75C44.94 43.42 44.7 43 44.31 43H35.69C35.31 43 35.06 43.42 35.25 43.75C36.2 45.39 37.97 46.5 40 46.5ZM41.53 39.47C41.82 39.76 42.3 39.76 42.59 39.47L43.12 38.94L43.65 39.47C43.94 39.76 44.42 39.76 44.71 39.47C45 39.18 45 38.7 44.71 38.41L43.83 37.53C43.44 37.14 42.81 37.14 42.42 37.53L41.54 38.41C41.24 38.7 41.24 39.18 41.53 39.47ZM39.99 31C34.47 31 30 35.47 30 41C30 46.53 34.47 51 39.99 51C45.51 51 50 46.53 50 41C50 35.47 45.52 31 39.99 31ZM40 49C35.58 49 32 45.42 32 41C32 36.58 35.58 33 40 33C44.42 33 48 36.58 48 41C48 45.42 44.42 49 40 49Z" fill="#1976E4"/>
<rect x="60.5" y="25.5" width="31" height="31" rx="15.5" fill="#E4F0FF"/>
<rect x="60.5" y="25.5" width="31" height="31" rx="15.5" stroke="white"/>
<path d="M72.88 38.94L73.41 39.47C73.7 39.76 74.18 39.76 74.47 39.47C74.76 39.18 74.76 38.7 74.47 38.41L73.59 37.53C73.2 37.14 72.57 37.14 72.18 37.53L71.29 38.41C71 38.7 71 39.18 71.29 39.47C71.58 39.76 72.06 39.76 72.35 39.47L72.88 38.94ZM76 46.5C78.03 46.5 79.8 45.39 80.75 43.75C80.94 43.42 80.7 43 80.31 43H71.69C71.31 43 71.06 43.42 71.25 43.75C72.2 45.39 73.97 46.5 76 46.5ZM77.53 39.47C77.82 39.76 78.3 39.76 78.59 39.47L79.12 38.94L79.65 39.47C79.94 39.76 80.42 39.76 80.71 39.47C81 39.18 81 38.7 80.71 38.41L79.83 37.53C79.44 37.14 78.81 37.14 78.42 37.53L77.54 38.41C77.24 38.7 77.24 39.18 77.53 39.47ZM75.99 31C70.47 31 66 35.47 66 41C66 46.53 70.47 51 75.99 51C81.51 51 86 46.53 86 41C86 35.47 81.52 31 75.99 31ZM76 49C71.58 49 68 45.42 68 41C68 36.58 71.58 33 76 33C80.42 33 84 36.58 84 41C84 45.42 80.42 49 76 49Z" fill="#1976E4"/>
<rect x="-11.5" y="25.5" width="31" height="31" rx="15.5" fill="#E4F0FF"/>
<rect x="-11.5" y="25.5" width="31" height="31" rx="15.5" stroke="white"/>
<path d="M0.88 38.94L1.41 39.47C1.7 39.76 2.18 39.76 2.47 39.47C2.76 39.18 2.76 38.7 2.47 38.41L1.59 37.53C1.2 37.14 0.57 37.14 0.18 37.53L-0.71 38.41C-1 38.7 -1 39.18 -0.71 39.47C-0.42 39.76 0.0600004 39.76 0.35 39.47L0.88 38.94ZM4 46.5C6.03 46.5 7.8 45.39 8.75 43.75C8.94 43.42 8.7 43 8.31 43H-0.31C-0.69 43 -0.94 43.42 -0.75 43.75C0.2 45.39 1.97 46.5 4 46.5ZM5.53 39.47C5.82 39.76 6.3 39.76 6.59 39.47L7.12 38.94L7.65 39.47C7.94 39.76 8.42 39.76 8.71 39.47C9 39.18 9 38.7 8.71 38.41L7.83 37.53C7.44 37.14 6.81 37.14 6.42 37.53L5.54 38.41C5.24 38.7 5.24 39.18 5.53 39.47ZM3.99 31C-1.53 31 -6 35.47 -6 41C-6 46.53 -1.53 51 3.99 51C9.51 51 14 46.53 14 41C14 35.47 9.52 31 3.99 31ZM4 49C-0.42 49 -4 45.42 -4 41C-4 36.58 -0.42 33 4 33C8.42 33 12 36.58 12 41C12 45.42 8.42 49 4 49Z" fill="#1976E4"/>
<rect x="24.5" y="-10.5" width="31" height="31" rx="15.5" fill="#E4F0FF"/>
<rect x="24.5" y="-10.5" width="31" height="31" rx="15.5" stroke="white"/>
<path d="M36.88 2.94L37.41 3.47C37.7 3.76 38.18 3.76 38.47 3.47C38.76 3.18 38.76 2.7 38.47 2.41L37.59 1.53C37.2 1.14 36.57 1.14 36.18 1.53L35.29 2.41C35 2.7 35 3.18 35.29 3.47C35.58 3.76 36.06 3.76 36.35 3.47L36.88 2.94ZM40 10.5C42.03 10.5 43.8 9.39 44.75 7.75C44.94 7.42 44.7 7 44.31 7H35.69C35.31 7 35.06 7.42 35.25 7.75C36.2 9.39 37.97 10.5 40 10.5ZM41.53 3.47C41.82 3.76 42.3 3.76 42.59 3.47L43.12 2.94L43.65 3.47C43.94 3.76 44.42 3.76 44.71 3.47C45 3.18 45 2.7 44.71 2.41L43.83 1.53C43.44 1.14 42.81 1.14 42.42 1.53L41.54 2.41C41.24 2.7 41.24 3.18 41.53 3.47ZM39.99 -5C34.47 -5 30 -0.53 30 5C30 10.53 34.47 15 39.99 15C45.51 15 50 10.53 50 5C50 -0.53 45.52 -5 39.99 -5ZM40 13C35.58 13 32 9.42 32 5C32 0.58 35.58 -3 40 -3C44.42 -3 48 0.58 48 5C48 9.42 44.42 13 40 13Z" fill="#1976E4"/>
<rect x="24.5" y="61.5" width="31" height="31" rx="15.5" fill="#E4F0FF"/>
<rect x="24.5" y="61.5" width="31" height="31" rx="15.5" stroke="white"/>
<path d="M36.88 74.94L37.41 75.47C37.7 75.76 38.18 75.76 38.47 75.47C38.76 75.18 38.76 74.7 38.47 74.41L37.59 73.53C37.2 73.14 36.57 73.14 36.18 73.53L35.29 74.41C35 74.7 35 75.18 35.29 75.47C35.58 75.76 36.06 75.76 36.35 75.47L36.88 74.94ZM40 82.5C42.03 82.5 43.8 81.39 44.75 79.75C44.94 79.42 44.7 79 44.31 79H35.69C35.31 79 35.06 79.42 35.25 79.75C36.2 81.39 37.97 82.5 40 82.5ZM41.53 75.47C41.82 75.76 42.3 75.76 42.59 75.47L43.12 74.94L43.65 75.47C43.94 75.76 44.42 75.76 44.71 75.47C45 75.18 45 74.7 44.71 74.41L43.83 73.53C43.44 73.14 42.81 73.14 42.42 73.53L41.54 74.41C41.24 74.7 41.24 75.18 41.53 75.47ZM39.99 67C34.47 67 30 71.47 30 77C30 82.53 34.47 87 39.99 87C45.51 87 50 82.53 50 77C50 71.47 45.52 67 39.99 67ZM40 85C35.58 85 32 81.42 32 77C32 72.58 35.58 69 40 69C44.42 69 48 72.58 48 77C48 81.42 44.42 85 40 85Z" fill="#1976E4"/>
</g>
<rect x="10" y="10" width="60" height="60" rx="30" stroke="white" stroke-width="4"/>
</g>
<defs>
<filter id="filter0_d_392_3706" x="0" y="0" width="80" height="80" filterUnits="userSpaceOnUse" color-interpolation-filters="sRGB">
<feFlood flood-opacity="0" result="BackgroundImageFix"/>
<feColorMatrix in="SourceAlpha" type="matrix" values="0 0 0 0 0 0 0 0 0 0 0 0 0 0 0 0 0 0 127 0" result="hardAlpha"/>
<feOffset/>
<feGaussianBlur stdDeviation="4"/>
<feComposite in2="hardAlpha" operator="out"/>
<feColorMatrix type="matrix" values="0 0 0 0 0 0 0 0 0 0 0 0 0 0 0 0 0 0 0.08 0"/>
<feBlend mode="normal" in2="BackgroundImageFix" result="effect1_dropShadow_392_3706"/>
<feBlend mode="normal" in="SourceGraphic" in2="effect1_dropShadow_392_3706" result="shape"/>
</filter>
<clipPath id="clip0_392_3706">
<rect x="8" y="8" width="64" height="64" rx="32" fill="white"/>
</clipPath>
</defs>
</svg>
