<svg width="568" height="164" viewBox="0 0 568 164" fill="none" xmlns="http://www.w3.org/2000/svg">
<g filter="url(#filter0_d_116_1462)">
<g clip-path="url(#clip0_116_1462)">
<rect x="8" y="8" width="552" height="148" rx="24" fill="#F6F9FA" fill-opacity="0.86" shape-rendering="crispEdges"/>
<line x1="32.5" y1="8" x2="32.5" y2="156" stroke="#EAF5FF"/>
<line x1="56.5" y1="8" x2="56.5" y2="156" stroke="#EAF5FF"/>
<line x1="80.5" y1="8" x2="80.5" y2="156" stroke="#EAF5FF"/>
<line x1="104.5" y1="8" x2="104.5" y2="156" stroke="#EAF5FF"/>
<line x1="128.5" y1="8" x2="128.5" y2="156" stroke="#EAF5FF"/>
<line x1="152.5" y1="8" x2="152.5" y2="156" stroke="#EAF5FF"/>
<line x1="176.5" y1="8" x2="176.5" y2="156" stroke="#EAF5FF"/>
<line x1="200.5" y1="8" x2="200.5" y2="156" stroke="#EAF5FF"/>
<line x1="224.5" y1="8" x2="224.5" y2="156" stroke="#EAF5FF"/>
<line x1="248.5" y1="8" x2="248.5" y2="156" stroke="#EAF5FF"/>
<line x1="272.5" y1="8" x2="272.5" y2="156" stroke="#EAF5FF"/>
<line x1="296.5" y1="8" x2="296.5" y2="156" stroke="#EAF5FF"/>
<line x1="320.5" y1="8" x2="320.5" y2="156" stroke="#EAF5FF"/>
<line x1="344.5" y1="8" x2="344.5" y2="156" stroke="#EAF5FF"/>
<line x1="368.5" y1="8" x2="368.5" y2="156" stroke="#EAF5FF"/>
<line x1="392.5" y1="8" x2="392.5" y2="156" stroke="#EAF5FF"/>
<line x1="416.5" y1="8" x2="416.5" y2="156" stroke="#EAF5FF"/>
<line x1="440.5" y1="8" x2="440.5" y2="156" stroke="#EAF5FF"/>
<line x1="464.5" y1="8" x2="464.5" y2="156" stroke="#EAF5FF"/>
<line x1="488.5" y1="8" x2="488.5" y2="156" stroke="#EAF5FF"/>
<line x1="512.5" y1="8" x2="512.5" y2="156" stroke="#EAF5FF"/>
<line x1="536.5" y1="8" x2="536.5" y2="156" stroke="#EAF5FF"/>
<line x1="560" y1="32.5" x2="8" y2="32.5" stroke="#EAF5FF"/>
<line x1="560" y1="56.5" x2="8" y2="56.5" stroke="#EAF5FF"/>
<line x1="560" y1="80.5" x2="8" y2="80.5" stroke="#EAF5FF"/>
<line x1="560" y1="104.5" x2="8" y2="104.5" stroke="#EAF5FF"/>
<line x1="560" y1="128.5" x2="8" y2="128.5" stroke="#EAF5FF"/>
<rect x="260" y="58" width="48" height="48" rx="6" fill="#1976E4"/>
<path d="M281.619 80.9384C284.564 80.9384 286.952 78.5506 286.952 75.6051C286.952 72.6595 284.564 70.2717 281.619 70.2717C278.673 70.2717 276.285 72.6595 276.285 75.6051C276.285 78.5506 278.673 80.9384 281.619 80.9384Z" fill="white"/>
<path d="M282.085 83.6184C278.445 83.4851 270.952 85.2984 270.952 88.9384V90.2717C270.952 91.0051 271.552 91.6051 272.285 91.6051H283.672C280.379 87.9251 282.032 83.7517 282.085 83.6184Z" fill="white"/>
<path d="M294.192 88.9651C294.819 87.8984 295.125 86.6051 294.832 85.2051C294.379 83.0184 292.539 81.2717 290.325 80.9917C286.819 80.5384 283.859 83.4851 284.325 86.9917C284.619 89.2051 286.352 91.0451 288.539 91.4984C289.939 91.7917 291.232 91.4851 292.299 90.8584L294.779 93.3384C295.299 93.8584 296.139 93.8584 296.659 93.3384C297.179 92.8184 297.179 91.9784 296.659 91.4584L294.192 88.9651ZM289.619 88.9384C288.152 88.9384 286.952 87.7384 286.952 86.2717C286.952 84.8051 288.152 83.6051 289.619 83.6051C291.085 83.6051 292.285 84.8051 292.285 86.2717C292.285 87.7384 291.085 88.9384 289.619 88.9384Z" fill="white"/>
<path d="M309.5 80.5H349" stroke="#1976E4" stroke-width="2" stroke-linecap="round"/>
<path d="M296 57V32H421" stroke="#1976E4" stroke-opacity="0.2" stroke-width="2" stroke-linecap="round" stroke-linejoin="round"/>
<path d="M272 57V32H147" stroke="#1976E4" stroke-opacity="0.2" stroke-width="2" stroke-linecap="round" stroke-linejoin="round"/>
<path d="M272 107V128H147" stroke="#1976E4" stroke-opacity="0.2" stroke-width="2" stroke-linecap="round" stroke-linejoin="round"/>
<path d="M297 107V128H422" stroke="#1976E4" stroke-opacity="0.2" stroke-width="2" stroke-linecap="round" stroke-linejoin="round"/>
<path d="M219 80.5H258.5" stroke="#1976E4" stroke-width="2" stroke-linecap="round"/>
<g filter="url(#filter1_d_116_1462)">
<rect x="182" y="64" width="36" height="36" rx="6" fill="#E4F0FF" shape-rendering="crispEdges"/>
<rect x="182.5" y="64.5" width="35" height="35" rx="5.5" stroke="white" shape-rendering="crispEdges"/>
<path d="M200 77.8333V74.5H191.667V89.5H208.334V77.8333H200ZM198.334 87.8333H193.334V86.1667H198.334V87.8333ZM198.334 84.5H193.334V82.8333H198.334V84.5ZM198.334 81.1667H193.334V79.5H198.334V81.1667ZM198.334 77.8333H193.334V76.1667H198.334V77.8333ZM206.667 87.8333H200V79.5H206.667V87.8333ZM205 81.1667H201.667V82.8333H205V81.1667ZM205 84.5H201.667V86.1667H205V84.5Z" fill="#1976E4"/>
</g>
<g opacity="0.2" filter="url(#filter2_d_116_1462)">
<rect x="-4" y="64" width="36" height="36" rx="6" fill="#E4F0FF" shape-rendering="crispEdges"/>
<rect x="-3.5" y="64.5" width="35" height="35" rx="5.5" stroke="white" shape-rendering="crispEdges"/>
<path d="M18.1667 81.1667V74.5H9.83333V77.8333H6.5V89.5H13.1667V86.1667H14.8333V89.5H21.5V81.1667H18.1667ZM9.83333 87.8333H8.16667V86.1667H9.83333V87.8333ZM9.83333 84.5H8.16667V82.8333H9.83333V84.5ZM9.83333 81.1667H8.16667V79.5H9.83333V81.1667ZM13.1667 84.5H11.5V82.8333H13.1667V84.5ZM13.1667 81.1667H11.5V79.5H13.1667V81.1667ZM13.1667 77.8333H11.5V76.1667H13.1667V77.8333ZM16.5 84.5H14.8333V82.8333H16.5V84.5ZM16.5 81.1667H14.8333V79.5H16.5V81.1667ZM16.5 77.8333H14.8333V76.1667H16.5V77.8333ZM19.8333 87.8333H18.1667V86.1667H19.8333V87.8333ZM19.8333 84.5H18.1667V82.8333H19.8333V84.5Z" fill="#1976E4"/>
</g>
<g opacity="0.5" filter="url(#filter3_d_116_1462)">
<rect x="110" y="110" width="36" height="36" rx="6" fill="#E4F0FF" shape-rendering="crispEdges"/>
<rect x="110.5" y="110.5" width="35" height="35" rx="5.5" stroke="white" shape-rendering="crispEdges"/>
<path d="M128 123.833V120.5H119.667V135.5H136.334V123.833H128ZM123 133.833H121.334V132.167H123V133.833ZM123 130.5H121.334V128.833H123V130.5ZM123 127.167H121.334V125.5H123V127.167ZM123 123.833H121.334V122.167H123V123.833ZM126.334 133.833H124.667V132.167H126.334V133.833ZM126.334 130.5H124.667V128.833H126.334V130.5ZM126.334 127.167H124.667V125.5H126.334V127.167ZM126.334 123.833H124.667V122.167H126.334V123.833ZM134.667 133.833H128V132.167H129.667V130.5H128V128.833H129.667V127.167H128V125.5H134.667V133.833ZM133 127.167H131.334V128.833H133V127.167ZM133 130.5H131.334V132.167H133V130.5Z" fill="#1976E4"/>
</g>
<g opacity="0.5" filter="url(#filter4_d_116_1462)">
<rect x="110" y="14" width="36" height="36" rx="6" fill="#E4F0FF" shape-rendering="crispEdges"/>
<rect x="110.5" y="14.5" width="35" height="35" rx="5.5" stroke="white" shape-rendering="crispEdges"/>
<path d="M128 27.8333V24.5H119.667V39.5H136.334V27.8333H128ZM126.334 37.8333H121.334V36.1667H126.334V37.8333ZM126.334 34.5H121.334V32.8333H126.334V34.5ZM126.334 31.1667H121.334V29.5H126.334V31.1667ZM126.334 27.8333H121.334V26.1667H126.334V27.8333ZM134.667 37.8333H128V29.5H134.667V37.8333ZM133 31.1667H129.667V32.8333H133V31.1667ZM133 34.5H129.667V36.1667H133V34.5Z" fill="#1976E4"/>
</g>
<g filter="url(#filter5_d_116_1462)">
<rect x="350" y="64" width="36" height="36" rx="6" fill="#E4F0FF" shape-rendering="crispEdges"/>
<rect x="350.5" y="64.5" width="35" height="35" rx="5.5" stroke="white" shape-rendering="crispEdges"/>
<path d="M373.833 77.8333H372.166V79.5H373.833V77.8333Z" fill="#1976E4"/>
<path d="M373.833 81.1667H372.166V82.8333H373.833V81.1667Z" fill="#1976E4"/>
<path d="M373.833 84.5H372.166V86.1667H373.833V84.5Z" fill="#1976E4"/>
<path d="M358.833 81.1667V89.5H363.833V85.3333H365.5V89.5H370.5V81.1667L364.666 77L358.833 81.1667ZM368.833 87.8333H367.166V83.6667H362.166V87.8333H360.5V82L364.666 79.0833L368.833 82V87.8333Z" fill="#1976E4"/>
<path d="M366.333 74.5V76.1417L368 77.3333V76.1667H375.5V87.8333H372.166V89.5H377.166V74.5H366.333Z" fill="#1976E4"/>
</g>
<g opacity="0.5" filter="url(#filter6_d_116_1462)">
<rect x="422" y="14" width="36" height="36" rx="6" fill="#E4F0FF" shape-rendering="crispEdges"/>
<rect x="422.5" y="14.5" width="35" height="35" rx="5.5" stroke="white" shape-rendering="crispEdges"/>
<path d="M440 27.8333V24.5H431.667V39.5H448.334V27.8333H440ZM435 37.8333H433.334V36.1667H435V37.8333ZM435 34.5H433.334V32.8333H435V34.5ZM435 31.1667H433.334V29.5H435V31.1667ZM435 27.8333H433.334V26.1667H435V27.8333ZM438.334 37.8333H436.667V36.1667H438.334V37.8333ZM438.334 34.5H436.667V32.8333H438.334V34.5ZM438.334 31.1667H436.667V29.5H438.334V31.1667ZM438.334 27.8333H436.667V26.1667H438.334V27.8333ZM446.667 37.8333H440V36.1667H441.667V34.5H440V32.8333H441.667V31.1667H440V29.5H446.667V37.8333ZM445 31.1667H443.334V32.8333H445V31.1667ZM445 34.5H443.334V36.1667H445V34.5Z" fill="#1976E4"/>
</g>
<g opacity="0.5" filter="url(#filter7_d_116_1462)">
<rect x="422" y="110" width="36" height="36" rx="6" fill="#E4F0FF" shape-rendering="crispEdges"/>
<rect x="422.5" y="110.5" width="35" height="35" rx="5.5" stroke="white" shape-rendering="crispEdges"/>
<path d="M444.167 127.167V120.5H435.833V123.833H432.5V135.5H439.167V132.167H440.833V135.5H447.5V127.167H444.167ZM435.833 133.833H434.167V132.167H435.833V133.833ZM435.833 130.5H434.167V128.833H435.833V130.5ZM435.833 127.167H434.167V125.5H435.833V127.167ZM439.167 130.5H437.5V128.833H439.167V130.5ZM439.167 127.167H437.5V125.5H439.167V127.167ZM439.167 123.833H437.5V122.167H439.167V123.833ZM442.5 130.5H440.833V128.833H442.5V130.5ZM442.5 127.167H440.833V125.5H442.5V127.167ZM442.5 123.833H440.833V122.167H442.5V123.833ZM445.833 133.833H444.167V132.167H445.833V133.833ZM445.833 130.5H444.167V128.833H445.833V130.5Z" fill="#1976E4"/>
</g>
<g opacity="0.2" filter="url(#filter8_d_116_1462)">
<rect x="536" y="64" width="36" height="36" rx="6" fill="#E4F0FF" shape-rendering="crispEdges"/>
<rect x="536.5" y="64.5" width="35" height="35" rx="5.5" stroke="white" shape-rendering="crispEdges"/>
<path d="M559.833 77.8333H558.166V79.5H559.833V77.8333Z" fill="#1976E4"/>
<path d="M559.833 81.1667H558.166V82.8333H559.833V81.1667Z" fill="#1976E4"/>
<path d="M559.833 84.5H558.166V86.1667H559.833V84.5Z" fill="#1976E4"/>
<path d="M544.833 81.1667V89.5H549.833V85.3333H551.5V89.5H556.5V81.1667L550.666 77L544.833 81.1667ZM554.833 87.8333H553.166V83.6667H548.166V87.8333H546.5V82L550.666 79.0833L554.833 82V87.8333Z" fill="#1976E4"/>
<path d="M552.333 74.5V76.1417L554 77.3333V76.1667H561.5V87.8333H558.166V89.5H563.166V74.5H552.333Z" fill="#1976E4"/>
</g>
</g>
<rect x="10" y="10" width="548" height="144" rx="22" stroke="white" stroke-width="4" shape-rendering="crispEdges"/>
</g>
<defs>
<filter id="filter0_d_116_1462" x="0" y="0" width="568" height="164" filterUnits="userSpaceOnUse" color-interpolation-filters="sRGB">
<feFlood flood-opacity="0" result="BackgroundImageFix"/>
<feColorMatrix in="SourceAlpha" type="matrix" values="0 0 0 0 0 0 0 0 0 0 0 0 0 0 0 0 0 0 127 0" result="hardAlpha"/>
<feOffset/>
<feGaussianBlur stdDeviation="4"/>
<feComposite in2="hardAlpha" operator="out"/>
<feColorMatrix type="matrix" values="0 0 0 0 0 0 0 0 0 0 0 0 0 0 0 0 0 0 0.05 0"/>
<feBlend mode="normal" in2="BackgroundImageFix" result="effect1_dropShadow_116_1462"/>
<feBlend mode="normal" in="SourceGraphic" in2="effect1_dropShadow_116_1462" result="shape"/>
</filter>
<filter id="filter1_d_116_1462" x="177" y="59" width="46" height="46" filterUnits="userSpaceOnUse" color-interpolation-filters="sRGB">
<feFlood flood-opacity="0" result="BackgroundImageFix"/>
<feColorMatrix in="SourceAlpha" type="matrix" values="0 0 0 0 0 0 0 0 0 0 0 0 0 0 0 0 0 0 127 0" result="hardAlpha"/>
<feOffset/>
<feGaussianBlur stdDeviation="2.5"/>
<feComposite in2="hardAlpha" operator="out"/>
<feColorMatrix type="matrix" values="0 0 0 0 0 0 0 0 0 0 0 0 0 0 0 0 0 0 0.15 0"/>
<feBlend mode="normal" in2="BackgroundImageFix" result="effect1_dropShadow_116_1462"/>
<feBlend mode="normal" in="SourceGraphic" in2="effect1_dropShadow_116_1462" result="shape"/>
</filter>
<filter id="filter2_d_116_1462" x="-9" y="59" width="46" height="46" filterUnits="userSpaceOnUse" color-interpolation-filters="sRGB">
<feFlood flood-opacity="0" result="BackgroundImageFix"/>
<feColorMatrix in="SourceAlpha" type="matrix" values="0 0 0 0 0 0 0 0 0 0 0 0 0 0 0 0 0 0 127 0" result="hardAlpha"/>
<feOffset/>
<feGaussianBlur stdDeviation="2.5"/>
<feComposite in2="hardAlpha" operator="out"/>
<feColorMatrix type="matrix" values="0 0 0 0 0 0 0 0 0 0 0 0 0 0 0 0 0 0 0.15 0"/>
<feBlend mode="normal" in2="BackgroundImageFix" result="effect1_dropShadow_116_1462"/>
<feBlend mode="normal" in="SourceGraphic" in2="effect1_dropShadow_116_1462" result="shape"/>
</filter>
<filter id="filter3_d_116_1462" x="105" y="105" width="46" height="46" filterUnits="userSpaceOnUse" color-interpolation-filters="sRGB">
<feFlood flood-opacity="0" result="BackgroundImageFix"/>
<feColorMatrix in="SourceAlpha" type="matrix" values="0 0 0 0 0 0 0 0 0 0 0 0 0 0 0 0 0 0 127 0" result="hardAlpha"/>
<feOffset/>
<feGaussianBlur stdDeviation="2.5"/>
<feComposite in2="hardAlpha" operator="out"/>
<feColorMatrix type="matrix" values="0 0 0 0 0 0 0 0 0 0 0 0 0 0 0 0 0 0 0.15 0"/>
<feBlend mode="normal" in2="BackgroundImageFix" result="effect1_dropShadow_116_1462"/>
<feBlend mode="normal" in="SourceGraphic" in2="effect1_dropShadow_116_1462" result="shape"/>
</filter>
<filter id="filter4_d_116_1462" x="105" y="9" width="46" height="46" filterUnits="userSpaceOnUse" color-interpolation-filters="sRGB">
<feFlood flood-opacity="0" result="BackgroundImageFix"/>
<feColorMatrix in="SourceAlpha" type="matrix" values="0 0 0 0 0 0 0 0 0 0 0 0 0 0 0 0 0 0 127 0" result="hardAlpha"/>
<feOffset/>
<feGaussianBlur stdDeviation="2.5"/>
<feComposite in2="hardAlpha" operator="out"/>
<feColorMatrix type="matrix" values="0 0 0 0 0 0 0 0 0 0 0 0 0 0 0 0 0 0 0.15 0"/>
<feBlend mode="normal" in2="BackgroundImageFix" result="effect1_dropShadow_116_1462"/>
<feBlend mode="normal" in="SourceGraphic" in2="effect1_dropShadow_116_1462" result="shape"/>
</filter>
<filter id="filter5_d_116_1462" x="345" y="59" width="46" height="46" filterUnits="userSpaceOnUse" color-interpolation-filters="sRGB">
<feFlood flood-opacity="0" result="BackgroundImageFix"/>
<feColorMatrix in="SourceAlpha" type="matrix" values="0 0 0 0 0 0 0 0 0 0 0 0 0 0 0 0 0 0 127 0" result="hardAlpha"/>
<feOffset/>
<feGaussianBlur stdDeviation="2.5"/>
<feComposite in2="hardAlpha" operator="out"/>
<feColorMatrix type="matrix" values="0 0 0 0 0 0 0 0 0 0 0 0 0 0 0 0 0 0 0.15 0"/>
<feBlend mode="normal" in2="BackgroundImageFix" result="effect1_dropShadow_116_1462"/>
<feBlend mode="normal" in="SourceGraphic" in2="effect1_dropShadow_116_1462" result="shape"/>
</filter>
<filter id="filter6_d_116_1462" x="417" y="9" width="46" height="46" filterUnits="userSpaceOnUse" color-interpolation-filters="sRGB">
<feFlood flood-opacity="0" result="BackgroundImageFix"/>
<feColorMatrix in="SourceAlpha" type="matrix" values="0 0 0 0 0 0 0 0 0 0 0 0 0 0 0 0 0 0 127 0" result="hardAlpha"/>
<feOffset/>
<feGaussianBlur stdDeviation="2.5"/>
<feComposite in2="hardAlpha" operator="out"/>
<feColorMatrix type="matrix" values="0 0 0 0 0 0 0 0 0 0 0 0 0 0 0 0 0 0 0.15 0"/>
<feBlend mode="normal" in2="BackgroundImageFix" result="effect1_dropShadow_116_1462"/>
<feBlend mode="normal" in="SourceGraphic" in2="effect1_dropShadow_116_1462" result="shape"/>
</filter>
<filter id="filter7_d_116_1462" x="417" y="105" width="46" height="46" filterUnits="userSpaceOnUse" color-interpolation-filters="sRGB">
<feFlood flood-opacity="0" result="BackgroundImageFix"/>
<feColorMatrix in="SourceAlpha" type="matrix" values="0 0 0 0 0 0 0 0 0 0 0 0 0 0 0 0 0 0 127 0" result="hardAlpha"/>
<feOffset/>
<feGaussianBlur stdDeviation="2.5"/>
<feComposite in2="hardAlpha" operator="out"/>
<feColorMatrix type="matrix" values="0 0 0 0 0 0 0 0 0 0 0 0 0 0 0 0 0 0 0.15 0"/>
<feBlend mode="normal" in2="BackgroundImageFix" result="effect1_dropShadow_116_1462"/>
<feBlend mode="normal" in="SourceGraphic" in2="effect1_dropShadow_116_1462" result="shape"/>
</filter>
<filter id="filter8_d_116_1462" x="531" y="59" width="46" height="46" filterUnits="userSpaceOnUse" color-interpolation-filters="sRGB">
<feFlood flood-opacity="0" result="BackgroundImageFix"/>
<feColorMatrix in="SourceAlpha" type="matrix" values="0 0 0 0 0 0 0 0 0 0 0 0 0 0 0 0 0 0 127 0" result="hardAlpha"/>
<feOffset/>
<feGaussianBlur stdDeviation="2.5"/>
<feComposite in2="hardAlpha" operator="out"/>
<feColorMatrix type="matrix" values="0 0 0 0 0 0 0 0 0 0 0 0 0 0 0 0 0 0 0.15 0"/>
<feBlend mode="normal" in2="BackgroundImageFix" result="effect1_dropShadow_116_1462"/>
<feBlend mode="normal" in="SourceGraphic" in2="effect1_dropShadow_116_1462" result="shape"/>
</filter>
<clipPath id="clip0_116_1462">
<rect x="8" y="8" width="552" height="148" rx="24" fill="white"/>
</clipPath>
</defs>
</svg>
