<svg width="568" height="164" viewBox="0 0 568 164" fill="none" xmlns="http://www.w3.org/2000/svg">
<g filter="url(#filter0_d_116_1340)">
<g clip-path="url(#clip0_116_1340)">
<rect x="8" y="8" width="552" height="148" rx="24" fill="#F6F9FA" fill-opacity="0.86" shape-rendering="crispEdges"/>
<line x1="32.5" y1="8" x2="32.5" y2="156" stroke="#EAF5FF"/>
<line x1="56.5" y1="8" x2="56.5" y2="156" stroke="#EAF5FF"/>
<line x1="80.5" y1="8" x2="80.5" y2="156" stroke="#EAF5FF"/>
<line x1="104.5" y1="8" x2="104.5" y2="156" stroke="#EAF5FF"/>
<line x1="128.5" y1="8" x2="128.5" y2="156" stroke="#EAF5FF"/>
<line x1="152.5" y1="8" x2="152.5" y2="156" stroke="#EAF5FF"/>
<line x1="176.5" y1="8" x2="176.5" y2="156" stroke="#EAF5FF"/>
<line x1="200.5" y1="8" x2="200.5" y2="156" stroke="#EAF5FF"/>
<line x1="224.5" y1="8" x2="224.5" y2="156" stroke="#EAF5FF"/>
<line x1="248.5" y1="8" x2="248.5" y2="156" stroke="#EAF5FF"/>
<line x1="272.5" y1="8" x2="272.5" y2="156" stroke="#EAF5FF"/>
<line x1="296.5" y1="8" x2="296.5" y2="156" stroke="#EAF5FF"/>
<line x1="320.5" y1="8" x2="320.5" y2="156" stroke="#EAF5FF"/>
<line x1="344.5" y1="8" x2="344.5" y2="156" stroke="#EAF5FF"/>
<line x1="368.5" y1="8" x2="368.5" y2="156" stroke="#EAF5FF"/>
<line x1="392.5" y1="8" x2="392.5" y2="156" stroke="#EAF5FF"/>
<line x1="416.5" y1="8" x2="416.5" y2="156" stroke="#EAF5FF"/>
<line x1="440.5" y1="8" x2="440.5" y2="156" stroke="#EAF5FF"/>
<line x1="464.5" y1="8" x2="464.5" y2="156" stroke="#EAF5FF"/>
<line x1="488.5" y1="8" x2="488.5" y2="156" stroke="#EAF5FF"/>
<line x1="512.5" y1="8" x2="512.5" y2="156" stroke="#EAF5FF"/>
<line x1="536.5" y1="8" x2="536.5" y2="156" stroke="#EAF5FF"/>
<line x1="560" y1="32.5" x2="8" y2="32.5" stroke="#EAF5FF"/>
<line x1="560" y1="56.5" x2="8" y2="56.5" stroke="#EAF5FF"/>
<line x1="560" y1="80.5" x2="8" y2="80.5" stroke="#EAF5FF"/>
<line x1="560" y1="104.5" x2="8" y2="104.5" stroke="#EAF5FF"/>
<line x1="560" y1="128.5" x2="8" y2="128.5" stroke="#EAF5FF"/>
<rect x="392.5" y="62.5" width="148" height="39" rx="3.5" fill="white"/>
<rect x="392.5" y="62.5" width="148" height="39" rx="3.5" stroke="#1976E4"/>
<rect x="408" y="70" width="24" height="24" rx="12" fill="#E4F0FF"/>
<path d="M424.94 78.9399L421.72 75.7199C421.473 75.4733 421.133 75.3333 420.78 75.3333H416C415.267 75.3333 414.673 75.9333 414.673 76.6666L414.667 87.3333C414.667 88.0666 415.26 88.6666 415.993 88.6666H424C424.733 88.6666 425.333 88.0666 425.333 87.3333V79.8866C425.333 79.5333 425.193 79.1933 424.94 78.9399ZM418.82 85.5266L417.407 84.1133C417.147 83.8533 417.147 83.4333 417.407 83.1733C417.667 82.9133 418.087 82.9133 418.347 83.1733L419.287 84.1133L421.647 81.7533C421.907 81.4933 422.327 81.4933 422.587 81.7533C422.847 82.0133 422.847 82.4333 422.587 82.6933L419.76 85.5199C419.507 85.7866 419.08 85.7866 418.82 85.5266ZM421.333 79.9999C420.967 79.9999 420.667 79.6999 420.667 79.3333V76.3333L424.333 79.9999H421.333Z" fill="#1976E4"/>
<path d="M424.94 78.9399L421.72 75.7199C421.473 75.4733 421.133 75.3333 420.78 75.3333H416C415.267 75.3333 414.673 75.9333 414.673 76.6666L414.667 87.3333C414.667 88.0666 415.26 88.6666 415.993 88.6666H424C424.733 88.6666 425.333 88.0666 425.333 87.3333V79.8866C425.333 79.5333 425.193 79.1933 424.94 78.9399ZM418.82 85.5266L417.407 84.1133C417.147 83.8533 417.147 83.4333 417.407 83.1733C417.667 82.9133 418.087 82.9133 418.347 83.1733L419.287 84.1133L421.647 81.7533C421.907 81.4933 422.327 81.4933 422.587 81.7533C422.847 82.0133 422.847 82.4333 422.587 82.6933L419.76 85.5199C419.507 85.7866 419.08 85.7866 418.82 85.5266ZM421.333 79.9999C420.967 79.9999 420.667 79.6999 420.667 79.3333V76.3333L424.333 79.9999H421.333Z" stroke="black"/>
<rect x="438" y="78" width="87" height="8" rx="4" fill="#1976E4" fill-opacity="0.2"/>
<rect x="28.5" y="62.5" width="148" height="39" rx="3.5" fill="white"/>
<rect x="28.5" y="62.5" width="148" height="39" rx="3.5" stroke="#1976E4"/>
<rect x="44" y="70" width="24" height="24" rx="12" fill="#E4F0FF"/>
<path d="M60.9398 78.9399L57.7198 75.7199C57.4732 75.4733 57.1332 75.3333 56.7798 75.3333H51.9998C51.2665 75.3333 50.6732 75.9333 50.6732 76.6666L50.6665 87.3333C50.6665 88.0666 51.2598 88.6666 51.9932 88.6666H59.9998C60.7332 88.6666 61.3332 88.0666 61.3332 87.3333V79.8866C61.3332 79.5333 61.1932 79.1933 60.9398 78.9399ZM54.8198 85.5266L53.4065 84.1133C53.1465 83.8533 53.1465 83.4333 53.4065 83.1733C53.6665 82.9133 54.0865 82.9133 54.3465 83.1733L55.2865 84.1133L57.6465 81.7533C57.9065 81.4933 58.3265 81.4933 58.5865 81.7533C58.8465 82.0133 58.8465 82.4333 58.5865 82.6933L55.7598 85.5199C55.5065 85.7866 55.0798 85.7866 54.8198 85.5266ZM57.3332 79.9999C56.9665 79.9999 56.6665 79.6999 56.6665 79.3333V76.3333L60.3332 79.9999H57.3332Z" fill="#1976E4"/>
<path d="M60.9398 78.9399L57.7198 75.7199C57.4732 75.4733 57.1332 75.3333 56.7798 75.3333H51.9998C51.2665 75.3333 50.6732 75.9333 50.6732 76.6666L50.6665 87.3333C50.6665 88.0666 51.2598 88.6666 51.9932 88.6666H59.9998C60.7332 88.6666 61.3332 88.0666 61.3332 87.3333V79.8866C61.3332 79.5333 61.1932 79.1933 60.9398 78.9399ZM54.8198 85.5266L53.4065 84.1133C53.1465 83.8533 53.1465 83.4333 53.4065 83.1733C53.6665 82.9133 54.0865 82.9133 54.3465 83.1733L55.2865 84.1133L57.6465 81.7533C57.9065 81.4933 58.3265 81.4933 58.5865 81.7533C58.8465 82.0133 58.8465 82.4333 58.5865 82.6933L55.7598 85.5199C55.5065 85.7866 55.0798 85.7866 54.8198 85.5266ZM57.3332 79.9999C56.9665 79.9999 56.6665 79.6999 56.6665 79.3333V76.3333L60.3332 79.9999H57.3332Z" stroke="black"/>
<rect x="74" y="78" width="87" height="8" rx="4" fill="#1976E4" fill-opacity="0.2"/>
<rect x="210.5" y="62.5" width="148" height="39" rx="3.5" fill="white"/>
<rect x="210.5" y="62.5" width="148" height="39" rx="3.5" stroke="#1976E4"/>
<rect x="226" y="70" width="24" height="24" rx="12" fill="#E4F0FF"/>
<path d="M242.94 78.9399L239.72 75.7199C239.473 75.4733 239.133 75.3333 238.78 75.3333H234C233.267 75.3333 232.673 75.9333 232.673 76.6666L232.667 87.3333C232.667 88.0666 233.26 88.6666 233.993 88.6666H242C242.733 88.6666 243.333 88.0666 243.333 87.3333V79.8866C243.333 79.5333 243.193 79.1933 242.94 78.9399ZM236.82 85.5266L235.407 84.1133C235.147 83.8533 235.147 83.4333 235.407 83.1733C235.667 82.9133 236.087 82.9133 236.347 83.1733L237.287 84.1133L239.647 81.7533C239.907 81.4933 240.327 81.4933 240.587 81.7533C240.847 82.0133 240.847 82.4333 240.587 82.6933L237.76 85.5199C237.507 85.7866 237.08 85.7866 236.82 85.5266ZM239.333 79.9999C238.967 79.9999 238.667 79.6999 238.667 79.3333V76.3333L242.333 79.9999H239.333Z" fill="#1976E4"/>
<path d="M242.94 78.9399L239.72 75.7199C239.473 75.4733 239.133 75.3333 238.78 75.3333H234C233.267 75.3333 232.673 75.9333 232.673 76.6666L232.667 87.3333C232.667 88.0666 233.26 88.6666 233.993 88.6666H242C242.733 88.6666 243.333 88.0666 243.333 87.3333V79.8866C243.333 79.5333 243.193 79.1933 242.94 78.9399ZM236.82 85.5266L235.407 84.1133C235.147 83.8533 235.147 83.4333 235.407 83.1733C235.667 82.9133 236.087 82.9133 236.347 83.1733L237.287 84.1133L239.647 81.7533C239.907 81.4933 240.327 81.4933 240.587 81.7533C240.847 82.0133 240.847 82.4333 240.587 82.6933L237.76 85.5199C237.507 85.7866 237.08 85.7866 236.82 85.5266ZM239.333 79.9999C238.967 79.9999 238.667 79.6999 238.667 79.3333V76.3333L242.333 79.9999H239.333Z" stroke="black"/>
<path d="M257.296 76.48H259.04V82.032L264.192 76.48H266.416L262.288 80.864L266.736 88H264.768L261.104 82.144L259.456 83.904C259.168 84.24 259.04 84.544 259.04 84.992V88H257.296V76.48ZM272.009 88.224C269.513 88.224 267.689 86.656 267.689 83.856C267.689 81.04 269.545 79.488 272.009 79.488C274.473 79.488 276.329 81.04 276.329 83.856C276.329 86.656 274.505 88.224 272.009 88.224ZM272.009 86.64C273.481 86.64 274.569 85.744 274.569 83.856C274.569 81.968 273.481 81.072 272.009 81.072C270.537 81.072 269.433 81.968 269.433 83.856C269.433 85.744 270.537 86.64 272.009 86.64ZM278.398 76.48H280.078V86.064C280.078 86.48 280.27 86.64 280.734 86.64C280.894 86.64 281.118 86.624 281.406 86.544L281.454 86.592V88.032C281.15 88.144 280.766 88.224 280.35 88.224C279.086 88.224 278.398 87.488 278.398 86.272V76.48ZM291.371 79.712V88H289.835L289.723 86.448C289.291 87.472 288.331 88.224 286.683 88.224C284.331 88.224 282.683 86.672 282.683 83.872C282.683 81.072 284.283 79.488 286.619 79.488C288.059 79.488 289.163 80.08 289.723 81.296L289.835 79.712H291.371ZM287.035 86.64C288.699 86.64 289.675 85.584 289.675 83.856C289.675 82.128 288.699 81.072 287.035 81.072C285.387 81.072 284.427 82.128 284.427 83.856C284.427 85.584 285.387 86.64 287.035 86.64ZM293.595 76.48H295.275V81.232C295.851 80.064 296.939 79.488 298.347 79.488C300.683 79.488 302.283 81.072 302.283 83.872C302.283 86.672 300.635 88.224 298.283 88.224C296.635 88.224 295.675 87.472 295.243 86.448L295.147 88H293.595V76.48ZM297.931 86.64C299.579 86.64 300.539 85.584 300.539 83.856C300.539 82.128 299.579 81.072 297.931 81.072C296.283 81.072 295.291 82.128 295.291 83.856C295.291 85.584 296.283 86.64 297.931 86.64ZM308.309 88.224C305.813 88.224 303.989 86.656 303.989 83.856C303.989 81.04 305.845 79.488 308.309 79.488C310.773 79.488 312.629 81.04 312.629 83.856C312.629 86.656 310.805 88.224 308.309 88.224ZM308.309 86.64C309.781 86.64 310.869 85.744 310.869 83.856C310.869 81.968 309.781 81.072 308.309 81.072C306.837 81.072 305.733 81.968 305.733 83.856C305.733 85.744 306.837 86.64 308.309 86.64ZM314.602 79.712H316.154L316.266 81.216C316.682 80.144 317.546 79.568 318.906 79.568C319.13 79.568 319.386 79.584 319.658 79.632V81.248C319.338 81.2 319.05 81.168 318.73 81.168C317.178 81.168 316.282 81.984 316.282 83.52V88H314.602V79.712ZM329.468 79.712V88H327.932L327.82 86.448C327.388 87.472 326.428 88.224 324.78 88.224C322.428 88.224 320.78 86.672 320.78 83.872C320.78 81.072 322.38 79.488 324.716 79.488C326.156 79.488 327.26 80.08 327.82 81.296L327.932 79.712H329.468ZM325.132 86.64C326.796 86.64 327.772 85.584 327.772 83.856C327.772 82.128 326.796 81.072 325.132 81.072C323.484 81.072 322.524 82.128 322.524 83.856C322.524 85.584 323.484 86.64 325.132 86.64ZM331.132 86.208L332.444 85.44C332.86 86.288 333.644 86.768 334.668 86.768C335.58 86.768 336.252 86.4 336.252 85.712C336.252 85.312 336.028 84.976 335.116 84.672L333.452 84.128C332.3 83.76 331.58 83.056 331.58 81.872C331.58 80.352 332.716 79.488 334.476 79.488C336.124 79.488 337.132 80.224 337.58 81.344L336.156 81.936C335.884 81.312 335.308 80.928 334.524 80.928C333.788 80.928 333.324 81.264 333.324 81.856C333.324 82.288 333.564 82.592 334.284 82.832L336.076 83.424C337.244 83.808 337.996 84.352 337.996 85.648C337.996 87.104 337.02 88.224 334.764 88.224C333.004 88.224 331.708 87.52 331.132 86.208ZM340.724 78.256C340.068 78.256 339.636 77.824 339.636 77.168C339.636 76.512 340.068 76.08 340.724 76.08C341.38 76.08 341.812 76.512 341.812 77.168C341.812 77.824 341.38 78.256 340.724 78.256ZM339.892 79.712H341.556V88H339.892V79.712Z" fill="#1976E4"/>
<g filter="url(#filter1_d_116_1340)">
<rect width="50.415" height="24.3538" transform="translate(349.776 112.66)" fill="#FFD21E"/>
<path d="M355.88 119.757H357.406V124.615L361.914 119.757H363.86L360.248 123.593L364.14 129.837H362.418L359.212 124.713L357.77 126.253C357.518 126.547 357.406 126.813 357.406 127.205V129.837H355.88V119.757ZM372.57 122.585V129.837H371.226L371.128 128.479C370.75 129.375 369.91 130.033 368.468 130.033C366.41 130.033 364.968 128.675 364.968 126.225C364.968 123.775 366.368 122.389 368.412 122.389C369.672 122.389 370.638 122.907 371.128 123.971L371.226 122.585H372.57ZM368.776 128.647C370.232 128.647 371.086 127.723 371.086 126.211C371.086 124.699 370.232 123.775 368.776 123.775C367.334 123.775 366.494 124.699 366.494 126.211C366.494 127.723 367.334 128.647 368.776 128.647ZM374.426 122.585H375.784L375.882 123.887C376.26 122.935 377.03 122.389 378.22 122.389C379.396 122.389 380.264 122.921 380.642 123.999C380.992 122.977 381.846 122.389 383.12 122.389C384.786 122.389 385.808 123.369 385.808 125.357V129.837H384.352V125.651C384.352 124.223 383.582 123.789 382.672 123.789C381.482 123.789 380.852 124.545 380.852 125.721V129.837H379.382V125.651C379.382 124.223 378.626 123.789 377.716 123.789C376.526 123.789 375.896 124.545 375.896 125.721V129.837H374.426V122.585ZM394.259 129.837H392.915L392.803 128.479C392.425 129.445 391.655 130.033 390.367 130.033C388.701 130.033 387.665 129.067 387.665 127.051V122.585H389.135V126.799C389.135 128.283 389.891 128.633 390.773 128.633C392.089 128.633 392.789 127.849 392.789 126.435V122.585H394.259V129.837Z" fill="#1E2223"/>
</g>
<g filter="url(#filter2_d_116_1340)">
<path d="M339.772 109.13L336.83 93.8301L349.776 101.48L343.303 103.245L339.772 109.13Z" fill="#FFD21E"/>
<path d="M337.129 93.3235L336.006 92.6595L336.252 93.9412L339.194 109.241L339.485 110.752L340.277 109.432L343.686 103.751L349.931 102.047L351.273 101.681L350.075 100.973L337.129 93.3235Z" stroke="white" stroke-width="1.17688" stroke-linecap="square"/>
</g>
<g filter="url(#filter3_d_116_1340)">
<rect width="75.415" height="24.3538" transform="translate(132.776 27.6602)" fill="#1976E4"/>
<path d="M138.727 34.7569H143.445C145.335 34.7569 146.539 35.8489 146.539 37.7809C146.539 39.6569 145.405 40.7489 143.487 40.7489H143.333L146.805 44.8369H144.901L141.765 41.1549C141.527 40.8749 141.261 40.7489 140.883 40.7489H140.253V44.8369H138.727V34.7569ZM143.179 36.1429H140.253V39.4189H143.179C144.313 39.4189 144.971 38.8869 144.971 37.7949C144.971 36.6889 144.327 36.1429 143.179 36.1429ZM154.72 43.2129C154.146 44.3189 153.054 45.0329 151.402 45.0329C149.092 45.0329 147.678 43.6469 147.678 41.2389C147.678 38.7189 149.232 37.3889 151.388 37.3889C153.208 37.3889 154.972 38.3129 154.972 41.5049V41.6729H149.232C149.372 43.0029 150.198 43.6749 151.416 43.6749C152.452 43.6749 153.124 43.1849 153.488 42.5129L154.72 43.2129ZM151.318 38.7329C150.184 38.7329 149.428 39.4189 149.246 40.6089H153.404C153.264 39.3629 152.438 38.7329 151.318 38.7329ZM156.646 34.7569H158.116V40.6089L161.42 37.5849H163.422L160.832 39.9509L163.744 44.8369H162.05L159.754 40.9169L158.48 42.0509C158.214 42.2749 158.116 42.5129 158.116 42.8489V44.8369H156.646V34.7569ZM172.133 37.5849V44.8369H170.789L170.691 43.4789C170.313 44.3749 169.473 45.0329 168.031 45.0329C165.973 45.0329 164.531 43.6749 164.531 41.2249C164.531 38.7749 165.931 37.3889 167.975 37.3889C169.235 37.3889 170.201 37.9069 170.691 38.9709L170.789 37.5849H172.133ZM168.339 43.6469C169.795 43.6469 170.649 42.7229 170.649 41.2109C170.649 39.6989 169.795 38.7749 168.339 38.7749C166.897 38.7749 166.057 39.6989 166.057 41.2109C166.057 42.7229 166.897 43.6469 168.339 43.6469ZM173.989 37.5849H175.347L175.445 38.9849C175.837 37.9769 176.649 37.3889 177.937 37.3889C179.617 37.3889 180.723 38.4109 180.723 40.3989V44.8369H179.253V40.6929C179.253 39.2789 178.511 38.7889 177.475 38.7889C176.173 38.7889 175.459 39.5729 175.459 41.0149V44.8369H173.989V37.5849ZM182.579 37.5849H183.937L184.035 38.8869C184.413 37.9349 185.183 37.3889 186.373 37.3889C187.549 37.3889 188.417 37.9209 188.795 38.9989C189.145 37.9769 189.999 37.3889 191.273 37.3889C192.939 37.3889 193.961 38.3689 193.961 40.3569V44.8369H192.505V40.6509C192.505 39.2229 191.735 38.7889 190.825 38.7889C189.635 38.7889 189.005 39.5449 189.005 40.7209V44.8369H187.535V40.6509C187.535 39.2229 186.779 38.7889 185.869 38.7889C184.679 38.7889 184.049 39.5449 184.049 40.7209V44.8369H182.579V37.5849ZM202.413 44.8369H201.069L200.957 43.4789C200.579 44.4449 199.809 45.0329 198.521 45.0329C196.855 45.0329 195.819 44.0669 195.819 42.0509V37.5849H197.289V41.7989C197.289 43.2829 198.045 43.6329 198.927 43.6329C200.243 43.6329 200.943 42.8489 200.943 41.4349V37.5849H202.413V44.8369Z" fill="white"/>
</g>
<g filter="url(#filter4_d_116_1340)">
<path d="M216.888 55.5307L219.83 70.8301L206.884 63.1804L213.357 61.415L216.888 55.5307Z" fill="#1976E4"/>
<path d="M217.466 55.4195L217.175 53.9082L216.383 55.2279L212.974 60.9096L206.73 62.6127L205.387 62.9789L206.585 63.687L219.531 71.3367L220.654 72.0007L220.408 70.719L217.466 55.4195Z" stroke="white" stroke-width="1.17688" stroke-linecap="square"/>
</g>
</g>
<rect x="10" y="10" width="548" height="144" rx="22" stroke="white" stroke-width="4" shape-rendering="crispEdges"/>
</g>
<defs>
<filter id="filter0_d_116_1340" x="0" y="0" width="568" height="164" filterUnits="userSpaceOnUse" color-interpolation-filters="sRGB">
<feFlood flood-opacity="0" result="BackgroundImageFix"/>
<feColorMatrix in="SourceAlpha" type="matrix" values="0 0 0 0 0 0 0 0 0 0 0 0 0 0 0 0 0 0 127 0" result="hardAlpha"/>
<feOffset/>
<feGaussianBlur stdDeviation="4"/>
<feComposite in2="hardAlpha" operator="out"/>
<feColorMatrix type="matrix" values="0 0 0 0 0 0 0 0 0 0 0 0 0 0 0 0 0 0 0.05 0"/>
<feBlend mode="normal" in2="BackgroundImageFix" result="effect1_dropShadow_116_1340"/>
<feBlend mode="normal" in="SourceGraphic" in2="effect1_dropShadow_116_1340" result="shape"/>
</filter>
<filter id="filter1_d_116_1340" x="345.068" y="109.13" width="59.8301" height="33.7688" filterUnits="userSpaceOnUse" color-interpolation-filters="sRGB">
<feFlood flood-opacity="0" result="BackgroundImageFix"/>
<feColorMatrix in="SourceAlpha" type="matrix" values="0 0 0 0 0 0 0 0 0 0 0 0 0 0 0 0 0 0 127 0" result="hardAlpha"/>
<feOffset dy="1.17688"/>
<feGaussianBlur stdDeviation="2.35376"/>
<feColorMatrix type="matrix" values="0 0 0 0 0 0 0 0 0 0 0 0 0 0 0 0 0 0 0.16 0"/>
<feBlend mode="normal" in2="BackgroundImageFix" result="effect1_dropShadow_116_1340"/>
<feBlend mode="normal" in="SourceGraphic" in2="effect1_dropShadow_116_1340" result="shape"/>
</filter>
<filter id="filter2_d_116_1340" x="331.651" y="89.135" width="24.6506" height="27.9468" filterUnits="userSpaceOnUse" color-interpolation-filters="sRGB">
<feFlood flood-opacity="0" result="BackgroundImageFix"/>
<feColorMatrix in="SourceAlpha" type="matrix" values="0 0 0 0 0 0 0 0 0 0 0 0 0 0 0 0 0 0 127 0" result="hardAlpha"/>
<feOffset dy="1.17688"/>
<feGaussianBlur stdDeviation="1.76532"/>
<feColorMatrix type="matrix" values="0 0 0 0 0 0 0 0 0 0 0 0 0 0 0 0 0 0 0.35 0"/>
<feBlend mode="normal" in2="BackgroundImageFix" result="effect1_dropShadow_116_1340"/>
<feBlend mode="normal" in="SourceGraphic" in2="effect1_dropShadow_116_1340" result="shape"/>
</filter>
<filter id="filter3_d_116_1340" x="128.068" y="24.1295" width="84.8301" height="33.7688" filterUnits="userSpaceOnUse" color-interpolation-filters="sRGB">
<feFlood flood-opacity="0" result="BackgroundImageFix"/>
<feColorMatrix in="SourceAlpha" type="matrix" values="0 0 0 0 0 0 0 0 0 0 0 0 0 0 0 0 0 0 127 0" result="hardAlpha"/>
<feOffset dy="1.17688"/>
<feGaussianBlur stdDeviation="2.35376"/>
<feColorMatrix type="matrix" values="0 0 0 0 0 0 0 0 0 0 0 0 0 0 0 0 0 0 0.16 0"/>
<feBlend mode="normal" in2="BackgroundImageFix" result="effect1_dropShadow_116_1340"/>
<feBlend mode="normal" in="SourceGraphic" in2="effect1_dropShadow_116_1340" result="shape"/>
</filter>
<filter id="filter4_d_116_1340" x="200.889" y="50.2859" width="23.5894" height="26.8855" filterUnits="userSpaceOnUse" color-interpolation-filters="sRGB">
<feFlood flood-opacity="0" result="BackgroundImageFix"/>
<feColorMatrix in="SourceAlpha" type="matrix" values="0 0 0 0 0 0 0 0 0 0 0 0 0 0 0 0 0 0 127 0" result="hardAlpha"/>
<feOffset dy="1"/>
<feGaussianBlur stdDeviation="1.5"/>
<feColorMatrix type="matrix" values="0 0 0 0 0 0 0 0 0 0 0 0 0 0 0 0 0 0 0.35 0"/>
<feBlend mode="normal" in2="BackgroundImageFix" result="effect1_dropShadow_116_1340"/>
<feBlend mode="normal" in="SourceGraphic" in2="effect1_dropShadow_116_1340" result="shape"/>
</filter>
<clipPath id="clip0_116_1340">
<rect x="8" y="8" width="552" height="148" rx="24" fill="white"/>
</clipPath>
</defs>
</svg>
