<svg width="80" height="80" viewBox="0 0 80 80" fill="none" xmlns="http://www.w3.org/2000/svg">
<g filter="url(#filter0_d_389_3650)">
<g clip-path="url(#clip0_389_3650)">
<rect x="8" y="8" width="64" height="64" rx="32" fill="#FFFBEB"/>
<line x1="24.5" y1="8" x2="24.5" y2="72" stroke="#C39F0E" stroke-opacity="0.5"/>
<line x1="72" y1="24.5" x2="8" y2="24.5" stroke="#C39F0E" stroke-opacity="0.5"/>
<line x1="72" y1="56.5" x2="8" y2="56.5" stroke="#C39F0E" stroke-opacity="0.5"/>
<line x1="56.5" y1="8" x2="56.5" y2="72" stroke="#C39F0E" stroke-opacity="0.5"/>
<rect x="24.5" y="17.5" width="85" height="56" rx="3.5" fill="white"/>
<rect x="24.5" y="17.5" width="85" height="56" rx="3.5" stroke="#1976E4"/>
<path d="M30.0835 23.5C30.0835 23.8458 30.3627 24.125 30.7085 24.125H32.3752V28.5C32.3752 28.8458 32.6543 29.125 33.0002 29.125C33.346 29.125 33.6252 28.8458 33.6252 28.5V24.125H35.2918C35.6377 24.125 35.9168 23.8458 35.9168 23.5C35.9168 23.1542 35.6377 22.875 35.2918 22.875H30.7085C30.3627 22.875 30.0835 23.1542 30.0835 23.5Z" fill="#1976E4" fill-opacity="0.5"/>
<rect x="28" y="33" width="78" height="3" rx="1.5" fill="#7FB3F1"/>
<rect x="28" y="40" width="17" height="3" rx="1.5" fill="#7FB3F1"/>
<rect x="28" y="47" width="52" height="3" rx="1.5" fill="#7FB3F1"/>
<rect x="16.5" y="45.5" width="85" height="56" rx="3.5" fill="white"/>
<rect x="16.5" y="45.5" width="85" height="56" rx="3.5" stroke="#1976E4"/>
<path d="M22.0835 51.5C22.0835 51.8458 22.3627 52.125 22.7085 52.125H24.3752V56.5C24.3752 56.8458 24.6543 57.125 25.0002 57.125C25.346 57.125 25.6252 56.8458 25.6252 56.5V52.125H27.2918C27.6377 52.125 27.9168 51.8458 27.9168 51.5C27.9168 51.1542 27.6377 50.875 27.2918 50.875H22.7085C22.3627 50.875 22.0835 51.1542 22.0835 51.5Z" fill="#1976E4" fill-opacity="0.5"/>
<rect x="20" y="61" width="78" height="3" rx="1.5" fill="#7FB3F1"/>
<rect x="20" y="68" width="17" height="3" rx="1.5" fill="#7FB3F1"/>
</g>
<rect x="10" y="10" width="60" height="60" rx="30" stroke="white" stroke-width="4"/>
</g>
<defs>
<filter id="filter0_d_389_3650" x="0" y="0" width="80" height="80" filterUnits="userSpaceOnUse" color-interpolation-filters="sRGB">
<feFlood flood-opacity="0" result="BackgroundImageFix"/>
<feColorMatrix in="SourceAlpha" type="matrix" values="0 0 0 0 0 0 0 0 0 0 0 0 0 0 0 0 0 0 127 0" result="hardAlpha"/>
<feOffset/>
<feGaussianBlur stdDeviation="4"/>
<feComposite in2="hardAlpha" operator="out"/>
<feColorMatrix type="matrix" values="0 0 0 0 0 0 0 0 0 0 0 0 0 0 0 0 0 0 0.08 0"/>
<feBlend mode="normal" in2="BackgroundImageFix" result="effect1_dropShadow_389_3650"/>
<feBlend mode="normal" in="SourceGraphic" in2="effect1_dropShadow_389_3650" result="shape"/>
</filter>
<clipPath id="clip0_389_3650">
<rect x="8" y="8" width="64" height="64" rx="32" fill="white"/>
</clipPath>
</defs>
</svg>
